<?xml version="1.0" encoding="UTF-8" standalone="no"?>
<!-- Created with Inkscape (http://www.inkscape.org/) -->

<svg
   xmlns:dc="http://purl.org/dc/elements/1.1/"
   xmlns:cc="http://creativecommons.org/ns#"
   xmlns:rdf="http://www.w3.org/1999/02/22-rdf-syntax-ns#"
   xmlns:svg="http://www.w3.org/2000/svg"
   xmlns="http://www.w3.org/2000/svg"
   xmlns:sodipodi="http://sodipodi.sourceforge.net/DTD/sodipodi-0.dtd"
   xmlns:inkscape="http://www.inkscape.org/namespaces/inkscape"
   width="151.18111"
   height="151.18111"
   viewBox="0 0 40 40"
   version="1.1"
   id="svg8"
   inkscape:version="0.92.5 (2060ec1f9f, 2020-04-08)"
   sodipodi:docname="icon3.svg">
  <defs
     id="defs2" />
  <sodipodi:namedview
     id="base"
     pagecolor="#ffffff"
     bordercolor="#666666"
     borderopacity="1.0"
     inkscape:pageopacity="0.0"
     inkscape:pageshadow="2"
     inkscape:zoom="1.979899"
     inkscape:cx="92.795809"
     inkscape:cy="43.094952"
     inkscape:document-units="mm"
     inkscape:current-layer="layer1"
     showgrid="false"
     units="px"
     inkscape:window-width="1920"
     inkscape:window-height="997"
     inkscape:window-x="1280"
     inkscape:window-y="28"
     inkscape:window-maximized="1" />
  <metadata
     id="metadata5">
    <rdf:RDF>
      <cc:Work
         rdf:about="">
        <dc:format>image/svg+xml</dc:format>
        <dc:type
           rdf:resource="http://purl.org/dc/dcmitype/StillImage" />
        <dc:title></dc:title>
      </cc:Work>
    </rdf:RDF>
  </metadata>
  <g
     inkscape:label="Vrstva 1"
     inkscape:groupmode="layer"
     id="layer1"
     transform="translate(0,-257)">
    <path
       style="fill:#4682b4;fill-opacity:1;stroke-width:0.10270185"
       d="m 21.363406,185.31281 c -0.199954,-0.10086 -0.517525,-0.35923 -0.705709,-0.57415 -0.678563,-0.77495 -0.372088,-1.87226 0.638942,-2.28771 0.411658,-0.16915 0.900482,-0.17808 11.270051,-0.20582 7.548091,-0.0202 11.013906,0.002 11.41332,0.0732 1.409411,0.25112 2.102932,1.74576 1.215086,2.61868 -0.604934,0.59476 0.154986,0.55991 -12.19937,0.55953 -10.999173,-3.6e-4 -11.277461,-0.004 -11.63232,-0.18374 z m 1.900306,-3.51841 c -0.233805,-0.13548 -0.257959,-0.2097 -0.213285,-0.65536 0.03597,-0.35911 0.0051,-0.53371 -0.108462,-0.61163 -0.262822,-0.18045 -0.593979,-0.79557 -0.593979,-1.10331 0,-0.39826 0.280693,-0.81017 0.66378,-0.97406 0.23879,-0.10216 0.33939,-0.22841 0.392044,-0.492 0.103059,-0.51596 0.08893,-0.86835 -0.03482,-0.86835 -0.05948,0 -0.237322,-0.18236 -0.395198,-0.40522 -0.515651,-0.72793 -0.315757,-1.43958 0.50272,-1.78973 0.282188,-0.12073 0.322567,-0.19514 0.357003,-0.65789 0.03351,-0.45023 0.0025,-0.54979 -0.225958,-0.72609 -0.843223,-0.65067 -0.741369,-1.79386 0.18821,-2.1124 0.307763,-0.10547 0.353649,-0.1734 0.421764,-0.62442 0.07121,-0.47151 0.0561,-0.5193 -0.221322,-0.69982 -0.953576,-0.62055 -0.824673,-1.83235 0.233835,-2.19824 0.338617,-0.11704 0.376236,-0.1679 0.376236,-0.50859 0,-0.75051 -0.03316,-0.73991 2.316104,-0.73991 2.070862,0 2.083306,0.001 2.25911,0.2232 0.159801,0.20177 0.162717,0.92902 0.03039,7.57014 -0.126145,6.32984 -0.169798,7.35915 -0.31532,7.43526 -0.09329,0.0488 -1.33292,0.089 -2.76903,0.0898 -2.226134,10e-4 -2.638044,-0.0206 -2.863783,-0.15135 z m 3.711493,-1.03838 c 0.564609,-0.23469 0.90556,-0.7011 0.90556,-1.23881 0,-1.30269 -2.183534,-1.68621 -3.055991,-0.53676 -0.293778,0.38706 -0.254832,1.17935 0.07292,1.48344 0.48536,0.45031 1.390673,0.57761 2.077509,0.29213 z m -1.420465,-0.52765 c -0.628905,-0.52029 -0.509881,-1.25176 0.246212,-1.51311 0.754303,-0.26074 1.515243,0.25338 1.515243,1.02376 0,0.24632 -0.0827,0.38086 -0.347405,0.56513 -0.492392,0.34276 -0.936936,0.31894 -1.41405,-0.0758 z m 1.772987,-3.07049 c 0.46041,-0.25445 0.779064,-0.74212 0.777029,-1.18916 -0.0059,-1.29613 -2.202864,-1.68397 -3.047444,-0.53798 -0.275974,0.37447 -0.297543,1.06488 -0.04268,1.36592 0.49334,0.5827 1.599718,0.75547 2.313083,0.36122 z m -1.44081,-0.29922 c -0.130614,-0.0757 -0.319883,-0.30799 -0.420598,-0.51623 -0.161136,-0.33317 -0.163902,-0.41668 -0.02304,-0.69559 0.380064,-0.75254 1.629168,-0.68772 1.992743,0.1034 0.175173,0.38117 0.121823,0.65565 -0.186328,0.95862 -0.229133,0.22528 -0.382353,0.28741 -0.708817,0.28741 -0.229072,0 -0.523357,-0.0619 -0.653967,-0.13761 z m 1.655168,-3.24863 c 1.024857,-0.57874 1.029402,-1.72868 0.0087,-2.20327 -0.996308,-0.46325 -2.178657,-0.05 -2.47884,0.86644 -0.283362,0.86507 0.385959,1.54518 1.521837,1.5464 0.412776,3.5e-4 0.681619,-0.059 0.948297,-0.20957 z m -1.500996,-0.35175 c -0.408713,-0.26598 -0.593581,-0.77002 -0.413987,-1.12872 0.373219,-0.74542 1.503349,-0.73955 1.972023,0.0103 0.244752,0.39156 0.208182,0.69315 -0.123594,1.01935 -0.358108,0.35209 -0.979707,0.39504 -1.434442,0.0991 z m 1.505237,-3.10454 c 0.6375,-0.26596 1.078109,-0.91657 0.963374,-1.42253 -0.228547,-1.00788 -1.746391,-1.39574 -2.713357,-0.69336 -0.922099,0.6698 -0.765111,1.73937 0.314833,2.14501 0.611101,0.22954 0.825543,0.22519 1.43515,-0.0291 z m -0.976702,-0.25302 c -0.295284,-0.1012 -0.703865,-0.52104 -0.793007,-0.81488 -0.138987,-0.45812 0.439347,-1.05726 1.020547,-1.05726 0.36474,0 0.772779,0.23955 0.979745,0.57517 0.292387,0.47414 0.273341,0.67895 -0.09374,1.00805 -0.343595,0.30804 -0.750037,0.41349 -1.113545,0.28892 z m 3.300313,11.9039 c -0.224783,-0.18596 -0.208323,0.0237 -0.190527,-2.42631 0.04041,-5.5632 0.25303,-12.60968 0.382552,-12.67782 0.07344,-0.0386 1.364539,-0.0709 2.869097,-0.0717 2.718207,-0.001 2.736617,-9e-5 2.903063,0.21006 0.141436,0.17859 0.188525,1.35615 0.302577,7.56742 0.07429,4.04576 0.09756,7.38703 0.05171,7.42506 -0.04586,0.038 -1.445197,0.0815 -3.109645,0.0967 -2.665408,0.0243 -3.048036,0.01 -3.20882,-0.12344 z m 3.761589,-1.02175 c 1.146516,-0.49049 1.324202,-1.76327 0.317985,-2.27774 -0.516898,-0.26429 -1.358333,-0.26968 -1.869268,-0.012 -0.390086,0.19675 -0.805209,0.81103 -0.809583,1.19798 -0.0099,0.87242 1.375749,1.51316 2.360866,1.09172 z m -1.20973,-0.38268 c -0.314864,-0.18245 -0.589044,-0.61178 -0.589044,-0.92235 0,-0.13018 0.141453,-0.36767 0.314347,-0.52776 0.592771,-0.54885 1.532455,-0.32017 1.838686,0.44747 0.316474,0.79331 -0.747788,1.4756 -1.563989,1.00264 z m 1.283416,-3.18033 c 0.783412,-0.30755 1.148375,-1.33376 0.682949,-1.92034 -0.413002,-0.52051 -1.469722,-0.69903 -2.218431,-0.37479 -0.429805,0.18613 -0.901669,0.8286 -0.901374,1.22726 8.41e-4,0.91101 1.340661,1.49822 2.436856,1.06787 z m -1.283416,-0.36938 c -0.318026,-0.18429 -0.589044,-0.61264 -0.589044,-0.93101 0,-0.3655 0.564446,-0.79147 1.048768,-0.79147 1.033005,0 1.578525,1.16744 0.786392,1.68292 -0.341562,0.22227 -0.900192,0.24 -1.246116,0.0396 z m 1.422855,-3.21993 c 0.497169,-0.25077 0.86026,-0.91598 0.755743,-1.38458 -0.27439,-1.23022 -2.430775,-1.40192 -3.106376,-0.24734 -0.268283,0.45849 -0.281342,0.69013 -0.06327,1.12194 0.33342,0.66016 1.58986,0.92561 2.413897,0.50998 z M 32.3182,173.23638 c -0.383965,-0.34876 -0.510807,-0.62956 -0.43513,-0.96328 0.125682,-0.55424 0.930058,-0.86724 1.53753,-0.59828 0.33208,0.14703 0.702265,0.81282 0.614562,1.1053 -0.127965,0.42675 -0.493665,0.66644 -1.016818,0.66644 -0.342267,0 -0.531181,-0.0567 -0.700144,-0.21018 z m 1.325477,-3.08264 c 0.637495,-0.26596 1.078105,-0.91657 0.96337,-1.42253 -0.228547,-1.00788 -1.746391,-1.39574 -2.713358,-0.69336 -1.15278,0.83736 -0.528621,2.26109 1.016045,2.31764 0.126572,0.004 0.456847,-0.0862 0.733943,-0.20175 z m -1.08102,-0.29221 c -0.419079,-0.15363 -0.793259,-0.7707 -0.684571,-1.12894 0.160304,-0.52841 0.830955,-0.81332 1.430685,-0.60781 0.434853,0.14902 0.824546,0.74623 0.726903,1.11401 -0.144272,0.54342 -0.861853,0.84679 -1.473017,0.62274 z m 4.481796,11.89299 c -0.205271,-0.18228 -0.22125,-0.43268 -0.296543,-4.64732 -0.04377,-2.45006 -0.08785,-5.79981 -0.09796,-7.44388 l -0.01835,-2.98924 2.168324,-0.0253 c 2.449108,-0.0286 2.314465,-0.0692 2.461412,0.74156 0.06394,0.35279 0.129723,0.44648 0.344811,0.49115 0.37485,0.0778 0.849787,0.63227 0.921731,1.07602 0.07603,0.469 -0.125272,0.88611 -0.547782,1.13501 -0.285482,0.16817 -0.323831,0.24834 -0.323831,0.67693 0,0.4638 0.01899,0.49464 0.412963,0.67016 0.447451,0.19936 0.822309,0.74095 0.826611,1.19428 0.003,0.3331 -0.231437,0.70644 -0.617344,0.98245 -0.280211,0.20043 -0.296744,0.25227 -0.223448,0.70061 0.04354,0.26629 0.125929,0.49869 0.183099,0.51645 0.319421,0.0992 0.785982,0.54213 0.89857,0.85301 0.177152,0.48917 0.04993,0.94519 -0.352718,1.26433 -0.288226,0.22845 -0.337086,0.33622 -0.335609,0.74031 0.0022,0.52894 0.04089,0.59742 0.467026,0.82153 0.393968,0.20717 0.711171,0.89278 0.613113,1.32519 -0.04084,0.18004 -0.229058,0.45544 -0.418301,0.612 -0.315623,0.26112 -0.340944,0.32852 -0.306218,0.81536 0.03551,0.49798 0.02044,0.5348 -0.244432,0.5971 -0.155259,0.0365 -1.410854,0.0706 -2.790218,0.0757 -2.395447,0.009 -2.517668,6.4e-4 -2.724894,-0.18335 z m 3.326679,-0.98652 c 0.52658,-0.20673 0.860648,-0.62575 0.912657,-1.14473 0.08039,-0.80227 -0.556218,-1.31921 -1.624597,-1.31921 -0.550474,0 -0.653388,0.0345 -1.075855,0.3605 -0.426945,0.32947 -0.471256,0.40787 -0.514772,0.91079 -0.04032,0.46625 -0.0086,0.59118 0.207896,0.81816 0.48061,0.50389 1.363151,0.66167 2.094671,0.37449 z m -1.151538,-0.32894 c -0.51193,-0.2055 -0.775715,-0.9601 -0.490012,-1.40174 0.0671,-0.10373 0.29575,-0.24866 0.508111,-0.32206 1.085458,-0.37521 2.026539,0.86162 1.185192,1.55767 -0.346134,0.28636 -0.761094,0.34365 -1.203291,0.16613 z m 1.054496,-3.25546 c 0.518831,-0.2617 0.816667,-0.70841 0.81717,-1.22563 0.0013,-1.29214 -2.204074,-1.6735 -3.04886,-0.52723 -0.275974,0.37447 -0.297543,1.06488 -0.04268,1.36592 0.476765,0.56312 1.55979,0.74738 2.274358,0.38694 z m -1.332949,-0.30707 c -0.920963,-0.6004 -0.62821,-1.75191 0.444006,-1.74646 0.989804,0.005 1.550926,1.0945 0.843195,1.63713 -0.329306,0.25248 -0.982519,0.30797 -1.287201,0.10933 z m 1.122056,-3.2053 c 0.818152,-0.39983 1.085364,-1.427 0.516681,-1.98612 -0.751834,-0.7392 -2.303724,-0.57187 -2.805232,0.30247 -0.53422,0.93136 0.166586,1.83263 1.42501,1.83263 0.308672,0 0.695104,-0.0667 0.863541,-0.14898 z m -1.361059,-0.34144 c -0.627693,-0.42018 -0.721315,-1.06053 -0.216159,-1.47845 0.593198,-0.49075 1.412169,-0.30872 1.749553,0.38886 0.157249,0.32513 0.159592,0.40941 0.01912,0.68752 -0.08805,0.17434 -0.262671,0.36239 -0.388049,0.4179 -0.308023,0.13638 -0.950136,0.12765 -1.164477,-0.0158 z m 0.99755,-3.14693 c 1.436152,-0.53944 1.257437,-2.25417 -0.259471,-2.4896 -1.152344,-0.17884 -2.30547,0.77627 -2.030691,1.682 0.10521,0.34679 0.610976,0.79062 1.009814,0.88615 0.538983,0.1291 0.764359,0.11527 1.280348,-0.0786 z m -1.010443,-0.30006 c -0.343905,-0.10596 -0.759148,-0.67695 -0.759148,-1.04389 0,-0.57786 0.888696,-0.9663 1.55682,-0.68047 0.431861,0.18475 0.767146,0.83662 0.607755,1.1816 -0.22469,0.4863 -0.829982,0.72005 -1.405427,0.54276 z M 24.855416,165.862 c -0.09249,-0.0765 -0.136235,-0.50519 -0.136235,-1.33502 v -1.22232 l -1.083691,-0.44817 -1.083691,-0.44817 -0.243049,0.18401 c -0.711957,0.53903 -1.98137,0.74147 -2.823672,0.45032 -0.876234,-0.30289 -1.627321,-1.15621 -1.738965,-1.97567 -0.108752,-0.7982 0.541439,-1.76167 1.451622,-2.15106 0.186751,-0.0799 0.584228,-0.16924 0.88328,-0.19854 1.473191,-0.14435 2.737009,0.77573 3.032499,2.20772 0.08146,0.39475 0.122949,0.43198 0.828766,0.74368 l 0.743012,0.32812 0.364351,-0.25363 0.364347,-0.25363 h 7.491442 7.491442 l 0.328597,0.22874 0.328597,0.22875 0.950346,-0.41285 c 0.522693,-0.22706 1.0568,-0.41407 1.186903,-0.41557 0.442111,-0.005 0.825019,0.59949 0.599987,0.94735 -0.06139,0.0949 -0.52879,0.34556 -1.038655,0.55701 -1.648129,0.68353 -1.536758,0.54026 -1.57313,2.02378 l -0.03137,1.27992 -8.078243,0.024 c -6.189369,0.0184 -8.1101,-0.003 -8.21448,-0.0887 z m 3.443746,-1.42532 c 0.806814,-0.77367 0.04772,-1.88147 -1.157679,-1.68948 l -0.44631,0.0711 0.577262,0.2278 c 0.845222,0.33355 1.053912,0.79241 0.549992,1.20929 -0.320446,0.26511 -0.51335,0.24644 -1.209696,-0.11711 -0.561945,-0.29337 -0.666177,-0.2826 -0.524263,0.0542 0.280958,0.66676 1.616211,0.81427 2.210694,0.24422 z m 11.05365,0.005 c 0.482543,-0.39921 0.507132,-0.58063 0.05233,-0.38606 -0.182367,0.078 -0.363207,0.18419 -0.401863,0.23593 -0.03866,0.0518 -0.241658,0.0941 -0.451125,0.0941 -0.291498,0 -0.435629,-0.0636 -0.614365,-0.27131 -0.422729,-0.49114 -0.263768,-0.83678 0.495098,-1.07654 0.601619,-0.19008 0.665141,-0.33416 0.146469,-0.33221 -0.502839,0.002 -0.877007,0.17625 -1.182205,0.55092 -0.601874,0.73888 -0.05929,1.4918 1.080585,1.49948 0.410813,0.003 0.553987,-0.0487 0.875081,-0.31429 z m -13.931064,-3.71595 c -0.145981,-0.12077 -0.203582,-2.44229 -0.06786,-2.7349 0.156941,-0.33835 0.644858,-0.42454 2.40324,-0.42454 h 1.694197 l 0.06687,0.3036 c 0.03678,0.16697 0.05178,0.89209 0.03333,1.61137 l -0.03351,1.3078 -1.979135,0.0254 c -1.444034,0.0185 -2.016444,-0.006 -2.117135,-0.0887 z m 5.014052,-0.0636 c -0.16374,-0.14969 -0.185594,-0.37166 -0.158644,-1.61139 l 0.03123,-1.43779 2.571522,-0.0251 c 2.369896,-0.0232 2.577938,-0.0122 2.653474,0.14011 0.103095,0.20785 0.100061,2.72367 -0.0034,2.94429 -0.06979,0.14861 -0.296232,0.16347 -2.490466,0.16347 -2.20897,0 -2.429798,-0.0148 -2.603587,-0.17359 z m 6.048999,0.0615 c -0.09431,-0.078 -0.135497,-0.57502 -0.135497,-1.63474 v -1.52263 h 1.688395 c 1.882002,0 2.165342,0.0604 2.427519,0.51748 0.256068,0.44642 0.253017,2.61375 -0.0039,2.69529 -0.350755,0.11135 -3.833713,0.0628 -3.976623,-0.0554 z M 26.054511,156.8423 c -0.22816,-0.0186 -0.462242,-0.084 -0.520187,-0.14532 -0.06889,-0.0729 0.04182,-0.47953 0.319695,-1.17441 l 0.425046,-1.06287 -0.214952,-0.29163 c -0.256326,-0.34776 -0.27279,-0.55657 -0.05565,-0.70566 0.133308,-0.0915 0.07702,-0.17336 -0.335877,-0.48822 -0.737879,-0.56269 -1.179239,-1.16099 -1.179239,-1.59857 0,-0.29152 0.07757,-0.43115 0.377253,-0.67908 0.770571,-0.63749 1.309118,-0.55412 2.413579,0.37362 0.666844,0.56015 0.838542,0.66083 0.945365,0.55435 0.07179,-0.0716 0.275431,-0.13012 0.452541,-0.13012 0.245474,0 0.364779,0.0684 0.501918,0.28782 0.09895,0.1583 0.23998,0.26576 0.313414,0.23881 1.55524,-0.57078 2.779523,-0.77372 4.029037,-0.66789 0.868236,0.0735 1.807362,0.28132 2.410362,0.53328 0.465827,0.19465 0.492457,0.18947 0.685976,-0.13348 0.07852,-0.13102 0.250982,-0.22363 0.452101,-0.24276 0.283059,-0.027 0.489789,0.10487 1.596377,1.01774 0.708555,0.58453 1.294024,1.14743 1.322758,1.27179 0.03132,0.13547 -0.03751,0.31675 -0.175198,0.46157 l -0.226747,0.23847 0.419331,1.12163 c 0.23063,0.6169 0.385976,1.14923 0.345211,1.18297 -0.07607,0.063 -13.555621,0.0987 -14.302118,0.038 z m 8.292617,-1.01547 c 0.622713,-0.36207 1.098866,-1.11193 1.098866,-1.73052 0,-0.60844 -0.206598,-0.98771 -0.765143,-1.40468 -0.999662,-0.74625 -2.504631,-0.71411 -3.457057,0.0738 -1.005782,0.83209 -0.974057,2.3073 0.0637,2.96214 0.593986,0.37482 0.876942,0.43958 1.766023,0.40422 0.69244,-0.0275 0.901041,-0.0767 1.29361,-0.30499 z m -1.988744,0.0194 c -1.732151,-0.5278 -1.995044,-2.56303 -0.417091,-3.22901 1.50094,-0.63348 3.156392,0.34097 3.03025,1.78369 -0.09734,1.11331 -1.378054,1.82165 -2.613159,1.44532 z m 1.087644,-0.90348 c 0.335096,-0.12631 0.645001,-0.54803 0.645001,-0.87771 0,-0.35683 -0.56172,-0.79577 -1.018345,-0.79577 -0.908933,0 -1.528108,0.78119 -1.119637,1.41261 0.214199,0.33112 0.960617,0.46155 1.492981,0.26087 z M 27.669272,151.981 c -0.05716,-0.0158 -0.380906,-0.2578 -0.71943,-0.53786 -0.689017,-0.57002 -1.140552,-0.66374 -1.553178,-0.32238 -0.388186,0.32115 -0.28855,0.62931 0.395197,1.22235 0.341562,0.29625 0.621027,0.59299 0.621027,0.65941 0,0.0664 0.306069,-0.12979 0.680155,-0.43604 0.374085,-0.30625 0.633384,-0.56971 0.576229,-0.58548 z m 11.934292,1.05528 c -0.117974,-0.2142 -0.07682,-0.27764 0.510534,-0.78707 0.684652,-0.59383 0.79474,-0.88936 0.432355,-1.16067 -0.385535,-0.28866 -0.777306,-0.19343 -1.477582,0.35916 -0.358091,0.28258 -0.70821,0.51378 -0.778042,0.51378 -0.06982,0 -0.186016,-0.0913 -0.258193,-0.20286 -0.118579,-0.18331 -0.06098,-0.2593 0.597374,-0.78815 0.755881,-0.60719 1.124239,-0.75394 1.62929,-0.64907 0.70671,0.14674 1.307624,1.05066 1.058635,1.59246 -0.144314,0.31402 -1.248955,1.35031 -1.442494,1.35323 -0.07896,0.001 -0.201309,-0.10266 -0.271877,-0.23081 z"
       id="path1429"
       inkscape:connector-curvature="0" />
    <path
       style="fill:#4682b4;fill-opacity:1;stroke-width:0.06650179"
       d="m 5.7184205,292.19328 c -1.6018552,-0.5467 -2.6268184,-1.97497 -2.6268184,-3.66045 0,-0.64814 0.1246046,-1.18687 0.4168169,-1.80213 0.1882359,-0.39634 0.5115023,-0.74339 3.4035557,-3.65398 1.7730708,-1.78443 3.2882773,-3.25612 3.4038413,-3.30607 0.330788,-0.14299 0.589624,-0.0249 1.136973,0.51882 l 0.484767,0.48153 0.603445,-0.60345 0.603446,-0.60345 -0.296476,-0.45952 c -1.869095,-2.89701 -2.285,-6.66199 -1.097597,-9.93602 1.190594,-3.28285 3.812803,-5.84592 7.102149,-6.94199 1.374055,-0.45787 1.912294,-0.53745 3.624346,-0.53587 1.335288,9.3e-4 1.617012,0.0205 2.218272,0.15125 0.949176,0.20649 1.977582,0.5597 2.781159,0.95521 l 0.676802,0.33313 0.520228,-0.19986 c 1.42608,-0.5479 2.520597,-0.58859 3.903426,-0.14514 1.470644,0.47162 2.741406,1.61779 3.529101,3.18311 0.322707,0.64128 0.732785,1.88259 0.870472,2.63489 0.14589,0.7971 0.2031,2.8699 0.103832,3.76184 -0.255905,2.29938 -0.866558,4.17482 -2.095807,6.43671 -0.317667,0.58452 -0.788187,1.55148 -1.045597,2.14878 -0.503604,1.16858 -0.708685,1.45178 -1.051315,1.45178 -0.106903,0 -0.788228,-0.20513 -1.514053,-0.45585 l -1.319681,-0.45585 -0.297074,0.25844 c -0.163396,0.14214 -0.533461,0.42113 -0.822367,0.61999 l -0.525287,0.36156 0.192778,0.0749 c 0.106028,0.0412 0.806261,0.28452 1.556064,0.54083 0.749809,0.25633 1.461869,0.51195 1.582353,0.56805 0.232756,0.10838 0.412702,0.3805 0.412702,0.62409 0,0.44101 -1.302498,3.25583 -1.975443,4.26911 -1.068358,1.60867 -2.81381,2.487 -4.475333,2.25203 -1.935556,-0.27372 -3.460999,-1.46068 -4.009304,-3.11968 -0.262984,-0.79572 -0.336674,-1.39421 -0.284679,-2.31219 0.02487,-0.4389 0.05106,-0.90258 0.05821,-1.03038 l 0.01301,-0.23236 -0.43226,-0.0469 c -1.48464,-0.16147 -3.533486,-0.90953 -4.746412,-1.73299 l -0.390543,-0.26514 -0.605924,0.60593 -0.605925,0.60592 0.477546,0.48274 c 0.543994,0.54993 0.655098,0.7662 0.552828,1.07607 -0.104017,0.31518 -6.3681825,6.53733 -6.8513964,6.80545 -0.946643,0.52526 -2.1570831,0.63917 -3.1588342,0.2973 z m 2.1488425,-1.36054 c 0.4512811,-0.16641 0.8400521,-0.49823 2.272956,-1.94004 l 1.163211,-1.17043 -0.647377,-0.64738 -0.647378,-0.64738 -0.6155853,0.61086 c -0.6441564,0.63918 -0.83812,0.75961 -1.1327152,0.7033 -0.3073096,-0.0587 -0.513649,-0.32759 -0.513649,-0.66927 0,-0.28932 0.021961,-0.32184 0.6460744,-0.95709 l 0.6460748,-0.6576 -0.6487771,-0.64649 -0.6487749,-0.64651 -1.4147559,1.42979 c -1.0963093,1.10795 -1.4560645,1.51454 -1.5982825,1.80631 -0.4732566,0.97097 -0.2871678,2.12627 0.463374,2.87681 0.7072853,0.70729 1.7027899,0.91383 2.6756047,0.55512 z m -1.8314897,-1.41625 c -0.2136159,-0.21361 -0.2312445,-0.25972 -0.1969683,-0.51529 0.049513,-0.36913 0.2868211,-0.58013 0.6524673,-0.58013 0.3395163,0 0.4957453,0.0851 0.6288822,0.34256 0.1459674,0.28227 0.075795,0.60297 -0.1788151,0.81722 -0.3012582,0.25348 -0.6096376,0.23156 -0.9055661,-0.0644 z m 20.8939537,0.1993 c 0.987849,-0.25731 1.760241,-0.94451 2.485231,-2.21113 0.382747,-0.66871 1.177195,-2.39553 1.125749,-2.44698 -0.0127,-0.0127 -0.890824,-0.3214 -1.95141,-0.68602 l -1.928337,-0.66296 -0.536084,0.1897 c -0.643915,0.22787 -1.612232,0.4397 -2.517475,0.55074 l -0.66502,0.0816 -0.07595,0.43226 c -0.1129,0.64257 -0.106669,1.71673 0.01295,2.23251 0.231427,0.99792 0.793352,1.71521 1.709122,2.18175 0.846289,0.43113 1.578978,0.53709 2.34122,0.33855 z m -13.714272,-3.8041 0.915083,-0.91333 -0.613649,-0.61621 c -0.337507,-0.33891 -0.64458,-0.61621 -0.682388,-0.61621 -0.0378,0 -0.471817,0.40391 -0.964471,0.89758 l -0.895731,0.89758 0.629334,0.63196 c 0.346135,0.34758 0.644501,0.63197 0.663039,0.63197 0.01855,0 0.445491,-0.41101 0.948783,-0.91334 z m -2.261059,-2.26106 0.915083,-0.91332 -0.613649,-0.61622 c -0.337509,-0.33891 -0.644584,-0.6162 -0.682389,-0.6162 -0.03781,0 -0.471819,0.40392 -0.9644708,0.89757 l -0.8957305,0.89758 0.6293346,0.63197 c 0.3461327,0.34758 0.6445006,0.63196 0.6630387,0.63196 0.01854,0 0.445488,-0.41101 0.948783,-0.91334 z m 12.994678,-0.65234 c 3.346693,-0.49694 6.266786,-2.72528 7.650893,-5.83846 0.588222,-1.32305 0.833143,-2.49943 0.839909,-4.03417 0.0048,-1.11399 -0.08645,-1.78098 -0.387096,-2.82633 -1.001069,-3.48062 -3.992955,-6.23946 -7.567145,-6.97774 -1.06692,-0.22038 -2.694572,-0.25146 -3.704562,-0.0708 -2.825772,0.50558 -5.36579,2.22739 -6.838392,4.63559 -1.067373,1.74552 -1.530669,3.5216 -1.455128,5.57831 0.07118,1.93816 0.577635,3.55191 1.598723,5.09418 1.607854,2.42856 3.941601,3.94708 6.827801,4.44275 0.70297,0.12072 2.210608,0.11906 3.034997,-0.004 z m -3.068246,-1.96112 c -3.192577,-0.67119 -5.57304,-3.01186 -6.321426,-6.21572 -0.1481,-0.63402 -0.201091,-2.13503 -0.09982,-2.82759 0.418522,-2.86229 2.346696,-5.31789 5.011539,-6.38236 4.218634,-1.68514 8.965962,0.44135 10.584385,4.7411 0.594083,1.57834 0.629423,3.58425 0.0926,5.25647 -0.3687,1.14851 -1.201,2.47846 -2.079466,3.32281 -0.478985,0.46039 -1.406655,1.12506 -1.96537,1.40818 -0.506682,0.25676 -1.648051,0.62924 -2.249508,0.73412 -0.797002,0.139 -2.220094,0.12128 -2.972931,-0.0369 z m 3.477266,-1.50366 c 0.616157,-0.17615 1.318525,-0.51008 1.893539,-0.90024 0.398136,-0.27015 1.246123,-1.03018 1.246123,-1.11687 0,-0.0273 -0.131612,-0.11946 -0.292469,-0.20479 l -0.29246,-0.15515 -0.921192,0.096 c -0.506655,0.0528 -1.265341,0.0957 -1.685966,0.0953 -0.700225,-6.9e-4 -0.793456,-0.0159 -1.104627,-0.17931 -0.186921,-0.0982 -0.508624,-0.33276 -0.714895,-0.52128 l -0.375037,-0.34276 -9.26e-4,1.38659 c -4.7e-4,0.76262 -0.01715,1.44705 -0.03703,1.52097 -0.03182,0.1184 0.03748,0.15911 0.582798,0.34224 0.695233,0.23347 0.818344,0.23196 1.702114,-0.0206 z m -3.642836,-2.89987 c 6.91e-4,-3.07287 0.0484,-4.0079 0.272166,-5.33678 0.241582,-1.43468 0.716111,-3.22765 1.131286,-4.27447 0.105548,-0.26613 0.191904,-0.51517 0.191904,-0.55342 0,-0.1259 -1.192977,0.0512 -1.928551,0.28617 -0.646038,0.20643 -1.379362,0.59448 -1.982973,1.04932 -2.437974,1.83706 -3.296273,5.17071 -2.062628,8.01127 0.623188,1.43494 1.987306,2.79804 3.413834,3.41128 0.468039,0.2012 0.821811,0.33433 0.914399,0.34407 0.02743,0.003 0.05018,-1.31896 0.05056,-2.93744 z m 7.894723,-0.86303 c 0.427221,-0.99179 0.639806,-2.31737 0.522366,-3.25732 -0.06524,-0.52218 -0.13857,-0.54551 -1.522606,-0.48446 -1.382022,0.061 -1.741158,0.0161 -1.988262,-0.24844 -0.260202,-0.27853 -0.257811,-0.65399 0.0056,-0.91764 0.182885,-0.18287 0.217045,-0.19098 0.793012,-0.18825 0.968781,0.004 2.207958,-0.0859 2.207958,-0.16119 0,-0.0861 -0.422299,-0.85007 -0.68809,-1.24475 -0.291999,-0.4336 -1.007435,-1.15961 -1.506468,-1.52872 -0.693295,-0.51282 -1.459137,-0.86846 -2.500729,-1.16131 -0.125001,-0.0351 -0.168702,0.0334 -0.410014,0.6437 -0.780474,1.9737 -1.289187,4.27415 -1.38635,6.26919 l -0.04209,0.86452 0.789931,0.77084 c 0.524491,0.5118 0.87224,0.79799 1.034874,0.85166 0.202315,0.0668 0.462675,0.0559 1.496038,-0.0622 0.721559,-0.0824 1.398542,-0.12607 1.599446,-0.10304 0.365274,0.0419 1.030347,0.30149 1.112384,0.43424 0.108188,0.17505 0.271377,0.0138 0.482767,-0.47691 z m -4.55468,-4.20479 c -0.39341,-0.33102 -0.328532,-0.90291 0.129286,-1.13964 0.170396,-0.0881 0.25449,-0.0946 0.453562,-0.035 0.318472,0.0954 0.468622,0.26899 0.511917,0.59178 0.0297,0.22141 0.0059,0.29457 -0.155263,0.47478 -0.273889,0.30651 -0.651963,0.35 -0.939502,0.10803 z m -9.640263,9.59128 -0.380418,-0.38443 -0.550147,0.54729 -0.550149,0.54729 0.380418,0.38442 0.380417,0.38444 0.550147,-0.54729 0.55015,-0.5473 z m 18.680578,-1.57319 c 0.249589,-0.52617 0.4538,-0.96911 0.4538,-0.9843 0,-0.0999 -0.483293,-0.21034 -0.73351,-0.16762 -0.260773,0.0445 -0.304093,0.0831 -0.556043,0.49594 -0.150279,0.24622 -0.441415,0.67988 -0.646965,0.96367 -0.205557,0.28381 -0.379869,0.54517 -0.387366,0.58079 -0.0075,0.0356 0.265426,0.15881 0.606488,0.27373 l 0.620117,0.20893 0.09484,-0.20722 c 0.05219,-0.11397 0.299053,-0.63773 0.548636,-1.16392 z m 1.309022,-2.58453 c 0.232143,-0.46205 0.711446,-1.75339 0.773247,-2.0833 0.04032,-0.21506 0.02147,-0.25814 -0.195754,-0.44889 -0.199986,-0.17559 -0.294987,-0.211 -0.566178,-0.211 -0.495278,0 -0.667035,0.0875 -0.667035,0.33948 0,0.26272 -0.296872,1.59767 -0.462083,2.07787 l -0.123825,0.35991 0.257231,0.0346 c 0.206288,0.0277 0.44495,0.12144 0.77661,0.30514 0.0087,0.005 0.102122,-0.16339 0.207787,-0.3737 z m 1.316519,-5.60765 0.04045,-1.30168 -0.723721,0.0849 c -0.398046,0.0467 -0.906502,0.0862 -1.129906,0.088 l -0.406184,0.004 0.122319,0.58189 c 0.06731,0.32003 0.139385,0.82129 0.160241,1.1139 0.02086,0.2926 0.05129,0.6218 0.06765,0.73151 l 0.02968,0.19951 0.548747,9.3e-4 c 0.410141,6.9e-4 0.624335,0.0359 0.848007,0.13801 l 0.299255,0.13668 0.0515,-0.23776 c 0.0283,-0.13077 0.06969,-0.82351 0.09195,-1.53942 z m -0.853041,-2.59675 c 0.353704,-0.041 0.652261,-0.0826 0.663452,-0.0924 0.04301,-0.0376 -0.20281,-0.89067 -0.422589,-1.46628 -0.37574,-0.98408 -1.129035,-1.98775 -1.879308,-2.50394 -0.375181,-0.25815 -1.017824,-0.54404 -1.4758,-0.65655 -0.473254,-0.11626 -1.475966,-0.11751 -1.875884,-0.002 l -0.313088,0.0903 0.850485,0.84003 c 0.845447,0.83506 1.402664,1.54235 1.922277,2.43998 0.1672,0.28884 0.465397,0.65337 0.775193,0.94765 0.575147,0.54634 0.558309,0.54246 1.755262,0.40368 z"
       id="path1431"
       inkscape:connector-curvature="0" />
    <path
       style="fill:#4682b4;fill-opacity:1;stroke-width:0.07915007"
       d="m -38.94464,188.21216 c -0.01838,-0.0544 -0.320008,-1.15437 -0.67029,-2.44438 l -0.636878,-2.34545 v -2.89823 -2.89826 h 2.611952 2.611953 v 0.29983 0.29983 l -1.235849,0.17307 c -1.412542,0.1978 -1.650865,0.29891 -1.913937,0.81209 -0.175761,0.34286 -0.180901,0.41138 -0.1583,2.10988 0.02595,1.95074 0.03464,1.98429 0.616178,2.38008 0.424817,0.28913 0.849812,0.2403 1.821257,-0.20925 l 0.831076,-0.3846 0.02391,0.21584 c 0.0208,0.18766 0.129251,0.26805 0.831075,0.61605 1.385878,0.68721 3.564786,1.4182 5.352204,1.79558 4.463266,0.94237 7.788353,0.31335 9.865376,-1.86628 1.250617,-1.3124 1.946622,-2.85303 2.364078,-5.23295 l 0.05203,-0.2968 h 0.827495 c 0.969119,0 0.900209,-0.12452 0.671508,1.21324 -0.289433,1.69297 -0.945643,3.35552 -1.793264,4.54338 -1.095683,1.53545 -2.871771,2.76318 -4.818092,3.33048 -1.358333,0.39595 -1.811855,0.45061 -3.680478,0.44367 -1.563932,-0.006 -1.925429,-0.0324 -2.967476,-0.21843 -2.11558,-0.37762 -4.365922,-1.03471 -6.55032,-1.91266 -0.128591,-0.0516 -0.138513,0.0385 -0.138513,1.25877 v 1.31445 h -1.941657 c -1.482741,0 -1.949559,-0.0234 -1.975076,-0.099 z m 1.493804,-4.72762 c -0.09193,-0.0371 -0.24331,-0.16437 -0.336388,-0.28268 -0.161437,-0.20524 -0.169232,-0.29682 -0.169232,-1.98814 0,-1.93397 0.02534,-2.05732 0.458971,-2.23454 0.183813,-0.0751 16.945898,-2.69889 17.241982,-2.69889 0.0835,0 0.107817,0.17167 0.107817,0.7618 v 0.76183 l -1.041156,1.46163 c -0.572635,0.80393 -1.115803,1.49219 -1.207038,1.52949 -0.09124,0.0374 -2.96186,0.48238 -6.379163,0.98904 l -6.21328,0.92119 -0.937863,0.42842 c -0.923645,0.42192 -1.194483,0.48425 -1.524646,0.35085 z m 18.288926,-5.81553 c -0.122466,-0.12245 -0.194283,-0.28469 -0.194283,-0.43892 0,-0.1542 0.07182,-0.31645 0.194283,-0.43893 l 0.194276,-0.19427 h 2.619479 c 2.885227,0 3.026354,0.0206 3.122776,0.45978 0.06192,0.28193 -0.05923,0.6127 -0.264715,0.72267 -0.101654,0.0545 -1.093371,0.0839 -2.817215,0.0839 h -2.660325 z m 0.280619,-2.96812 v -1.34197 l 0.257239,-0.0427 c 0.357019,-0.0594 4.551045,-0.51843 4.736554,-0.51843 0.143611,0 0.150965,0.0791 0.150965,1.62258 v 1.62256 h -2.572377 -2.572381 z m -1.9222,-1.75224 c -0.208324,-0.0327 -0.501816,-0.13208 -0.652204,-0.22082 -0.355191,-0.20956 -2.253749,-1.67694 -2.253749,-1.74189 0,-0.0651 13.7651305,-1.78335 13.8231105,-1.72538 0.06678,0.0667 -1.6674745,2.28634 -1.9492035,2.49463 -0.134611,0.0994 -0.386966,0.23113 -0.560777,0.29245 -0.173804,0.0612 -1.944449,0.29037 -3.934761,0.50897 -1.990305,0.2186 -3.725592,0.40962 -3.85619,0.42449 -0.130599,0.0148 -0.407903,2.2e-4 -0.616226,-0.0325 z m -16.638264,-1.9949 c -0.1924,-0.109 -0.390867,-0.31421 -0.506466,-0.52376 -0.185553,-0.33637 -0.195202,-0.4485 -0.404447,-4.70046 -0.117895,-2.39573 -0.188199,-4.47185 -0.156224,-4.61362 0.03198,-0.14177 0.139356,-0.37183 0.238629,-0.51125 0.333871,-0.46887 0.609775,-0.53035 3.170363,-0.70639 1.280276,-0.0881 2.436374,-0.1601 2.569109,-0.16017 0.239097,-1.7e-4 0.243726,0.008 0.499058,0.8793 0.141749,0.48371 0.243947,0.89325 0.227111,0.91009 -0.01684,0.0168 -0.775677,0.067 -1.68631,0.11152 -2.055734,0.10033 -2.110879,0.1096 -2.452933,0.40995 -0.548508,0.4816 -0.543241,0.44338 -0.433831,3.14868 0.05373,1.32866 0.131036,2.54771 0.171779,2.70896 0.08734,0.34572 0.394452,0.73443 0.708611,0.89688 0.285884,0.14785 0.705562,0.14641 3.081355,-0.0107 2.218723,-0.14658 2.4667,-0.21149 2.813982,-0.73626 0.251422,-0.37993 0.256509,-0.45655 0.164698,-2.48136 -0.037,-0.81624 -0.04488,-1.48405 -0.01749,-1.48405 0.137712,0 1.867141,1.38278 1.86822,1.49374 7.19e-4,0.0709 0.03508,0.53843 0.07641,1.03904 0.04134,0.50064 0.08094,1.39793 0.08802,1.99401 0.01519,1.28041 -0.07615,1.54821 -0.649643,1.90448 l -0.350915,0.218 -3.757722,0.197 c -4.712762,0.24707 -4.853086,0.2475 -5.261348,0.0164 z m 10.120879,-0.40562 c 0.405189,-0.53124 0.445429,-0.72777 0.445429,-2.17545 v -1.34324 l 0.336388,-0.0447 c 0.185014,-0.0247 5.10914,-0.48886 10.942497,-1.0315 5.8333615,-0.54263 10.7396695,-1.00587 10.9029155,-1.02944 l 0.296817,-0.0428 v 1.25951 1.25948 l -0.467858,0.40533 -0.46786,0.40531 -10.8308105,1.26333 c -5.956946,0.69484 -10.95294,1.28457 -11.102207,1.3105 l -0.271393,0.0473 z m -11.759278,-3.27116 c -0.283305,-0.29486 -0.286279,-0.3052 -0.453609,-1.57824 -0.155045,-1.17959 -0.218589,-1.42703 -0.799415,-3.11294 -0.347039,-1.0073 -0.63098,-1.93902 -0.63098,-2.07049 0,-0.13143 0.05976,-0.36491 0.132811,-0.51884 0.245003,-0.51631 0.315251,-0.52822 4.972368,-0.84296 10.107115,-0.68303 26.7823455,-1.71377 27.0975245,-1.67496 0.470163,0.0578 1.071362,0.40059 1.312011,0.74783 0.109499,0.15802 0.348058,0.69635 0.530107,1.19626 0.322022,0.88428 0.36071,0.94609 1.42675,2.27899 l 1.095757,1.37004 v 0.70765 c 0,0.3892 -0.01969,0.70763 -0.04373,0.70763 -0.04253,0 -1.843502,0.17212 -15.7382505,1.50414 -3.652102,0.35011 -6.656,0.62076 -6.675335,0.60142 -0.01933,-0.0194 -0.052,-0.26057 -0.0726,-0.53608 -0.02058,-0.27553 -0.05321,-0.57887 -0.07248,-0.67408 -0.02328,-0.1151 -0.695429,-0.67052 -2.005988,-1.65761 l -1.970952,-1.48449 -0.403286,-1.43703 c -0.221807,-0.79037 -0.403286,-1.48225 -0.403286,-1.53755 0,-0.0771 -0.152173,-0.0891 -0.652988,-0.0515 -0.359144,0.0269 -1.715394,0.12216 -3.013889,0.21156 -1.298495,0.0893 -2.455907,0.19864 -2.572026,0.2428 -0.708233,0.26926 -1.060845,0.86373 -1.051502,1.77268 0.0057,0.55898 0.282186,4.98987 0.359153,5.75663 0.02075,0.20677 0.01097,0.37596 -0.02162,0.37596 -0.03264,0 -0.187688,-0.13359 -0.344532,-0.29683 z"
       id="path1433"
       inkscape:connector-curvature="0" />
    <path
       style="fill:#000000;stroke-width:0.26458332"
       d="m 262.61787,135.87017 c 0,-0.15666 0.20836,-0.21227 0.46302,-0.12358 0.41089,0.14309 0.40791,0.11847 -0.0265,-0.21867 -0.26924,-0.20896 -0.41104,-0.50691 -0.31512,-0.66211 0.22569,-0.36518 0.93692,-0.36669 0.93692,-0.002 0,0.15411 -0.13746,0.19525 -0.30546,0.0914 -0.18926,-0.11696 -0.23364,-0.0726 -0.11668,0.11668 0.34522,0.55857 0.68673,0.31574 0.68673,-0.48829 0,-0.43656 0.11906,-0.79375 0.26458,-0.79375 0.14552,0 0.26458,0.1786 0.26458,0.39688 0,0.36816 0.45877,0.52025 1.25677,0.41662 0.1819,-0.0236 0.33073,0.2004 0.33073,0.49782 0,0.29742 0.11907,0.54077 0.26459,0.54077 0.14552,0 0.26458,-0.23813 0.26458,-0.52917 0,-0.29104 0.16867,-0.52917 0.37483,-0.52917 0.20615,0 0.43521,-0.14883 0.50902,-0.33073 0.10105,-0.24903 0.20453,-0.23269 0.41892,0.0661 0.25309,0.35278 0.31413,0.35278 0.54931,0 0.21989,-0.32983 0.3038,-0.33606 0.49674,-0.0369 0.12768,0.19801 0.18386,0.61473 0.12483,0.92604 l -0.10733,0.56603 0.25469,-0.57144 c 0.22439,-0.50345 0.46137,-0.57016 1.99184,-0.56068 0.95543,0.006 1.73715,0.12126 1.73715,0.25632 0,0.13506 -0.14883,0.17018 -0.33073,0.078 -0.1819,-0.0921 -0.11045,0.012 0.15879,0.23137 0.26923,0.21939 0.41103,0.52587 0.31511,0.68108 -0.23039,0.37278 -1.2015,0.36413 -1.2015,-0.0107 0,-0.16948 0.19377,-0.21853 0.45989,-0.11641 0.38461,0.14759 0.37378,0.0928 -0.0661,-0.33474 -0.60398,-0.58695 -0.92291,-0.50731 -0.92291,0.23049 0,0.28245 -0.11906,0.51355 -0.26458,0.51355 -0.14553,0 -0.26459,-0.17859 -0.26459,-0.39687 0,-0.22428 -0.23692,-0.39688 -0.54478,-0.39688 -0.30164,0 -0.47061,0.12001 -0.37859,0.2689 0.0914,0.1479 0.27702,0.2004 0.41249,0.11668 0.13546,-0.0837 0.2463,-0.0336 0.2463,0.11139 0,0.14499 -0.47625,0.25704 -1.05833,0.24901 -0.93445,-0.0129 -1.05834,-0.0884 -1.05834,-0.64488 0,-0.34664 -0.13197,-0.63026 -0.29326,-0.63026 -0.1807,0 -0.22955,0.25389 -0.12725,0.66145 0.12001,0.47818 0.0595,0.66146 -0.21833,0.66146 -0.21617,0 -0.43257,-0.31836 -0.49457,-0.7276 l -0.11022,-0.72761 -0.0396,0.7257 c -0.0367,0.6712 -0.11912,0.72259 -1.09798,0.68423 -0.92859,-0.0364 -1.05833,-0.11915 -1.05833,-0.67516 0,-0.3551 -0.11633,-0.56181 -0.26458,-0.47018 -0.14552,0.0899 -0.26459,0.37532 -0.26459,0.6342 0,0.3549 -0.22779,0.47925 -0.92604,0.5055 -0.50932,0.0191 -0.92604,-0.0934 -0.92604,-0.25003 z m 10.79238,-0.48664 c -0.11937,-0.81332 0.15952,-1.57787 0.46437,-1.27302 0.0952,0.0952 0.19299,0.59773 0.21741,1.11681 0.0542,1.15344 -0.51623,1.28414 -0.68178,0.15621 z m 0.93047,0.35293 c -0.25966,-0.67665 0.1528,-1.18927 0.90928,-1.13009 1.35217,0.10578 1.91995,-0.0183 1.91995,-0.41962 0,-0.21828 0.11906,-0.39688 0.26459,-0.39688 0.14552,0 0.26458,0.22698 0.26458,0.5044 0,0.38921 0.13594,0.47162 0.59531,0.36088 0.48799,-0.11764 0.53569,-0.0798 0.26458,0.20998 -0.47582,0.50858 -0.41103,0.7616 0.26459,1.03316 0.56162,0.22575 0.56462,0.24024 0.0529,0.25606 -0.29831,0.009 -0.68527,-0.1261 -0.85989,-0.30073 -0.22951,-0.22951 -0.3175,-0.23365 -0.3175,-0.0149 0,0.45546 -3.18156,0.35864 -3.3584,-0.1022 z m 0.97715,-0.412 c 0,-0.42742 -0.0782,-0.50385 -0.29445,-0.28764 -0.16194,0.16194 -0.21445,0.42388 -0.11667,0.58208 0.27368,0.44283 0.41112,0.34439 0.41112,-0.29444 z m 1.71979,-0.21167 c -0.12801,-0.20713 -0.28021,-0.2225 -0.4566,-0.0461 -0.14552,0.14552 -0.17817,0.40439 -0.0726,0.57528 0.12801,0.20712 0.28022,0.22249 0.45661,0.0461 0.14552,-0.14552 0.17817,-0.40439 0.0726,-0.57527 z m 2.60202,0.64269 c -0.3615,-0.94205 0.0695,-1.12066 2.60516,-1.07955 l 2.46574,0.04 0.0837,0.72761 c 0.046,0.40018 -0.0433,0.7276 -0.19844,0.7276 -0.15519,0 -0.28398,-0.32742 -0.28621,-0.7276 -0.003,-0.52954 -0.0683,-0.6261 -0.2401,-0.35472 -0.12983,0.20508 -0.1748,0.5325 -0.0999,0.7276 0.0749,0.1951 0.004,0.35472 -0.15677,0.35472 -0.16109,0 -0.29289,-0.23812 -0.29289,-0.52916 0,-0.29105 -0.11906,-0.52917 -0.26458,-0.52917 -0.14552,0 -0.26458,0.21907 -0.26458,0.48682 0,0.41656 -0.2314,0.49023 -1.60301,0.5104 -1.16195,0.0171 -1.64293,-0.0805 -1.7481,-0.35453 z m 1.10215,-0.64269 c -0.12801,-0.20713 -0.28022,-0.2225 -0.4566,-0.0461 -0.14553,0.14552 -0.17818,0.40439 -0.0726,0.57528 0.12801,0.20712 0.28021,0.22249 0.4566,0.0461 0.14552,-0.14552 0.17818,-0.40439 0.0726,-0.57527 z m 1.19062,0.21167 c 0,-0.42742 -0.0782,-0.50385 -0.29444,-0.28764 -0.16195,0.16194 -0.21445,0.42388 -0.11668,0.58208 0.27368,0.44283 0.41112,0.34439 0.41112,-0.29444 z m 5.75469,0.67143 c 0.1819,-0.0734 0.33073,-0.42821 0.33073,-0.78847 0,-0.36931 -0.11541,-0.5837 -0.26458,-0.49151 -0.14553,0.0899 -0.26459,0.0445 -0.26459,-0.10106 0,-0.28625 0.50184,-0.67592 0.66298,-0.51478 0.0542,0.0542 0.16013,0.43795 0.23534,0.8527 0.0752,0.41476 0.20078,0.81815 0.27905,0.89642 0.22452,0.22452 1.20388,-0.7738 1.20388,-1.2272 0,-0.31794 -0.0706,-0.33823 -0.3175,-0.0913 -0.42434,0.42434 -0.7572,0.40343 -0.58821,-0.037 0.16403,-0.42745 4.60988,-0.56672 4.60988,-0.14441 0,0.46334 -0.7993,1.82178 -1.07192,1.82178 -0.14552,0 -0.0829,-0.35127 0.13908,-0.78061 0.51801,-1.00171 0.50984,-1.07147 -0.1255,-1.07147 -0.32437,0 -0.53242,0.17919 -0.53758,0.46302 -0.0107,0.59106 -0.61128,1.38906 -1.04534,1.38906 -0.25432,0 -0.26152,-0.0873 -0.0302,-0.36597 0.41401,-0.49886 -0.41878,-0.82748 -0.95958,-0.37866 -0.33727,0.27991 -0.32401,0.34841 0.0997,0.51514 0.28631,0.11267 -0.16871,0.19135 -1.09883,0.19001 -0.87312,-0.001 -1.43867,-0.0623 -1.25677,-0.13575 z m 3.77031,-1.29559 c 0,-0.22687 -0.121,-0.33771 -0.2689,-0.2463 -0.14789,0.0914 -0.2004,0.27702 -0.11667,0.41249 0.22681,0.36699 0.38557,0.29856 0.38557,-0.16619 z m 2.21156,1.0719 c -0.0842,-0.2194 0.0414,-0.69565 0.27899,-1.05833 0.45694,-0.69738 1.02912,-0.91139 0.79323,-0.29668 -0.22824,0.59479 0.64377,0.73779 0.95483,0.15658 0.15286,-0.28562 0.37929,-0.51931 0.50317,-0.51931 0.31302,0 0.50349,1.50104 0.24263,1.91207 -0.16786,0.2645 -0.21467,0.26582 -0.21786,0.006 -0.005,-0.39308 -0.95994,-0.44597 -1.19467,-0.0661 -0.25115,0.40636 -1.18835,0.31381 -1.36032,-0.13433 z m 0.96344,-0.27815 c 0,-0.22687 -0.121,-0.33771 -0.2689,-0.2463 -0.14789,0.0914 -0.2004,0.27702 -0.11667,0.41249 0.22681,0.36699 0.38557,0.29856 0.38557,-0.16619 z m 1.5875,-0.38126 c 0,-0.14552 -0.0525,-0.26458 -0.11667,-0.26458 -0.0642,0 -0.19027,0.11906 -0.2802,0.26458 -0.0899,0.14552 -0.0374,0.26458 0.11667,0.26458 0.15411,0 0.2802,-0.11906 0.2802,-0.26458 z m 0.66935,0.82995 c 0.0927,-0.0927 0.27764,-0.16849 0.41103,-0.16849 0.1334,0 0.23063,-0.11907 0.21608,-0.26459 -0.0145,-0.14552 -0.13361,-0.23481 -0.26458,-0.19843 -0.13097,0.0364 -0.23813,-0.23151 -0.23813,-0.59532 0,-0.55264 0.1197,-0.65641 0.72761,-0.63076 0.44764,0.0189 0.54945,0.0772 0.26458,0.15169 -0.58251,0.15222 -0.59666,0.50347 -0.0291,0.72128 0.27273,0.10465 0.5732,-0.0323 0.80875,-0.36857 0.43614,-0.62268 0.92795,-0.71909 0.70505,-0.13822 -0.0838,0.21828 -0.0332,0.39688 0.11229,0.39688 0.14552,0 0.33311,-0.1786 0.41688,-0.39688 0.22884,-0.59635 1.2516,-0.49315 1.41798,0.14308 l 0.1412,0.53995 0.3782,-0.53995 c 0.43881,-0.6265 0.93219,-0.72614 0.70845,-0.14308 -0.0838,0.21828 -0.0122,0.39688 0.159,0.39688 0.17148,0 0.27332,0.26736 0.22674,0.59531 -0.0819,0.57656 -0.18292,0.59645 -3.20756,0.63152 -1.71765,0.0199 -3.04718,-0.0396 -2.95451,-0.1323 z m 2.50565,-0.44869 c 0,-0.22687 -0.121,-0.33771 -0.2689,-0.2463 -0.14789,0.0914 -0.2004,0.27702 -0.11667,0.41249 0.22681,0.36699 0.38557,0.29856 0.38557,-0.16619 z m 1.61844,-0.84428 c -0.24756,-0.44098 -0.26843,-0.44098 -0.43833,0 -0.0981,0.25466 -0.0981,0.67138 0,0.92604 0.1699,0.44097 0.19077,0.44097 0.43833,0 0.17019,-0.30316 0.17019,-0.62288 0,-0.92604 z m 1.55656,0.84428 c 0,-0.22687 -0.121,-0.33771 -0.2689,-0.2463 -0.14789,0.0914 -0.2004,0.27702 -0.11667,0.41249 0.22681,0.36699 0.38557,0.29856 0.38557,-0.16619 z m -16.93333,-0.38126 c 0,-0.14552 0.17859,-0.26458 0.39687,-0.26458 0.21828,0 0.39688,0.11906 0.39688,0.26458 0,0.14552 -0.1786,0.26458 -0.39688,0.26458 -0.21828,0 -0.39687,-0.11906 -0.39687,-0.26458 z m 19.00411,-16.76518 c -2.54899,-3.22711 -3.0657,-3.75425 -3.44531,-3.5148 -0.33952,0.21416 -0.56887,0.17102 -0.95667,-0.17994 -0.48694,-0.44067 -0.60476,-0.42977 -2.59518,0.24012 -1.8448,0.62088 -2.37473,0.68685 -4.59862,0.57248 -2.6299,-0.13525 -4.59699,-0.72599 -6.19609,-1.86075 l -0.81537,-0.57861 0.59532,0.76027 c 0.64442,0.82299 0.74201,1.59152 0.33727,2.65606 -0.48898,1.28612 -1.89142,0.67752 -1.78305,-0.77377 0.0625,-0.83647 0.0633,-0.83589 -3.11829,-2.28323 -2.34401,-1.06633 -5.67529,-4.30759 -6.97117,-6.78278 -2.50563,-4.78588 -3.3374,-10.475368 -1.93121,-13.209798 1.39499,-2.71263 3.95537,-3.69665 6.23167,-2.39499 1.81017,1.0351 2.51855,2.52842 2.53211,5.33789 l 0.006,1.30736 0.93998,-1.56099 c 0.7882,-1.30895 0.91317,-1.71961 0.77397,-2.54349 -0.23662,-1.40057 -1.49987,-3.25584 -2.80496,-4.11951 -0.96196,-0.63659 -1.38237,-0.74047 -2.99071,-0.73893 -1.57363,0.002 -2.09553,0.12565 -3.27992,0.78025 -2.16069,1.19416 -3.78201,3.56591 -4.10066,5.99865 -0.23108,1.76421 0.21622,4.11582 1.52851,8.035978 1.79147,5.35161 1.85727,6.84519 0.36723,8.33523 -0.95322,0.95322 -2.21069,1.08699 -2.47221,0.263 -0.12459,-0.39256 0.0854,-0.76905 0.81015,-1.4526 0.90934,-0.85761 0.966,-0.99985 0.80341,-2.01663 -0.0962,-0.60167 -0.68974,-2.65668 -1.31896,-4.56668 -2.03639,-6.181498 -2.18711,-8.561258 -0.7383,-11.657278 1.02611,-2.19275 2.31364,-3.57814 4.31846,-4.6467 3.12425,-1.66521 6.60041,-1.34349 9.08154,0.84049 1.17622,1.03535 2.52205,3.19487 2.52205,4.04689 0,0.33207 0.16776,0.29813 0.90043,-0.18215 l 0.90043,-0.59024 -0.41105,-1.06584 c -0.22608,-0.5862 -0.51222,-1.17893 -0.63585,-1.31718 -0.33464,-0.37418 -0.27175,-1.36581 0.10593,-1.67015 0.6392,-0.51508 1.42682,0.12022 2.04875,1.65255 0.56263,1.38624 0.65911,1.48499 1.297,1.3276 0.37903,-0.0935 0.79831,-0.27674 0.93172,-0.40713 0.29261,-0.28598 -0.3952,-1.94231 -1.61786,-3.89603 -4.39533,-7.02337 -14.47114,-8.16812 -20.67246,-2.34866 -1.796,1.68541 -3.48841,4.25823 -4.28836,6.51922 -0.72426,2.04706 -0.95135,2.38125 -1.61813,2.38125 -1.14679,0 -0.86958,-1.97956 0.71669,-5.11791 2.36074,-4.67059 6.03347,-7.6774 10.89712,-8.92131 7.62621,-1.95046 15.13136,1.95732 18.18251,9.46727 l 0.6213,1.52924 1.78218,0.18019 c 0.9802,0.0991 2.39047,0.3776 3.13393,0.61889 6.64841,2.15772 10.22427,9.433068 7.95661,16.188308 -0.64052,1.90806 -0.65009,2.02275 -0.20956,2.50953 0.34354,0.37961 0.39186,0.62071 0.18888,0.94249 -0.22481,0.3564 0.0794,0.71102 1.73091,2.01753 1.10202,0.87182 2.80988,2.22518 3.79524,3.00747 l 1.79159,1.42234 -0.46867,0.79751 c -0.53788,0.91529 -3.36359,3.69732 -4.21776,4.15255 -0.53451,0.28488 -0.78085,0.0442 -3.57283,-3.49053 z m -20.31774,-6.98118 c -0.76472,-0.83674 -1.68688,-1.84085 -2.04925,-2.23135 -0.36237,-0.3905 -0.59252,-0.81734 -0.51144,-0.94853 0.1918,-0.31034 -0.38101,-2.17793 -0.66799,-2.17793 -0.1211,0 -0.22019,0.10633 -0.22019,0.23628 0,0.48237 -0.88302,0.5587 -1.36957,0.11838 -1.562,-1.4136 -3.08643,-5.51597 -3.31711,-8.926668 -0.14011,-2.07159 -0.10217,-2.39603 0.3159,-2.70173 0.95294,-0.69681 1.36593,-0.0631 1.5368,2.35805 0.1765,2.50103 1.10423,5.476108 2.26324,7.257858 l 0.74914,1.15166 -0.10783,-2.19431 c -0.0593,-1.20687 -0.2243,-2.5515 -0.36665,-2.98806 -0.14234,-0.436558 -0.36887,-2.030148 -0.5034,-3.541298 -0.26408,-2.96631 -0.63057,-3.85197 -1.77386,-4.28664 -1.5683,-0.59627 -3.21554,0.58471 -3.7897,2.71699 -0.54136,2.01047 0.4412,6.934698 1.99592,10.002798 1.20939,2.3866 3.20947,4.63652 5.28602,5.94631 0.62084,0.3916 3.30567,1.59206 3.81583,1.70617 0.0575,0.0129 -0.52115,-0.66123 -1.28586,-1.49798 z m 11.77523,0.84919 c 2.92958,-0.75721 5.37062,-2.92349 3.92107,-3.47973 -0.3921,-0.15046 -0.38722,-0.20075 0.0506,-0.52086 0.67414,-0.49294 1.54105,-0.46554 1.34608,0.0426 -0.2583,0.6731 0.0255,0.44059 0.60327,-0.49425 0.58317,-0.9436 0.72802,-1.63092 0.28616,-1.35783 -0.15934,0.0985 -0.26459,-0.2524 -0.26459,-0.88212 0,-0.75051 -0.13068,-1.09673 -0.46302,-1.22664 -0.39618,-0.15488 -0.35461,-0.23834 0.28798,-0.57819 0.9237,-0.48851 1.09794,-0.33523 1.04027,0.9152 -0.0394,0.85381 -0.0165,0.894 0.17992,0.31654 0.39874,-1.17209 0.29155,-3.33923 -0.25223,-5.099808 -0.58474,-1.89315 -0.99333,-2.41373 -1.59554,-2.03286 -1.03938,0.65737 -1.91115,-0.16724 -1.79852,-1.70122 0.0782,-1.06537 0.0513,-1.10335 -1.29536,-1.82706 -2.8095,-1.50984 -6.06463,-1.50498 -9.05899,0.0135 l -1.44613,0.73336 0.0742,1.20625 c 0.094,1.52841 -0.37199,2.0135 -1.5423,1.60553 -0.73785,-0.25722 -0.83016,-0.21954 -1.19615,0.48821 -0.53147,1.02775 -0.49968,1.29981 0.13256,1.13447 0.48278,-0.12625 0.52917,-0.008 0.52917,1.347688 0,1.30968 -0.0628,1.48606 -0.52917,1.48606 -0.44517,0 -0.52916,-0.17638 -0.52916,-1.11125 0,-0.79504 -0.0812,-1.03001 -0.28548,-0.82577 -0.29259,0.29259 -0.40913,4.50562 -0.13229,4.78246 0.0842,0.0842 0.15318,-0.16013 0.15318,-0.54307 0,-0.91278 0.86967,-1.41493 1.75326,-1.01234 0.50463,0.22992 0.62799,0.48877 0.62799,1.31774 0,1.20057 -0.50466,1.74252 -1.45369,1.5611 -0.77998,-0.1491 -0.78252,-0.14044 -0.25701,0.8758 0.31809,0.6151 0.50424,0.73401 0.8599,0.54927 0.90642,-0.47083 1.50267,0.051 1.64455,1.43913 0.12387,1.21195 0.20808,1.33609 1.32292,1.95021 2.40688,1.32587 4.64444,1.6108 7.2866,0.92789 z m -7.62684,-1.60835 c -0.10391,-0.10391 -0.18893,-0.7087 -0.18893,-1.34398 0,-0.95043 0.10372,-1.19342 0.58545,-1.37162 1.31701,-0.4872 2.15159,0.56548 1.6306,2.05671 -0.17706,0.50677 -0.45365,0.71138 -1.03971,0.76913 -0.43916,0.0433 -0.8835,-0.006 -0.98741,-0.11024 z m 1.05653,-1.75129 c -0.0633,-0.32912 -0.11747,-0.12215 -0.1204,0.45993 -0.003,0.58209 0.0488,0.85137 0.11506,0.5984 0.0662,-0.25296 0.0686,-0.72921 0.005,-1.05833 z m 2.37051,1.73875 c -0.097,-0.097 -0.17639,-0.56334 -0.17639,-1.03628 0,-0.47294 -0.14882,-0.91305 -0.33072,-0.97802 -0.44961,-0.16057 -0.21005,-0.37574 0.662,-0.59461 l 0.72706,-0.18248 v 1.48389 c 0,1.06019 -0.10073,1.48389 -0.35278,1.48389 -0.19403,0 -0.43215,-0.0794 -0.52917,-0.17639 z m 2.00513,-0.12918 c -0.35856,-0.35856 -0.41446,-1.06979 -0.15903,-2.02345 0.13795,-0.51505 0.31122,-0.59685 1.12087,-0.52916 l 0.95769,0.0801 v 1.32291 c 0,1.27668 -0.0278,1.32565 -0.79506,1.40099 -0.43727,0.0429 -0.94329,-0.0702 -1.12447,-0.25135 z m 0.91603,-1.60957 c -0.0633,-0.32912 -0.11747,-0.12215 -0.12041,0.45993 -0.003,0.58209 0.0488,0.85137 0.11507,0.5984 0.0662,-0.25296 0.0686,-0.72921 0.005,-1.05833 z m 2.24704,1.59764 c -0.17463,-0.17462 -0.3175,-0.77377 -0.3175,-1.33144 0,-0.80944 0.12007,-1.05865 0.59531,-1.23559 1.00683,-0.37485 1.64361,0.0452 1.73687,1.1457 0.0458,0.54011 -0.0581,1.1523 -0.23084,1.36042 -0.38249,0.46088 -1.35081,0.49394 -1.78384,0.0609 z m 0.92756,-1.86531 c -0.0631,-0.32742 -0.11467,-0.0595 -0.11467,0.59531 0,0.65485 0.0516,0.92274 0.11467,0.59531 0.0631,-0.32742 0.0631,-0.8632 0,-1.19062 z m -9.97631,-3.06115 c 0,-0.75372 -0.13047,-1.10072 -0.46302,-1.23146 -0.38678,-0.15205 -0.33232,-0.23821 0.33073,-0.52319 1.04186,-0.4478 1.2393,-0.21636 1.14048,1.33692 -0.0623,0.97967 -0.19389,1.31253 -0.54517,1.37923 -0.37793,0.0718 -0.46302,-0.10494 -0.46302,-0.9615 z m 2.18281,0.8354 c -0.20077,-0.081 -0.33073,-0.63762 -0.33073,-1.41649 0,-1.05067 0.0958,-1.31346 0.52917,-1.45099 0.65989,-0.20944 1.57861,0.0642 1.61431,0.48085 0.082,0.95756 -0.11828,2.19038 -0.38336,2.35937 -0.34085,0.2173 -0.93055,0.22854 -1.42939,0.0273 z m 0.92485,-2.00758 c -0.0915,-0.52275 -0.12942,-0.5388 -0.31152,-0.1317 -0.11406,0.25498 -0.11353,0.79076 10e-4,1.19062 0.19614,0.68375 0.21467,0.69159 0.31152,0.1317 0.0566,-0.32742 0.0561,-0.8632 -10e-4,-1.19062 z m 2.3163,1.96232 c -0.0728,-0.0728 -0.1323,-0.52916 -0.1323,-1.01424 0,-0.48506 -0.11906,-0.88194 -0.26458,-0.88194 -0.492,0 -0.26857,-0.44241 0.37048,-0.73358 0.84132,-0.38333 0.95244,-0.22058 0.95244,1.39504 0,1.03874 -0.0953,1.36701 -0.39688,1.36701 -0.21828,0 -0.4564,-0.0595 -0.52916,-0.13229 z m 2.03729,-0.097 c -0.17463,-0.17463 -0.3175,-0.77249 -0.3175,-1.32859 0,-0.82986 0.12224,-1.06679 0.682,-1.32183 0.48257,-0.21987 0.8114,-0.22972 1.12448,-0.0337 0.5373,0.33644 0.73476,2.09314 0.29486,2.62319 -0.38249,0.46088 -1.35081,0.49394 -1.78384,0.0609 z m 0.92756,-1.86531 c -0.0631,-0.32743 -0.11467,-0.0595 -0.11467,0.59531 0,0.65484 0.0516,0.92273 0.11467,0.59531 0.0631,-0.32742 0.0631,-0.8632 0,-1.19062 z m 2.24744,1.86531 c -0.17463,-0.17463 -0.3175,-0.74613 -0.3175,-1.27 0,-1.09684 0.38147,-1.5875 1.23423,-1.5875 0.6954,0 1.14702,0.70155 1.14702,1.78177 0,0.89761 -0.42355,1.39323 -1.19063,1.39323 -0.30559,0 -0.6985,-0.14288 -0.87312,-0.3175 z m 0.92756,-1.86531 c -0.0631,-0.32743 -0.11467,-0.0595 -0.11467,0.59531 0,0.65484 0.0516,0.92273 0.11467,0.59531 0.0631,-0.32742 0.0631,-0.8632 0,-1.19062 z m -13.04495,-2.41958 c -0.0779,-0.20297 -0.10392,-0.82805 -0.0578,-1.38906 0.0778,-0.946798 0.14824,-1.026168 0.98207,-1.105778 0.54024,-0.0516 0.98683,0.0539 1.12042,0.26458 0.261,0.411648 0.29845,1.584528 0.0696,2.180798 -0.20491,0.53399 -1.91303,0.57395 -2.11429,0.0495 z m 1.1391,-1.54609 c -0.0633,-0.32912 -0.11747,-0.12215 -0.12041,0.45994 -0.003,0.58208 0.0489,0.85136 0.11507,0.59839 0.0662,-0.25296 0.0686,-0.72921 0.005,-1.05833 z m 2.45871,1.00225 c 0,-0.59432 -0.16159,-1.00332 -0.46303,-1.17202 -0.4097,-0.229288 -0.37725,-0.291728 0.28181,-0.542308 0.40966,-0.15576 0.78559,-0.28319 0.83541,-0.28319 0.0498,0 0.13137,0.654998 0.18121,1.455568 0.0775,1.2445 0.0235,1.45551 -0.37238,1.4552 -0.35144,-2.6e-4 -0.46302,-0.22035 -0.46302,-0.91325 z m 1.96492,0.56074 c -0.0815,-0.21227 -0.1104,-0.84495 -0.0643,-1.40596 0.0799,-0.973378 0.12611,-1.020008 1.00982,-1.020008 h 0.92604 v 1.322918 c 0,1.2997 -0.0151,1.32437 -0.86171,1.40596 -0.5704,0.055 -0.91178,-0.0474 -1.00982,-0.30291 z m 1.21007,-1.10305 c 0,-0.50933 -0.11906,-0.926048 -0.26458,-0.926048 -0.14552,0 -0.26458,0.416718 -0.26458,0.926048 0,0.50932 0.11906,0.92604 0.26458,0.92604 0.14552,0 0.26458,-0.41672 0.26458,-0.92604 z m 2.11667,0.41892 c 0,-0.58964 -0.14254,-1.0872 -0.33073,-1.1544 -0.4496,-0.160578 -0.21005,-0.375748 0.662,-0.594618 l 0.72706,-0.18248 v 1.483888 c 0,1.3075 -0.0629,1.48389 -0.52916,1.48389 -0.4391,0 -0.52917,-0.17639 -0.52917,-1.03628 z m 2.13199,0.65787 c -0.17273,-0.20812 -0.2766,-0.8332 -0.23083,-1.38906 0.0814,-0.988828 0.10606,-1.010648 1.14155,-1.010648 1.03549,0 1.06013,0.0218 1.14155,1.010648 0.0961,1.16692 -0.2918,1.76747 -1.14155,1.76747 -0.32817,0 -0.73799,-0.17028 -0.91072,-0.37841 z m 0.96556,-1.53673 c -0.0633,-0.32912 -0.11747,-0.12215 -0.12041,0.45994 -0.003,0.58208 0.0489,0.85136 0.11507,0.59839 0.0662,-0.25296 0.0686,-0.72921 0.005,-1.05833 z m 2.03589,1.54609 c -0.0779,-0.20297 -0.10392,-0.82805 -0.0578,-1.38906 0.0798,-0.971918 0.12713,-1.020008 1.00345,-1.020008 0.76154,0 0.96302,0.12327 1.1718,0.716938 0.38834,1.10425 -0.15395,2.06118 -1.16806,2.06118 -0.44684,0 -0.87101,-0.16489 -0.94935,-0.36905 z m 1.13911,-1.54609 c -0.0633,-0.32912 -0.11747,-0.12215 -0.12041,0.45994 -0.003,0.58208 0.0489,0.85136 0.11507,0.59839 0.0662,-0.25296 0.0686,-0.72921 0.005,-1.05833 z m -12.68869,-2.603968 c -0.31073,-0.18098 -0.46302,-0.59606 -0.46302,-1.26195 0,-1.11754 0.37295,-1.62727 1.19062,-1.62727 0.81839,0 1.19063,0.50995 1.19063,1.63111 0,1.31123 -0.85935,1.87486 -1.91823,1.25811 z m 0.78203,-1.89703 c -0.0631,-0.32742 -0.11466,-0.0595 -0.11466,0.59531 0,0.65484 0.0516,0.92274 0.11466,0.59531 0.0631,-0.32742 0.0631,-0.8632 0,-1.19062 z m 4.77422,1.89703 c -0.6217,-0.3621 -0.65646,-2.49379 -0.0445,-2.72862 0.86565,-0.33218 1.44881,-0.15495 1.7047,0.51808 0.36811,0.96821 0.32,1.60281 -0.15774,2.08055 -0.47833,0.47833 -0.8493,0.51042 -1.50245,0.12999 z m 0.85185,-1.36786 c -0.007,-0.92095 -0.0588,-1.03721 -0.28846,-0.6423 -0.25667,0.44136 -0.1297,1.76677 0.16925,1.76677 0.07,0 0.12363,-0.50601 0.11921,-1.12447 z m 2.28287,1.45902 c -0.087,-0.087 -0.15816,-0.55503 -0.15816,-1.0401 0,-0.48507 -0.11906,-0.88195 -0.26459,-0.88195 -0.50423,0 -0.26141,-0.44567 0.40933,-0.75127 0.37065,-0.16889 0.72784,-0.30706 0.79375,-0.30706 0.0659,0 0.11984,0.64211 0.11984,1.4269 0,0.98007 -0.11618,1.47149 -0.37101,1.56927 -0.20405,0.0783 -0.44217,0.0712 -0.52916,-0.0158 z m -5.44983,-0.97396 c 0,-0.49719 -0.14883,-0.95978 -0.33073,-1.02797 -0.2291,-0.0859 -0.16812,-0.25251 0.19844,-0.54225 0.80271,-0.63451 1.05066,-0.39361 1.13831,1.10595 0.0719,1.22947 0.0249,1.36827 -0.46302,1.36827 -0.44166,0 -0.543,-0.16872 -0.543,-0.904 z m -5.90468,11.702308 c -0.0845,-0.21107 -0.14715,-0.14838 -0.15985,0.15985 -0.0115,0.27891 0.0511,0.43518 0.13897,0.34726 0.0879,-0.0879 0.0973,-0.31612 0.0209,-0.50711 z m -0.78776,-4.24987 c -0.0631,-0.32743 -0.11466,-0.0595 -0.11466,0.59531 0,0.65484 0.0516,0.92273 0.11466,0.59531 0.0631,-0.32742 0.0631,-0.8632 0,-1.19062 z m 15.07691,-8.069798 c -0.0666,-0.25466 -0.121,-0.0463 -0.121,0.46302 0,0.50933 0.0544,0.71769 0.121,0.46303 0.0666,-0.25467 0.0666,-0.67139 0,-0.92605 z m -13.87749,0.33874 c 0.0687,-0.3594 0.023,-0.5905 -0.10145,-0.51355 -0.21922,0.13549 -0.32964,1.167 -0.12491,1.167 0.0558,0 0.15765,-0.29405 0.22636,-0.65345 z M 277.6548,120.5539 c -1.23705,-0.65348 -3.46259,-0.90785 -4.9492,-0.56569 -1.27015,0.29234 -1.76951,0.19846 -1.98918,-0.37399 -0.26323,-0.68596 0.14472,-1.16085 1.25522,-1.4612 2.71245,-0.73363 7.80833,0.51808 7.84009,1.92578 0.005,0.23717 -0.77774,1.01432 -1.00703,0.99939 -0.0987,-0.006 -0.6162,-0.24236 -1.1499,-0.52429 z m 3.79852,-1.86203 c -1.01676,-0.50809 -2.35855,-1.5447 -3.59598,-2.77813 -1.08571,-1.08218 -2.19954,-1.96761 -2.4752,-1.96761 -0.27566,0 -0.78712,0.30435 -1.13657,0.67633 -1.06563,1.13431 -2.88994,2.20069 -4.06674,2.37716 -1.40204,0.21025 -3.09961,-0.23484 -4.05101,-1.06214 -0.60641,-0.52731 -0.68054,-0.71846 -0.43258,-1.11542 0.35036,-0.56089 0.86082,-0.5528 2.4523,0.0389 1.56958,0.58354 2.37562,0.35514 4.338,-1.22923 2.91221,-2.35124 3.32548,-2.29832 6.68146,0.8555 1.79823,1.6899 2.84913,2.46227 3.8667,2.84186 1.61022,0.60066 2.08145,1.12956 1.56299,1.75426 -0.51241,0.61741 -1.32758,0.51589 -3.14337,-0.39146 z m -16.25722,-6.89498 c -0.74199,-0.41524 -0.54212,-1.01915 0.72906,-2.20294 1.45738,-1.35717 1.49628,-1.85278 0.3845,-4.89911 -3.10705,-8.513538 -1.57413,-15.465138 4.32358,-19.606948 2.60292,-1.82796 3.95026,-2.2303 7.46868,-2.2303 2.75105,0 3.01456,0.0484 4.64945,0.85339 2.11452,1.04119 2.85129,1.76422 2.44889,2.40324 -0.44651,0.70907 -0.99902,0.66464 -2.34429,-0.1885 -3.82513,-2.42583 -9.25791,-1.47541 -12.82994,2.24449 -3.84763,4.00691 -4.45869,9.26807 -1.85931,16.008478 0.9973,2.58609 1.04314,4.14865 0.16564,5.646 -0.76302,1.30199 -2.44447,2.35935 -3.13626,1.9722 z m -0.54976,-30.835478 c -1.12854,-1.12854 2.88265,-4.29027 7.32779,-5.77596 3.04429,-1.01748 6.70851,-1.18249 9.69374,-0.43654 2.68035,0.66977 5.40297,1.98921 7.49856,3.63396 1.27352,0.99955 1.51552,1.31881 1.44711,1.90919 -0.12708,1.09686 -0.85045,1.00329 -2.47511,-0.32015 -2.85944,-2.32929 -6.94149,-3.84531 -10.38432,-3.8566 -3.57026,-0.0117 -7.88051,1.53571 -10.63645,3.81861 -1.37493,1.13893 -2.07063,1.42818 -2.47132,1.02749 z"
       id="path1427"
       inkscape:connector-curvature="0" />
  </g>
</svg>
