<?xml version="1.0" encoding="UTF-8" standalone="no"?>
<!-- Created with Inkscape (http://www.inkscape.org/) -->

<svg
   xmlns:dc="http://purl.org/dc/elements/1.1/"
   xmlns:cc="http://creativecommons.org/ns#"
   xmlns:rdf="http://www.w3.org/1999/02/22-rdf-syntax-ns#"
   xmlns:svg="http://www.w3.org/2000/svg"
   xmlns="http://www.w3.org/2000/svg"
   xmlns:sodipodi="http://sodipodi.sourceforge.net/DTD/sodipodi-0.dtd"
   xmlns:inkscape="http://www.inkscape.org/namespaces/inkscape"
   width="151.18111"
   height="151.18111"
   viewBox="0 0 40 40"
   version="1.1"
   id="svg8"
   inkscape:version="0.92.5 (2060ec1f9f, 2020-04-08)"
   sodipodi:docname="icon1.svg">
  <defs
     id="defs2" />
  <sodipodi:namedview
     id="base"
     pagecolor="#ffffff"
     bordercolor="#666666"
     borderopacity="1.0"
     inkscape:pageopacity="0.0"
     inkscape:pageshadow="2"
     inkscape:zoom="2.8"
     inkscape:cx="114.39475"
     inkscape:cy="136.84254"
     inkscape:document-units="mm"
     inkscape:current-layer="layer1"
     showgrid="false"
     units="px"
     inkscape:window-width="1920"
     inkscape:window-height="997"
     inkscape:window-x="1280"
     inkscape:window-y="28"
     inkscape:window-maximized="1" />
  <metadata
     id="metadata5">
    <rdf:RDF>
      <cc:Work
         rdf:about="">
        <dc:format>image/svg+xml</dc:format>
        <dc:type
           rdf:resource="http://purl.org/dc/dcmitype/StillImage" />
        <dc:title></dc:title>
      </cc:Work>
    </rdf:RDF>
  </metadata>
  <g
     inkscape:label="Vrstva 1"
     inkscape:groupmode="layer"
     id="layer1"
     transform="translate(0,-257)">
    <path
       style="fill:#000000;stroke-width:0.26458335"
       d="m 290.30052,248.42471 c -0.46854,-0.28568 -1.21268,-1.01748 -1.65364,-1.62621 -1.59003,-2.19497 -0.87189,-5.30298 1.49719,-6.47968 0.96461,-0.47911 2.11004,-0.5044 26.40835,-0.58297 17.68693,-0.0572 25.80814,0.006 26.74406,0.20734 3.30258,0.71129 4.92766,4.94468 2.84723,7.41713 -1.4175,1.6846 0.36317,1.58588 -28.58596,1.5848 -25.77362,-0.001 -26.42571,-0.0134 -27.25723,-0.52041 z m 4.45286,-9.96551 c -0.54786,-0.38373 -0.60446,-0.59396 -0.49978,-1.85623 0.0843,-1.01714 0.0118,-1.51166 -0.25414,-1.73237 -0.61585,-0.51112 -1.39183,-2.25338 -1.39183,-3.12501 0,-1.12804 0.65773,-2.29472 1.55539,-2.75892 0.55954,-0.28935 0.79527,-0.64694 0.91865,-1.39354 0.2415,-1.4614 0.20837,-2.45952 -0.0816,-2.45952 -0.13939,0 -0.5561,-0.51648 -0.92604,-1.14773 -1.20829,-2.06178 -0.73989,-4.07744 1.17799,-5.06921 0.66123,-0.34194 0.75585,-0.5527 0.83654,-1.8634 0.0785,-1.27521 0.006,-1.55721 -0.52947,-2.05657 -1.97587,-1.84295 -1.7372,-5.0809 0.44102,-5.98315 0.72116,-0.29871 0.82868,-0.49112 0.98829,-1.76857 0.16686,-1.33552 0.13145,-1.47087 -0.51861,-1.9822 -2.23445,-1.75762 -1.9324,-5.18989 0.54793,-6.22624 0.79346,-0.33153 0.88161,-0.47558 0.88161,-1.44054 0,-2.12573 -0.0777,-2.09572 5.42717,-2.09572 4.85251,0 4.88167,0.003 5.29362,0.63221 0.37445,0.57147 0.38128,2.63134 0.0712,21.44157 -0.29559,17.92858 -0.39788,20.844 -0.73887,21.05957 -0.2186,0.1382 -3.12334,0.25202 -6.48848,0.25426 -5.21635,0.003 -6.18155,-0.0582 -6.71051,-0.42869 z m 8.69689,-2.9411 c 1.32301,-0.66471 2.12194,-1.9858 2.12194,-3.50877 0,-3.68973 -5.11653,-4.77602 -7.1609,-1.52033 -0.68839,1.09628 -0.59713,3.34037 0.17087,4.20166 1.13731,1.27546 3.25867,1.63603 4.86809,0.82744 z m -3.32848,-1.49449 c -1.47367,-1.47367 -1.19477,-3.54548 0.57693,-4.28574 1.76751,-0.73852 3.55057,0.71769 3.55057,2.89971 0,0.69766 -0.1938,1.07873 -0.81405,1.60064 -1.15379,0.97084 -2.19546,0.90338 -3.31345,-0.21461 z m 4.15452,-8.69684 c 1.07885,-0.72071 1.82553,-2.10197 1.82076,-3.36816 -0.0138,-3.67116 -5.16182,-4.76968 -7.14087,-1.52377 -0.64667,1.06063 -0.69721,3.01615 -0.1,3.86882 1.15601,1.65043 3.74851,2.1398 5.42009,1.02311 z m -3.37615,-0.84751 c -0.30606,-0.21436 -0.74956,-0.87234 -0.98556,-1.46216 -0.37758,-0.94367 -0.38406,-1.18019 -0.054,-1.97019 0.89058,-2.13147 3.81752,-1.94788 4.66946,0.29287 0.41047,1.07963 0.28546,1.85707 -0.43661,2.7152 -0.53691,0.63808 -0.89594,0.81405 -1.66092,0.81405 -0.53677,0 -1.22635,-0.1754 -1.5324,-0.38977 z m 3.87844,-9.20138 c 2.40148,-1.63923 2.41213,-4.89629 0.0204,-6.24052 -2.33458,-1.31211 -5.1051,-0.14156 -5.8085,2.45409 -0.66398,2.4502 0.90439,4.37656 3.56602,4.38 0.96723,10e-4 1.59719,-0.16703 2.22208,-0.59357 z m -3.51718,-0.99632 c -0.95771,-0.75334 -1.3909,-2.18098 -0.97007,-3.19696 0.87454,-2.11132 3.5227,-2.09469 4.62091,0.029 0.57351,1.10904 0.48782,1.96328 -0.28961,2.8872 -0.83913,0.99725 -2.29568,1.11891 -3.36123,0.28075 z m 3.52712,-8.79326 c 1.49381,-0.75328 2.52626,-2.59607 2.25741,-4.02916 -0.53554,-2.8547 -4.0922,-3.95327 -6.35803,-1.96384 -2.16069,1.89711 -1.79283,4.92655 0.73773,6.0755 1.43195,0.65015 1.93444,0.63783 3.36289,-0.0825 z m -2.28864,-0.71664 c -0.69192,-0.28662 -1.64932,-1.47579 -1.8582,-2.30805 -0.32568,-1.29759 1.02949,-2.99458 2.39138,-2.99458 0.85467,0 1.8108,0.67848 2.29577,1.6291 0.68513,1.34297 0.6405,1.92307 -0.21966,2.8552 -0.80512,0.87248 -1.75751,1.17118 -2.60929,0.81833 z m 7.7334,33.71649 c -0.52672,-0.52672 -0.48815,0.067 -0.44645,-6.87225 0.0947,-15.75716 0.59291,-35.71552 0.89641,-35.90853 0.1721,-0.10945 3.19743,-0.20081 6.72296,-0.20304 6.36939,-0.004 6.41253,-2.5e-4 6.80255,0.59499 0.33142,0.50582 0.44176,3.84114 0.70901,21.43388 0.17409,11.45917 0.2286,20.92296 0.12115,21.03065 -0.10746,0.10769 -3.38643,0.23096 -7.28662,0.27393 -6.24567,0.0688 -7.14226,0.0271 -7.51901,-0.34963 z m 8.81428,-2.894 c 2.68655,-1.38926 3.10291,-4.99425 0.74511,-6.45145 -1.21121,-0.74857 -3.18289,-0.76383 -4.38013,-0.0339 -0.91406,0.55728 -1.88679,2.29716 -1.89704,3.39314 -0.0231,2.47106 3.2237,4.28589 5.53206,3.09219 z m -2.83468,-1.08389 c -0.7378,-0.51678 -1.38027,-1.73279 -1.38027,-2.61246 0,-0.36873 0.33146,-1.0414 0.73659,-1.49481 1.389,-1.55457 3.5909,-0.90686 4.30847,1.26738 0.74157,2.24699 -1.75224,4.17948 -3.66479,2.83989 z m 3.00734,-9.00794 c 1.83572,-0.87111 2.69091,-3.77773 1.60031,-5.43915 -0.96776,-1.47427 -3.4439,-1.97993 -5.1983,-1.06155 -1.00713,0.52721 -2.11282,2.34691 -2.11213,3.47607 0.002,2.58034 3.14148,4.24353 5.71012,3.02463 z m -3.00734,-1.04623 c -0.74521,-0.52197 -1.38027,-1.73523 -1.38027,-2.63698 0,-1.03524 1.32263,-2.24175 2.45751,-2.24175 2.42057,0 3.69885,3.30664 1.8427,4.76669 -0.80036,0.62956 -2.10936,0.67978 -2.91994,0.11204 z m 3.33408,-9.12011 c 1.16498,-0.71026 2.01579,-2.59439 1.77088,-3.92165 -0.64296,-3.48447 -5.69587,-3.97079 -7.27896,-0.70056 -0.62865,1.29862 -0.65925,1.95471 -0.14824,3.17775 0.78128,1.86985 3.72541,2.6217 5.65632,1.44446 z m -3.57683,-1.11643 c -0.89972,-0.98781 -1.19694,-1.78314 -1.01961,-2.72838 0.2945,-1.56982 2.17934,-2.45635 3.60279,-1.69455 0.77814,0.41645 1.64557,2.30221 1.44006,3.13063 -0.29985,1.20873 -1.15677,1.88761 -2.38264,1.88761 -0.80201,0 -1.24468,-0.16063 -1.6406,-0.59531 z m 3.1059,-8.73125 c 1.4938,-0.75328 2.52625,-2.59607 2.2574,-4.02916 -0.53554,-2.8547 -4.0922,-3.95327 -6.35803,-1.96384 -2.70123,2.37171 -1.23868,6.40428 2.38083,6.56445 0.29659,0.0131 1.0705,-0.24403 1.7198,-0.57145 z m -2.53308,-0.82764 c -0.982,-0.43514 -1.85879,-2.18291 -1.60411,-3.1976 0.37563,-1.49666 1.94712,-2.30365 3.35243,-1.72155 1.01896,0.42207 1.9321,2.11362 1.7033,3.15531 -0.33806,1.53918 -2.01952,2.39843 -3.45162,1.76384 z m 10.50189,33.68559 c -0.481,-0.51628 -0.51844,-1.22552 -0.69487,-13.16302 -0.10257,-6.93953 -0.20585,-16.42733 -0.22953,-21.08399 l -0.043,-8.46667 5.08089,-0.0718 c 5.73883,-0.0811 5.42333,-0.19601 5.76766,2.10037 0.14983,0.99924 0.30397,1.26462 0.80797,1.39112 0.87836,0.22045 1.99125,1.79084 2.15983,3.04772 0.17817,1.32838 -0.29354,2.50981 -1.28358,3.21478 -0.66895,0.47633 -0.75881,0.7034 -0.75881,1.91734 0,1.31365 0.0445,1.40102 0.96767,1.89815 1.04848,0.56465 1.92686,2.09865 1.93694,3.38267 0.007,0.94346 -0.54231,2.00091 -1.44658,2.7827 -0.6566,0.56768 -0.69534,0.71449 -0.52359,1.98438 0.10201,0.75423 0.29508,1.41249 0.42904,1.46279 0.74848,0.28103 1.84174,1.53552 2.10556,2.41607 0.41511,1.3855 0.117,2.67712 -0.8265,3.58105 -0.67538,0.64706 -0.78987,0.95232 -0.78641,2.09687 0.005,1.49815 0.0958,1.69212 1.09435,2.32687 0.92316,0.5868 1.66644,2.52871 1.43667,3.75348 -0.0957,0.50994 -0.53674,1.28997 -0.98018,1.7334 -0.73958,0.73959 -0.79891,0.93052 -0.71754,2.30942 0.0832,1.41047 0.0479,1.51478 -0.57276,1.69122 -0.36381,0.10343 -3.30596,0.19991 -6.53813,0.21442 -5.61309,0.0252 -5.89948,0.002 -6.38506,-0.51932 z m 7.79518,-2.79422 c 1.2339,-0.58552 2.0167,-1.77235 2.13857,-3.24233 0.18837,-2.27233 -1.30335,-3.73651 -3.80681,-3.73651 -1.28989,0 -1.53104,0.0977 -2.52098,1.02109 -1.00043,0.93319 -1.10426,1.15524 -1.20623,2.57969 -0.0945,1.32062 -0.0202,1.67445 0.48715,2.31735 1.12618,1.42721 3.19418,1.87411 4.9083,1.06071 z m -2.69832,-0.93167 c -1.19957,-0.58207 -1.81768,-2.71937 -1.14821,-3.97029 0.15723,-0.2938 0.69301,-0.70429 1.19062,-0.9122 2.54348,-1.06274 4.74865,2.44046 2.77718,4.41192 -0.81107,0.81108 -1.78342,0.97336 -2.81959,0.47057 z m 2.47093,-9.22074 c 1.21574,-0.74124 1.91364,-2.00649 1.91482,-3.47147 0.003,-3.65983 -5.16466,-4.73999 -7.14419,-1.49331 -0.64667,1.06063 -0.69721,3.01615 -0.1,3.86882 1.11717,1.59497 3.65495,2.11686 5.32935,1.09596 z m -3.12341,-0.86974 c -2.15803,-1.70057 -1.47204,-4.9621 1.04041,-4.94664 2.31934,0.0143 3.63418,3.10003 1.9758,4.63696 -0.77164,0.71513 -2.30227,0.87228 -3.01621,0.30968 z m 2.62924,-9.07868 c 1.91712,-1.13247 2.54326,-4.0418 1.2107,-5.62546 -1.76172,-2.09368 -5.39816,-1.61974 -6.57331,0.85671 -1.2518,2.63798 0.39035,5.19074 3.33913,5.19074 0.72329,0 1.62879,-0.18883 2.02348,-0.42199 z m -3.18928,-0.96707 c -1.47083,-1.19012 -1.69021,-3.00384 -0.50651,-4.18754 1.39,-1.38999 3.30904,-0.87444 4.09961,1.10138 0.36847,0.92089 0.37396,1.15962 0.0448,1.94734 -0.20632,0.49379 -0.6155,1.02644 -0.90929,1.18367 -0.72177,0.38628 -2.22639,0.36155 -2.72864,-0.0448 z m 2.33749,-8.91333 c 3.36524,-1.52792 2.94647,-6.3847 -0.608,-7.05152 -2.70021,-0.50656 -5.40225,2.1987 -4.75838,4.76407 0.24653,0.98226 1.43166,2.23936 2.36623,2.50993 1.26296,0.36565 1.79107,0.32648 3.00015,-0.22248 z m -2.3677,-0.8499 c -0.80585,-0.30011 -1.77886,-1.91737 -1.77886,-2.95669 0,-1.63674 2.08242,-2.73695 3.64799,-1.92736 1.01195,0.5233 1.7976,2.36963 1.42411,3.34673 -0.5265,1.37739 -1.94484,2.03948 -3.29324,1.53732 z m -32.41588,-11.38847 c -0.21673,-0.21673 -0.31923,-1.4309 -0.31923,-3.78131 v -3.46207 l -2.53934,-1.2694 -2.53934,-1.26939 -0.56952,0.52119 c -1.66828,1.52674 -4.64281,2.10014 -6.61652,1.27547 -2.05322,-0.85789 -3.81319,-3.27482 -4.0748,-5.59585 -0.25483,-2.26082 1.26872,-4.98975 3.40149,-6.09265 0.4376,-0.2263 1.36898,-0.47935 2.06973,-0.56234 3.45203,-0.40885 6.41345,2.19719 7.10585,6.25312 0.19087,1.11809 0.2881,1.22355 1.94199,2.10639 l 1.74105,0.92938 0.85376,-0.71839 0.85375,-0.71839 h 17.55419 17.55419 l 0.76998,0.6479 0.76998,0.64789 2.22688,-1.16933 c 1.22479,-0.64314 2.47633,-1.17282 2.78119,-1.17706 1.03597,-0.0144 1.93321,1.69799 1.40591,2.68325 -0.14386,0.26881 -1.23908,0.97877 -2.43381,1.57769 -3.86195,1.936 -3.60098,1.5302 -3.68621,5.73211 l -0.0735,3.62526 -18.9292,0.0679 c -14.50313,0.052 -19.00385,-0.007 -19.24844,-0.25135 z m 8.0695,-4.03705 c 1.89055,-2.19133 0.11181,-5.32906 -2.71271,-4.78527 l -1.04581,0.20134 1.35266,0.64523 c 1.98055,0.94474 2.46956,2.24439 1.28876,3.42518 -0.75088,0.75089 -1.2029,0.698 -2.8346,-0.33169 -1.31677,-0.83095 -1.56101,-0.80044 -1.22847,0.15348 0.65835,1.88855 3.78716,2.30635 5.18017,0.69173 z m 25.90127,0.0137 c 1.13071,-1.13072 1.18833,-1.64458 0.12261,-1.09347 -0.42733,0.22098 -0.85108,0.5217 -0.94166,0.66825 -0.0906,0.14656 -0.56626,0.26647 -1.05709,0.26647 -0.68305,0 -1.02078,-0.18028 -1.4396,-0.76845 -0.99055,-1.3911 -0.61807,-2.37008 1.16013,-3.04918 1.40973,-0.53838 1.55858,-0.94648 0.34321,-0.94097 -1.17827,0.005 -2.05503,0.49922 -2.77018,1.56043 -1.41033,2.09279 -0.13893,4.22537 2.53206,4.24712 0.96263,0.008 1.29812,-0.1378 2.05052,-0.8902 z m -32.64372,-10.52455 c -0.34207,-0.34207 -0.47704,-6.91753 -0.15901,-7.74631 0.36775,-0.95835 1.51105,-1.20248 5.63135,-1.20248 h 3.9699 l 0.15667,0.8599 c 0.0862,0.47294 0.12133,2.52677 0.0781,4.56406 l -0.0785,3.70417 -4.63757,0.072 c -3.38371,0.0525 -4.725,-0.0154 -4.96094,-0.25135 z m 11.74909,-0.18006 c -0.38368,-0.42396 -0.43489,-1.05267 -0.37174,-4.56407 l 0.0732,-4.07237 6.02567,-0.0711 c 5.55322,-0.0656 6.04071,-0.0344 6.21771,0.39688 0.24157,0.5887 0.23446,7.71448 -0.008,8.33936 -0.16354,0.42092 -0.69414,0.46302 -5.83574,0.46302 -5.17613,0 -5.69358,-0.0417 -6.10081,-0.49169 z m 14.17421,0.17419 c -0.22097,-0.22097 -0.3175,-1.62866 -0.3175,-4.63021 v -4.31271 h 3.9563 c 4.40997,0 5.0739,0.17108 5.68824,1.46571 0.60003,1.26445 0.59288,7.40319 -0.009,7.63411 -0.8219,0.3154 -8.98328,0.17797 -9.31815,-0.1569 z m -24.44059,-10.99353 c -0.53463,-0.0526 -1.08314,-0.23783 -1.21892,-0.41161 -0.1614,-0.20656 0.098,-1.35822 0.74912,-3.3264 l 0.99598,-3.01045 -0.50368,-0.82601 c -0.60063,-0.985 -0.63921,-1.57642 -0.13039,-1.99871 0.31237,-0.25924 0.18047,-0.49101 -0.78704,-1.38282 -1.72902,-1.59376 -2.76323,-3.28838 -2.76323,-4.52776 0,-0.82572 0.18175,-1.22118 0.88399,-1.92342 1.80563,-1.80562 3.06757,-1.5695 5.65558,1.05823 1.56257,1.58655 1.9649,1.87172 2.21521,1.57013 0.16821,-0.2027 0.6454,-0.36854 1.06041,-0.36854 0.5752,0 0.85476,0.19377 1.17611,0.8152 0.23185,0.44836 0.56233,0.75274 0.7344,0.67641 3.64429,-1.61666 6.51307,-2.19148 9.44097,-1.89172 2.03448,0.2083 4.23507,0.7968 5.64804,1.51045 1.09154,0.55131 1.15394,0.53664 1.6074,-0.37805 0.18398,-0.37111 0.58811,-0.63342 1.05938,-0.68762 0.66327,-0.0763 1.14769,0.29703 3.74068,2.88266 1.66031,1.6556 3.0322,3.24997 3.09953,3.60218 0.0734,0.38371 -0.0879,0.89717 -0.41053,1.30735 l -0.53132,0.67546 0.98259,3.17689 c 0.54042,1.74729 0.90443,3.25506 0.80891,3.35061 -0.17824,0.17831 -31.76397,0.27966 -33.51319,0.10754 z m 19.43153,-2.8762 c 1.45916,-1.02554 2.5749,-3.14943 2.5749,-4.90153 0,-1.72333 -0.48411,-2.79759 -1.79291,-3.97858 -2.34244,-2.11369 -5.86893,-2.02265 -8.10069,0.20911 -2.35678,2.35678 -2.28244,6.53518 0.14927,8.38994 1.39185,1.06162 2.05488,1.24505 4.1382,1.14489 1.62255,-0.078 2.11135,-0.21731 3.03123,-0.86383 z m -4.66009,0.0549 c -4.05883,-1.49492 -4.67485,-7.25948 -0.97734,-9.14581 3.51705,-1.79427 7.39616,0.96575 7.10058,5.05212 -0.22809,3.15331 -3.2291,5.15963 -6.12324,4.09369 z m 2.5486,-2.559 c 0.78521,-0.35776 1.51139,-1.55222 1.51139,-2.48602 0,-1.01067 -1.31624,-2.25393 -2.38622,-2.25393 -2.12984,0 -3.58071,2.21264 -2.62357,4.00107 0.50192,0.93785 2.25095,1.30726 3.4984,0.73888 z M 305.07663,154.016 c -0.13394,-0.0447 -0.89255,-0.73019 -1.68579,-1.52344 -1.61453,-1.61452 -2.67258,-1.87998 -3.63946,-0.9131 -0.90961,0.90961 -0.67614,1.78245 0.92604,3.46217 0.80036,0.8391 1.45521,1.67957 1.45521,1.86772 0,0.18815 0.71719,-0.36762 1.59376,-1.23504 0.87657,-0.86742 1.48417,-1.61366 1.35024,-1.65831 z m 27.96482,2.98898 c -0.27644,-0.60671 -0.18001,-0.78641 1.1963,-2.22932 1.6043,-1.68195 1.86226,-2.51901 1.01311,-3.28748 -0.9034,-0.81757 -1.82141,-0.54783 -3.46232,1.01732 -0.83909,0.80037 -1.6595,1.45521 -1.82313,1.45521 -0.16362,0 -0.43588,-0.25857 -0.60501,-0.57459 -0.27786,-0.51919 -0.1429,-0.73443 1.39979,-2.23235 1.7712,-1.71979 2.63435,-2.13543 3.8178,-1.8384 1.65599,0.41563 3.06407,2.97589 2.48063,4.51045 -0.33816,0.88942 -2.92659,3.82461 -3.3801,3.8329 -0.18502,0.003 -0.47171,-0.2908 -0.63707,-0.65374 z"
       id="path1429"
       inkscape:connector-curvature="0" />
    <path
       style="fill:#000000;stroke-width:0.28222221"
       d="m 147.78048,71.287322 c -6.798,-2.32006 -11.14777,-8.38143 -11.14777,-15.53431 0,-2.7506 0.5288,-5.03689 1.7689,-7.64794 0.79884,-1.68199 2.17073,-3.15481 14.44411,-15.50685 7.52461,-7.57284 13.95489,-13.81843 14.44532,-14.03042 1.40381,-0.60681 2.50227,-0.10556 4.82512,2.20179 l 2.05727,2.04354 2.56092,-2.56092 2.56092,-2.56092 -1.25819,-1.95014 c -7.93212,-12.2944103 -9.69715,-28.27236 -4.65802,-42.166806 5.05268,-13.931824 16.18089,-24.809079 30.14031,-29.460623 5.83126,-1.943088 8.11545,-2.280809 15.38111,-2.274127 5.66673,0.0052 6.86232,0.08673 9.41396,0.641833 4.02814,0.876317 8.39254,2.375335 11.80275,4.053825 l 2.87226,1.413718 2.20774,-0.848197 c 6.05205,-2.325158 10.697,-2.497857 16.56548,-0.6159 6.24118,2.001477 11.63405,6.865634 14.9769,13.50858 1.36951,2.721492 3.10983,7.989366 3.69415,11.182002 0.61911,3.382789 0.8619,12.179355 0.44063,15.964615 -1.08601,9.7581397 -3.67751,17.7172397 -8.89425,27.3163 -1.34812,2.48061 -3.34492,6.5842 -4.43733,9.11908 -2.1372,4.95926 -3.00752,6.16111 -4.46161,6.16111 -0.45368,0 -3.34509,-0.87056 -6.42538,-1.93458 l -5.6005,-1.93458 -1.26073,1.09678 c -0.69341,0.60323 -2.2639,1.78725 -3.48998,2.63115 l -2.22924,1.53437 0.81813,0.31748 c 0.44997,0.17461 3.42163,1.20748 6.60368,2.29526 3.18206,1.08777 6.2039,2.17258 6.71521,2.41067 0.98781,0.45998 1.75146,1.61476 1.75146,2.64854 0,1.8716 -5.52759,13.8172 -8.38344,18.11737 -4.53395,6.82692 -11.94135,10.5544 -18.99255,9.55723 -8.21418,-1.16164 -14.6879,-6.1989 -17.01481,-13.23941 -1.11606,-3.37687 -1.42879,-5.91679 -1.20813,-9.8125 0.1055,-1.86267 0.21667,-3.83041 0.24704,-4.37276 l 0.0552,-0.98609 -1.83444,-0.19951 c -6.30056,-0.68524 -14.99551,-3.8599 -20.14296,-7.35449 l -1.6574,-1.1252 -2.57144,2.57144 -2.57144,2.57144 2.02662,2.04869 c 2.30862,2.33377 2.78013,3.25157 2.34611,4.56668 -0.44143,1.33754 -27.02548,27.74327 -29.07616,28.88112 -4.01739,2.2291 -9.15429,2.71256 -13.40555,1.26166 z m 9.11932,-5.77389 c 1.91516,-0.70619 3.56504,-2.11442 9.64604,-8.23318 l 4.93647,-4.96713 -2.74736,-2.74736 -2.74736,-2.74736 -2.61244,2.59233 c -2.73369,2.71265 -3.55684,3.22375 -4.80705,2.98476 -1.30417,-0.24931 -2.17984,-1.39028 -2.17984,-2.84028 0,-1.22786 0.0932,-1.36588 2.74183,-4.06177 l 2.74183,-2.79071 -2.7533,-2.74364 -2.75329,-2.74364 -6.00398,6.06778 c -4.65255,4.70198 -6.17929,6.42746 -6.78284,7.66573 -2.00842,4.12057 -1.21869,9.02349 1.96648,12.20865 3.0016,3.00161 7.22635,3.87813 11.35481,2.35582 z m -7.77253,-6.0103 c -0.90655,-0.90656 -0.98136,-1.10226 -0.8359,-2.18679 0.21012,-1.56654 1.21722,-2.462 2.76896,-2.462 1.44085,0 2.10386,0.36115 2.66887,1.45376 0.61946,1.1979 0.32166,2.55892 -0.75886,3.46812 -1.27849,1.07578 -2.5872,0.98278 -3.84307,-0.27309 z m 88.67037,0.84574 c 4.19228,-1.09195 7.47016,-4.0083 10.54689,-9.38364 1.62432,-2.83785 4.99582,-10.16621 4.77751,-10.38451 -0.0539,-0.0539 -3.78052,-1.36399 -8.28147,-2.9114 l -8.18354,-2.81346 -2.27503,0.80506 c -2.73266,0.96701 -6.84204,1.866 -10.68374,2.33724 l -2.82223,0.34618 -0.32231,1.83444 c -0.47913,2.72695 -0.45269,7.28551 0.0549,9.47441 0.98214,4.23493 3.36685,7.27908 7.25322,9.25895 3.59153,1.82967 6.70093,2.27929 9.93575,1.43673 z m -58.20102,-16.14388 3.88345,-3.87602 -2.60422,-2.61509 c -1.43232,-1.4383 -2.73549,-2.6151 -2.89594,-2.6151 -0.16044,0 -2.00231,1.71413 -4.09305,3.80917 l -3.80133,3.80917 2.67079,2.68195 c 1.46894,1.47506 2.73515,2.68194 2.81382,2.68194 0.0787,0 1.89059,-1.74421 4.02648,-3.87602 z m -9.59555,-9.59556 3.88345,-3.87601 -2.60422,-2.6151 c -1.43233,-1.4383 -2.7355,-2.61509 -2.89594,-2.61509 -0.16045,0 -2.00232,1.71413 -4.09305,3.80917 l -3.80133,3.80917 2.67079,2.68194 c 1.46893,1.47507 2.73515,2.68194 2.81382,2.68194 0.0787,0 1.89058,-1.74421 4.02648,-3.87602 z m 55.14719,-2.76846 c 14.20281,-2.10891 26.59517,-11.56564 32.46909,-24.7774403 2.49631,-5.61478 3.53571,-10.60712 3.56442,-17.1202997 0.0209,-4.72759 -0.36683,-7.55818 -1.64275,-11.994442 -4.24838,-14.771186 -16.94542,-26.47926 -32.11368,-29.612349 -4.52783,-0.935251 -11.43531,-1.067218 -15.72153,-0.30036 -11.9921,2.145542 -22.7715,9.452644 -29.02097,19.672643 -4.52975,7.407681 -6.4959,14.945008 -6.17532,23.6734077 0.3021,8.22515999 2.45139,15.07367 6.78471,21.6188403 6.82346,10.30635 16.72748,16.75073 28.97603,18.85422 2.98328,0.51233 9.38144,0.50527 12.88,-0.0142 z m -13.02111,-8.32258 c -13.54875,-2.84849 -23.65103,-12.78186 -26.82705,-26.3784903 -0.62851,-2.69069 -0.8534,-9.0606897 -0.42364,-11.9998197 1.77614,-12.147103 9.95898,-22.568229 21.26812,-27.085671 17.90316,-7.151434 38.05001,1.873033 44.91833,20.12047 2.52119,6.698191 2.67115,15.2109107 0.39297,22.30753069 -1.56471,4.87411001 -5.09684,10.51815031 -8.82491,14.10146031 -2.03272,1.95379 -5.96959,4.77454 -8.34067,5.97606 -2.15028,1.08962 -6.99406,2.67039 -9.54654,3.1155 -3.38234,0.58984 -9.4217,0.51466 -12.61661,-0.15704 z m 14.75692,-6.38133 c 2.61487,-0.74756 5.59561,-2.16469 8.03586,-3.82047 1.68961,-1.14646 5.28833,-4.3719203 5.28833,-4.7398303 0,-0.11586 -0.55853,-0.50695 -1.24117,-0.86909 l -1.24117,-0.65843 -3.90939,0.40755 c -2.15016,0.22415 -5.36988,0.40607 -7.15494,0.40425 -2.97163,-0.003 -3.36729,-0.0672 -4.68785,-0.76091 -0.79326,-0.41669 -2.15851,-1.4122 -3.03389,-2.21224 l -1.59159,-1.45463 -0.004,5.88443 c -0.002,3.2364403 -0.0728,6.1410803 -0.15712,6.4547603 -0.13504,0.50251 0.15907,0.67522 2.4733,1.45238 2.95045,0.99082 3.47291,0.98447 7.22348,-0.0878 z M 211.4245,4.8304517 c 0.003,-13.04074 0.20541,-17.0087697 1.15503,-22.6483297 1.02523,-6.08852 3.03905,-13.697575 4.80098,-18.140122 0.44793,-1.129403 0.81441,-2.186291 0.81441,-2.348642 0,-0.534274 -5.06279,0.216984 -8.18444,1.214475 -2.74168,0.876077 -5.85378,2.522884 -8.4154,4.45312 -10.34635,7.79621 -13.98882,21.943629 -8.75344,33.9984887 2.6447,6.08962 8.43378,11.8743703 14.48773,14.4769003 1.98627,0.85388 3.48762,1.4188 3.88055,1.46016 0.11642,0.0122 0.21298,-5.59746 0.21458,-12.4660503 z m 33.50385,-3.66252 c 1.81306,-4.20891 2.71523,-9.83454 2.21685,-13.8234797 -0.27688,-2.21603 -0.58809,-2.31505 -6.46168,-2.05597 -5.86508,0.25871 -7.3892,0.0683 -8.43786,-1.05433 -1.10425,-1.18209 -1.09411,-2.77541 0.0248,-3.89429 0.77613,-0.776137 0.92108,-0.810546 3.36541,-0.79893 4.11132,0.01954 9.37018,-0.364382 9.37018,-0.684061 0,-0.365537 -1.79216,-3.607585 -2.92012,-5.282525 -1.23919,-1.840126 -4.2754,-4.921188 -6.39321,-6.487648 -2.94223,-2.176255 -6.19232,-3.685554 -10.61266,-4.928382 -0.53048,-0.149151 -0.71594,0.14202 -1.74003,2.731764 -3.3122,8.376039 -5.47109,18.138742 -5.88343,26.6053717 l -0.17867,3.66889 3.35233,3.27129 c 2.22585,2.17202999 3.70164,3.38656 4.39183,3.61434 0.85859,0.28336 1.96351,0.23748 6.34895,-0.26367 3.06215,-0.34993 5.93517,-0.53501 6.78776,-0.43728 1.55017,0.1777 4.37262,1.27946 4.72077,1.84277 0.45912,0.74287 1.15169,0.0587 2.0488,-2.02386 z M 225.59907,-16.676458 c -1.66956,-1.40483 -1.39423,-3.831759 0.54867,-4.836475 0.72313,-0.373939 1.08001,-0.401439 1.92484,-0.148325 1.35154,0.404932 1.98875,1.14156 2.17249,2.51144 0.12603,0.9396 0.0245,1.25009 -0.65891,2.01489 -1.16234,1.30077 -2.76682,1.48527 -3.98709,0.45847 z m -40.91163,40.70375 -1.61443,-1.63145 -2.33473,2.32261 -2.33474,2.3226 1.61443,1.63145 1.61443,1.63145 2.33473,-2.3226 2.33474,-2.32261 z m 79.2772,-6.67633 c 1.05921,-2.23302 1.92584,-4.11275 1.92584,-4.17717 0,-0.42396 -2.05102,-0.89269 -3.11288,-0.71142 -1.1067,0.18893 -1.29053,0.35289 -2.35977,2.10473 -0.63776,1.04491 -1.8733,2.88525 -2.74562,4.08965 -0.87233,1.2044 -1.61208,2.31354 -1.64389,2.46476 -0.0318,0.15123 1.12641,0.67396 2.57383,1.16164 l 2.63166,0.88669 0.4025,-0.87941 c 0.22137,-0.48368 1.26912,-2.70644 2.32833,-4.93947 z m 5.55524,-10.9682803 c 0.9852,-1.96093 3.01926,-7.44113 3.28154,-8.84123 0.17098,-0.91266 0.0912,-1.09549 -0.83073,-1.90499 -0.84873,-0.7452 -1.25189,-0.89545 -2.40277,-0.89545 -2.10188,0 -2.83078,0.37096 -2.83078,1.4407 0,1.11494 -1.25987,6.78024 -1.96101,8.81815 l -0.52548,1.52734 1.09162,0.14642 c 0.87547,0.11742 1.88831,0.51539 3.29581,1.295 0.0366,0.0203 0.43338,-0.69342 0.8818,-1.58594 z m 5.5871,-23.7979497 0.17173,-5.524059 -3.07134,0.35996 c -1.68924,0.197979 -3.84704,0.366057 -4.79512,0.373505 l -1.72379,0.01355 0.51911,2.469444 c 0.28551,1.35819 0.59153,3.48544 0.68005,4.72722 0.0885,1.24178 0.21766,2.63878 0.287,3.10444 l 0.12607,0.84667 2.32878,0.006 c 1.74057,0.004 2.64957,0.15214 3.59879,0.58568 l 1.27,0.5800697 0.21849,-1.0090197 c 0.12018,-0.55496 0.29578,-3.49485 0.39023,-6.53308 z m -3.62016,-11.020167 c 1.50107,-0.174044 2.76808,-0.350495 2.81558,-0.392111 0.18259,-0.159958 -0.86069,-3.779904 -1.7934,-6.222698 -1.59459,-4.176256 -4.79143,-8.435664 -7.97545,-10.626328 -1.59222,-1.095479 -4.31949,-2.308749 -6.26307,-2.786235 -2.00839,-0.493406 -6.26374,-0.498704 -7.96092,-0.0099 l -1.3287,0.382667 3.60933,3.564976 c 3.58793,3.54384 5.95266,6.545432 8.15781,10.354839 0.70957,1.225781 1.97506,2.772813 3.28978,4.021666 2.44082,2.318538 2.36938,2.302109 7.44904,1.713134 z"
       id="path1431"
       inkscape:connector-curvature="0" />
    <path
       style="fill:#4682b4;fill-opacity:1;stroke-width:0.07915007"
       d="m 4.3530238,292.44728 c -0.018379,-0.0544 -0.3200082,-1.15437 -0.6702902,-2.44438 l -0.6368784,-2.34545 v -2.89823 -2.89826 h 2.6119523 2.6119528 v 0.29983 0.29983 l -1.235849,0.17307 c -1.4125422,0.1978 -1.6508652,0.29891 -1.9139372,0.81209 -0.1757607,0.34286 -0.1809011,0.41138 -0.1583,2.10988 0.025951,1.95074 0.034636,1.98429 0.6161782,2.38008 0.4248167,0.28913 0.849812,0.2403 1.8212567,-0.20925 l 0.8310762,-0.3846 0.023913,0.21584 c 0.0208,0.18766 0.1292514,0.26805 0.831075,0.61605 1.3858778,0.68721 3.5647858,1.4182 5.3522038,1.79558 4.463266,0.94237 7.788353,0.31335 9.865376,-1.86628 1.250617,-1.3124 1.946622,-2.85303 2.364078,-5.23295 l 0.05203,-0.2968 h 0.827495 c 0.969119,0 0.900209,-0.12452 0.671508,1.21324 -0.289433,1.69297 -0.945643,3.35552 -1.793264,4.54338 -1.095683,1.53545 -2.871771,2.76318 -4.818092,3.33048 -1.358333,0.39595 -1.811855,0.45061 -3.680478,0.44367 -1.563932,-0.006 -1.925429,-0.0324 -2.967476,-0.21843 -2.11558,-0.37762 -4.365922,-1.03471 -6.5503199,-1.91266 -0.1285907,-0.0516 -0.1385125,0.0385 -0.1385125,1.25877 v 1.31445 h -1.941657 c -1.4827414,0 -1.9495588,-0.0234 -1.9750758,-0.099 z m 1.4938033,-4.72762 c -0.091931,-0.0371 -0.2433097,-0.16437 -0.3363877,-0.28268 -0.1614366,-0.20524 -0.1692319,-0.29682 -0.1692319,-1.98814 0,-1.93397 0.025344,-2.05732 0.4589708,-2.23454 0.1838135,-0.0751 16.9458977,-2.69889 17.2419817,-2.69889 0.0835,0 0.107817,0.17167 0.107817,0.7618 v 0.76183 l -1.041156,1.46163 c -0.572635,0.80393 -1.115803,1.49219 -1.207038,1.52949 -0.09124,0.0374 -2.96186,0.48238 -6.379163,0.98904 l -6.2132799,0.92119 -0.9378628,0.42842 c -0.923645,0.42192 -1.1944825,0.48425 -1.5246455,0.35085 z m 18.2889259,-5.81553 c -0.122466,-0.12245 -0.194283,-0.28469 -0.194283,-0.43892 0,-0.1542 0.07182,-0.31645 0.194283,-0.43893 l 0.194276,-0.19427 h 2.619479 c 2.885227,0 3.026354,0.0206 3.122776,0.45978 0.06192,0.28193 -0.05923,0.6127 -0.264715,0.72267 -0.101654,0.0545 -1.093371,0.0839 -2.817215,0.0839 h -2.660325 z m 0.280619,-2.96812 v -1.34197 l 0.257239,-0.0427 c 0.357019,-0.0594 4.551045,-0.51843 4.736554,-0.51843 0.143611,0 0.150965,0.0791 0.150965,1.62258 v 1.62256 h -2.572377 -2.572381 z m -1.9222,-1.75224 c -0.208324,-0.0327 -0.501816,-0.13208 -0.652204,-0.22082 -0.355191,-0.20956 -2.253749,-1.67694 -2.253749,-1.74189 0,-0.0651 13.765131,-1.78335 13.823111,-1.72538 0.06678,0.0667 -1.667475,2.28634 -1.949204,2.49463 -0.134611,0.0994 -0.386966,0.23113 -0.560777,0.29245 -0.173804,0.0612 -1.944449,0.29037 -3.934761,0.50897 -1.990305,0.2186 -3.725592,0.40962 -3.85619,0.42449 -0.130599,0.0148 -0.407903,2.2e-4 -0.616226,-0.0325 z m -16.638264,-1.9949 c -0.1923996,-0.109 -0.3908662,-0.31421 -0.5064652,-0.52376 -0.1855537,-0.33637 -0.1952022,-0.4485 -0.404447,-4.70046 -0.1178949,-2.39573 -0.1881989,-4.47185 -0.1562248,-4.61362 0.031975,-0.14177 0.1393569,-0.37183 0.2386296,-0.51125 0.3338711,-0.46887 0.609775,-0.53035 3.1703633,-0.70639 1.2802755,-0.0881 2.4363731,-0.1601 2.5691081,-0.16017 0.239097,-1.7e-4 0.243726,0.008 0.499058,0.8793 0.141749,0.48371 0.243947,0.89325 0.227111,0.91009 -0.01684,0.0168 -0.775677,0.067 -1.68631,0.11152 -2.0557333,0.10033 -2.1108787,0.1096 -2.4529326,0.40995 -0.5485077,0.4816 -0.543241,0.44338 -0.4338306,3.14868 0.05373,1.32866 0.1310355,2.54771 0.1717783,2.70896 0.087338,0.34572 0.3944524,0.73443 0.708611,0.89688 0.2858843,0.14785 0.7055627,0.14641 3.0813549,-0.0107 2.218723,-0.14658 2.4667,-0.21149 2.813982,-0.73626 0.251422,-0.37993 0.256509,-0.45655 0.164698,-2.48136 -0.037,-0.81624 -0.04488,-1.48405 -0.01749,-1.48405 0.137712,0 1.867141,1.38278 1.86822,1.49374 7.19e-4,0.0709 0.03508,0.53843 0.07641,1.03904 0.04134,0.50064 0.08094,1.39793 0.08802,1.99401 0.01519,1.28041 -0.07615,1.54821 -0.649643,1.90448 l -0.350915,0.218 -3.757722,0.197 c -4.7127614,0.24707 -4.8530855,0.2475 -5.2613478,0.0164 z m 10.120879,-0.40562 c 0.405189,-0.53124 0.445429,-0.72777 0.445429,-2.17545 v -1.34324 l 0.336388,-0.0447 c 0.185014,-0.0247 5.10914,-0.48886 10.942497,-1.0315 5.833362,-0.54263 10.73967,-1.00587 10.902916,-1.02944 l 0.296817,-0.0428 v 1.25951 1.25948 l -0.467858,0.40533 -0.46786,0.40531 -10.830811,1.26333 c -5.956946,0.69484 -10.95294,1.28457 -11.102207,1.3105 l -0.271393,0.0473 z M 4.217509,271.51209 c -0.2833044,-0.29486 -0.286279,-0.3052 -0.4536086,-1.57824 -0.1550453,-1.17959 -0.2185892,-1.42703 -0.7994147,-3.11294 -0.3470392,-1.0073 -0.6309805,-1.93902 -0.6309805,-2.07049 0,-0.13143 0.059764,-0.36491 0.1328116,-0.51884 0.245003,-0.51631 0.3152511,-0.52822 4.9723673,-0.84296 10.1071149,-0.68303 26.7823459,-1.71377 27.0975249,-1.67496 0.470163,0.0578 1.071362,0.40059 1.312011,0.74783 0.109499,0.15802 0.348058,0.69635 0.530107,1.19626 0.322022,0.88428 0.36071,0.94609 1.42675,2.27899 l 1.095757,1.37004 v 0.70765 c 0,0.3892 -0.01969,0.70763 -0.04373,0.70763 -0.04253,0 -1.843502,0.17212 -15.738251,1.50414 -3.652102,0.35011 -6.656,0.62076 -6.675335,0.60142 -0.01933,-0.0194 -0.052,-0.26057 -0.0726,-0.53608 -0.02058,-0.27553 -0.05321,-0.57887 -0.07248,-0.67408 -0.02328,-0.1151 -0.695429,-0.67052 -2.005988,-1.65761 l -1.970952,-1.48449 -0.403286,-1.43703 c -0.221807,-0.79037 -0.403286,-1.48225 -0.403286,-1.53755 0,-0.0771 -0.152173,-0.0891 -0.652988,-0.0515 -0.359144,0.0269 -1.7153931,0.12216 -3.013889,0.21156 -1.2984946,0.0893 -2.4559068,0.19864 -2.5720258,0.2428 -0.7082331,0.26926 -1.060845,0.86373 -1.0515017,1.77268 0.00572,0.55898 0.2821862,4.98987 0.3591526,5.75663 0.020752,0.20677 0.010972,0.37596 -0.021623,0.37596 -0.032642,0 -0.1876873,-0.13359 -0.3445315,-0.29683 z"
       id="path1433"
       inkscape:connector-curvature="0" />
    <path
       style="fill:#000000;stroke-width:0.26458332"
       d="m 262.61787,135.87017 c 0,-0.15666 0.20836,-0.21227 0.46302,-0.12358 0.41089,0.14309 0.40791,0.11847 -0.0265,-0.21867 -0.26924,-0.20896 -0.41104,-0.50691 -0.31512,-0.66211 0.22569,-0.36518 0.93692,-0.36669 0.93692,-0.002 0,0.15411 -0.13746,0.19525 -0.30546,0.0914 -0.18926,-0.11696 -0.23364,-0.0726 -0.11668,0.11668 0.34522,0.55857 0.68673,0.31574 0.68673,-0.48829 0,-0.43656 0.11906,-0.79375 0.26458,-0.79375 0.14552,0 0.26458,0.1786 0.26458,0.39688 0,0.36816 0.45877,0.52025 1.25677,0.41662 0.1819,-0.0236 0.33073,0.2004 0.33073,0.49782 0,0.29742 0.11907,0.54077 0.26459,0.54077 0.14552,0 0.26458,-0.23813 0.26458,-0.52917 0,-0.29104 0.16867,-0.52917 0.37483,-0.52917 0.20615,0 0.43521,-0.14883 0.50902,-0.33073 0.10105,-0.24903 0.20453,-0.23269 0.41892,0.0661 0.25309,0.35278 0.31413,0.35278 0.54931,0 0.21989,-0.32983 0.3038,-0.33606 0.49674,-0.0369 0.12768,0.19801 0.18386,0.61473 0.12483,0.92604 l -0.10733,0.56603 0.25469,-0.57144 c 0.22439,-0.50345 0.46137,-0.57016 1.99184,-0.56068 0.95543,0.006 1.73715,0.12126 1.73715,0.25632 0,0.13506 -0.14883,0.17018 -0.33073,0.078 -0.1819,-0.0921 -0.11045,0.012 0.15879,0.23137 0.26923,0.21939 0.41103,0.52587 0.31511,0.68108 -0.23039,0.37278 -1.2015,0.36413 -1.2015,-0.0107 0,-0.16948 0.19377,-0.21853 0.45989,-0.11641 0.38461,0.14759 0.37378,0.0928 -0.0661,-0.33474 -0.60398,-0.58695 -0.92291,-0.50731 -0.92291,0.23049 0,0.28245 -0.11906,0.51355 -0.26458,0.51355 -0.14553,0 -0.26459,-0.17859 -0.26459,-0.39687 0,-0.22428 -0.23692,-0.39688 -0.54478,-0.39688 -0.30164,0 -0.47061,0.12001 -0.37859,0.2689 0.0914,0.1479 0.27702,0.2004 0.41249,0.11668 0.13546,-0.0837 0.2463,-0.0336 0.2463,0.11139 0,0.14499 -0.47625,0.25704 -1.05833,0.24901 -0.93445,-0.0129 -1.05834,-0.0884 -1.05834,-0.64488 0,-0.34664 -0.13197,-0.63026 -0.29326,-0.63026 -0.1807,0 -0.22955,0.25389 -0.12725,0.66145 0.12001,0.47818 0.0595,0.66146 -0.21833,0.66146 -0.21617,0 -0.43257,-0.31836 -0.49457,-0.7276 l -0.11022,-0.72761 -0.0396,0.7257 c -0.0367,0.6712 -0.11912,0.72259 -1.09798,0.68423 -0.92859,-0.0364 -1.05833,-0.11915 -1.05833,-0.67516 0,-0.3551 -0.11633,-0.56181 -0.26458,-0.47018 -0.14552,0.0899 -0.26459,0.37532 -0.26459,0.6342 0,0.3549 -0.22779,0.47925 -0.92604,0.5055 -0.50932,0.0191 -0.92604,-0.0934 -0.92604,-0.25003 z m 10.79238,-0.48664 c -0.11937,-0.81332 0.15952,-1.57787 0.46437,-1.27302 0.0952,0.0952 0.19299,0.59773 0.21741,1.11681 0.0542,1.15344 -0.51623,1.28414 -0.68178,0.15621 z m 0.93047,0.35293 c -0.25966,-0.67665 0.1528,-1.18927 0.90928,-1.13009 1.35217,0.10578 1.91995,-0.0183 1.91995,-0.41962 0,-0.21828 0.11906,-0.39688 0.26459,-0.39688 0.14552,0 0.26458,0.22698 0.26458,0.5044 0,0.38921 0.13594,0.47162 0.59531,0.36088 0.48799,-0.11764 0.53569,-0.0798 0.26458,0.20998 -0.47582,0.50858 -0.41103,0.7616 0.26459,1.03316 0.56162,0.22575 0.56462,0.24024 0.0529,0.25606 -0.29831,0.009 -0.68527,-0.1261 -0.85989,-0.30073 -0.22951,-0.22951 -0.3175,-0.23365 -0.3175,-0.0149 0,0.45546 -3.18156,0.35864 -3.3584,-0.1022 z m 0.97715,-0.412 c 0,-0.42742 -0.0782,-0.50385 -0.29445,-0.28764 -0.16194,0.16194 -0.21445,0.42388 -0.11667,0.58208 0.27368,0.44283 0.41112,0.34439 0.41112,-0.29444 z m 1.71979,-0.21167 c -0.12801,-0.20713 -0.28021,-0.2225 -0.4566,-0.0461 -0.14552,0.14552 -0.17817,0.40439 -0.0726,0.57528 0.12801,0.20712 0.28022,0.22249 0.45661,0.0461 0.14552,-0.14552 0.17817,-0.40439 0.0726,-0.57527 z m 2.60202,0.64269 c -0.3615,-0.94205 0.0695,-1.12066 2.60516,-1.07955 l 2.46574,0.04 0.0837,0.72761 c 0.046,0.40018 -0.0433,0.7276 -0.19844,0.7276 -0.15519,0 -0.28398,-0.32742 -0.28621,-0.7276 -0.003,-0.52954 -0.0683,-0.6261 -0.2401,-0.35472 -0.12983,0.20508 -0.1748,0.5325 -0.0999,0.7276 0.0749,0.1951 0.004,0.35472 -0.15677,0.35472 -0.16109,0 -0.29289,-0.23812 -0.29289,-0.52916 0,-0.29105 -0.11906,-0.52917 -0.26458,-0.52917 -0.14552,0 -0.26458,0.21907 -0.26458,0.48682 0,0.41656 -0.2314,0.49023 -1.60301,0.5104 -1.16195,0.0171 -1.64293,-0.0805 -1.7481,-0.35453 z m 1.10215,-0.64269 c -0.12801,-0.20713 -0.28022,-0.2225 -0.4566,-0.0461 -0.14553,0.14552 -0.17818,0.40439 -0.0726,0.57528 0.12801,0.20712 0.28021,0.22249 0.4566,0.0461 0.14552,-0.14552 0.17818,-0.40439 0.0726,-0.57527 z m 1.19062,0.21167 c 0,-0.42742 -0.0782,-0.50385 -0.29444,-0.28764 -0.16195,0.16194 -0.21445,0.42388 -0.11668,0.58208 0.27368,0.44283 0.41112,0.34439 0.41112,-0.29444 z m 5.75469,0.67143 c 0.1819,-0.0734 0.33073,-0.42821 0.33073,-0.78847 0,-0.36931 -0.11541,-0.5837 -0.26458,-0.49151 -0.14553,0.0899 -0.26459,0.0445 -0.26459,-0.10106 0,-0.28625 0.50184,-0.67592 0.66298,-0.51478 0.0542,0.0542 0.16013,0.43795 0.23534,0.8527 0.0752,0.41476 0.20078,0.81815 0.27905,0.89642 0.22452,0.22452 1.20388,-0.7738 1.20388,-1.2272 0,-0.31794 -0.0706,-0.33823 -0.3175,-0.0913 -0.42434,0.42434 -0.7572,0.40343 -0.58821,-0.037 0.16403,-0.42745 4.60988,-0.56672 4.60988,-0.14441 0,0.46334 -0.7993,1.82178 -1.07192,1.82178 -0.14552,0 -0.0829,-0.35127 0.13908,-0.78061 0.51801,-1.00171 0.50984,-1.07147 -0.1255,-1.07147 -0.32437,0 -0.53242,0.17919 -0.53758,0.46302 -0.0107,0.59106 -0.61128,1.38906 -1.04534,1.38906 -0.25432,0 -0.26152,-0.0873 -0.0302,-0.36597 0.41401,-0.49886 -0.41878,-0.82748 -0.95958,-0.37866 -0.33727,0.27991 -0.32401,0.34841 0.0997,0.51514 0.28631,0.11267 -0.16871,0.19135 -1.09883,0.19001 -0.87312,-0.001 -1.43867,-0.0623 -1.25677,-0.13575 z m 3.77031,-1.29559 c 0,-0.22687 -0.121,-0.33771 -0.2689,-0.2463 -0.14789,0.0914 -0.2004,0.27702 -0.11667,0.41249 0.22681,0.36699 0.38557,0.29856 0.38557,-0.16619 z m 2.21156,1.0719 c -0.0842,-0.2194 0.0414,-0.69565 0.27899,-1.05833 0.45694,-0.69738 1.02912,-0.91139 0.79323,-0.29668 -0.22824,0.59479 0.64377,0.73779 0.95483,0.15658 0.15286,-0.28562 0.37929,-0.51931 0.50317,-0.51931 0.31302,0 0.50349,1.50104 0.24263,1.91207 -0.16786,0.2645 -0.21467,0.26582 -0.21786,0.006 -0.005,-0.39308 -0.95994,-0.44597 -1.19467,-0.0661 -0.25115,0.40636 -1.18835,0.31381 -1.36032,-0.13433 z m 0.96344,-0.27815 c 0,-0.22687 -0.121,-0.33771 -0.2689,-0.2463 -0.14789,0.0914 -0.2004,0.27702 -0.11667,0.41249 0.22681,0.36699 0.38557,0.29856 0.38557,-0.16619 z m 1.5875,-0.38126 c 0,-0.14552 -0.0525,-0.26458 -0.11667,-0.26458 -0.0642,0 -0.19027,0.11906 -0.2802,0.26458 -0.0899,0.14552 -0.0374,0.26458 0.11667,0.26458 0.15411,0 0.2802,-0.11906 0.2802,-0.26458 z m 0.66935,0.82995 c 0.0927,-0.0927 0.27764,-0.16849 0.41103,-0.16849 0.1334,0 0.23063,-0.11907 0.21608,-0.26459 -0.0145,-0.14552 -0.13361,-0.23481 -0.26458,-0.19843 -0.13097,0.0364 -0.23813,-0.23151 -0.23813,-0.59532 0,-0.55264 0.1197,-0.65641 0.72761,-0.63076 0.44764,0.0189 0.54945,0.0772 0.26458,0.15169 -0.58251,0.15222 -0.59666,0.50347 -0.0291,0.72128 0.27273,0.10465 0.5732,-0.0323 0.80875,-0.36857 0.43614,-0.62268 0.92795,-0.71909 0.70505,-0.13822 -0.0838,0.21828 -0.0332,0.39688 0.11229,0.39688 0.14552,0 0.33311,-0.1786 0.41688,-0.39688 0.22884,-0.59635 1.2516,-0.49315 1.41798,0.14308 l 0.1412,0.53995 0.3782,-0.53995 c 0.43881,-0.6265 0.93219,-0.72614 0.70845,-0.14308 -0.0838,0.21828 -0.0122,0.39688 0.159,0.39688 0.17148,0 0.27332,0.26736 0.22674,0.59531 -0.0819,0.57656 -0.18292,0.59645 -3.20756,0.63152 -1.71765,0.0199 -3.04718,-0.0396 -2.95451,-0.1323 z m 2.50565,-0.44869 c 0,-0.22687 -0.121,-0.33771 -0.2689,-0.2463 -0.14789,0.0914 -0.2004,0.27702 -0.11667,0.41249 0.22681,0.36699 0.38557,0.29856 0.38557,-0.16619 z m 1.61844,-0.84428 c -0.24756,-0.44098 -0.26843,-0.44098 -0.43833,0 -0.0981,0.25466 -0.0981,0.67138 0,0.92604 0.1699,0.44097 0.19077,0.44097 0.43833,0 0.17019,-0.30316 0.17019,-0.62288 0,-0.92604 z m 1.55656,0.84428 c 0,-0.22687 -0.121,-0.33771 -0.2689,-0.2463 -0.14789,0.0914 -0.2004,0.27702 -0.11667,0.41249 0.22681,0.36699 0.38557,0.29856 0.38557,-0.16619 z m -16.93333,-0.38126 c 0,-0.14552 0.17859,-0.26458 0.39687,-0.26458 0.21828,0 0.39688,0.11906 0.39688,0.26458 0,0.14552 -0.1786,0.26458 -0.39688,0.26458 -0.21828,0 -0.39687,-0.11906 -0.39687,-0.26458 z m 19.00411,-16.76518 c -2.54899,-3.22711 -3.0657,-3.75425 -3.44531,-3.5148 -0.33952,0.21416 -0.56887,0.17102 -0.95667,-0.17994 -0.48694,-0.44067 -0.60476,-0.42977 -2.59518,0.24012 -1.8448,0.62088 -2.37473,0.68685 -4.59862,0.57248 -2.6299,-0.13525 -4.59699,-0.72599 -6.19609,-1.86075 l -0.81537,-0.57861 0.59532,0.76027 c 0.64442,0.82299 0.74201,1.59152 0.33727,2.65606 -0.48898,1.28612 -1.89142,0.67752 -1.78305,-0.77377 0.0625,-0.83647 0.0633,-0.83589 -3.11829,-2.28323 -2.34401,-1.06633 -5.67529,-4.30759 -6.97117,-6.78278 -2.50563,-4.78588 -3.3374,-10.475368 -1.93121,-13.209798 1.39499,-2.71263 3.95537,-3.69665 6.23167,-2.39499 1.81017,1.0351 2.51855,2.52842 2.53211,5.33789 l 0.006,1.30736 0.93998,-1.56099 c 0.7882,-1.30895 0.91317,-1.71961 0.77397,-2.54349 -0.23662,-1.40057 -1.49987,-3.25584 -2.80496,-4.11951 -0.96196,-0.63659 -1.38237,-0.74047 -2.99071,-0.73893 -1.57363,0.002 -2.09553,0.12565 -3.27992,0.78025 -2.16069,1.19416 -3.78201,3.56591 -4.10066,5.99865 -0.23108,1.76421 0.21622,4.11582 1.52851,8.035978 1.79147,5.35161 1.85727,6.84519 0.36723,8.33523 -0.95322,0.95322 -2.21069,1.08699 -2.47221,0.263 -0.12459,-0.39256 0.0854,-0.76905 0.81015,-1.4526 0.90934,-0.85761 0.966,-0.99985 0.80341,-2.01663 -0.0962,-0.60167 -0.68974,-2.65668 -1.31896,-4.56668 -2.03639,-6.181498 -2.18711,-8.561258 -0.7383,-11.657278 1.02611,-2.19275 2.31364,-3.57814 4.31846,-4.6467 3.12425,-1.66521 6.60041,-1.34349 9.08154,0.84049 1.17622,1.03535 2.52205,3.19487 2.52205,4.04689 0,0.33207 0.16776,0.29813 0.90043,-0.18215 l 0.90043,-0.59024 -0.41105,-1.06584 c -0.22608,-0.5862 -0.51222,-1.17893 -0.63585,-1.31718 -0.33464,-0.37418 -0.27175,-1.36581 0.10593,-1.67015 0.6392,-0.51508 1.42682,0.12022 2.04875,1.65255 0.56263,1.38624 0.65911,1.48499 1.297,1.3276 0.37903,-0.0935 0.79831,-0.27674 0.93172,-0.40713 0.29261,-0.28598 -0.3952,-1.94231 -1.61786,-3.89603 -4.39533,-7.02337 -14.47114,-8.16812 -20.67246,-2.34866 -1.796,1.68541 -3.48841,4.25823 -4.28836,6.51922 -0.72426,2.04706 -0.95135,2.38125 -1.61813,2.38125 -1.14679,0 -0.86958,-1.97956 0.71669,-5.11791 2.36074,-4.67059 6.03347,-7.6774 10.89712,-8.92131 7.62621,-1.95046 15.13136,1.95732 18.18251,9.46727 l 0.6213,1.52924 1.78218,0.18019 c 0.9802,0.0991 2.39047,0.3776 3.13393,0.61889 6.64841,2.15772 10.22427,9.433068 7.95661,16.188308 -0.64052,1.90806 -0.65009,2.02275 -0.20956,2.50953 0.34354,0.37961 0.39186,0.62071 0.18888,0.94249 -0.22481,0.3564 0.0794,0.71102 1.73091,2.01753 1.10202,0.87182 2.80988,2.22518 3.79524,3.00747 l 1.79159,1.42234 -0.46867,0.79751 c -0.53788,0.91529 -3.36359,3.69732 -4.21776,4.15255 -0.53451,0.28488 -0.78085,0.0442 -3.57283,-3.49053 z m -20.31774,-6.98118 c -0.76472,-0.83674 -1.68688,-1.84085 -2.04925,-2.23135 -0.36237,-0.3905 -0.59252,-0.81734 -0.51144,-0.94853 0.1918,-0.31034 -0.38101,-2.17793 -0.66799,-2.17793 -0.1211,0 -0.22019,0.10633 -0.22019,0.23628 0,0.48237 -0.88302,0.5587 -1.36957,0.11838 -1.562,-1.4136 -3.08643,-5.51597 -3.31711,-8.926668 -0.14011,-2.07159 -0.10217,-2.39603 0.3159,-2.70173 0.95294,-0.69681 1.36593,-0.0631 1.5368,2.35805 0.1765,2.50103 1.10423,5.476108 2.26324,7.257858 l 0.74914,1.15166 -0.10783,-2.19431 c -0.0593,-1.20687 -0.2243,-2.5515 -0.36665,-2.98806 -0.14234,-0.436558 -0.36887,-2.030148 -0.5034,-3.541298 -0.26408,-2.96631 -0.63057,-3.85197 -1.77386,-4.28664 -1.5683,-0.59627 -3.21554,0.58471 -3.7897,2.71699 -0.54136,2.01047 0.4412,6.934698 1.99592,10.002798 1.20939,2.3866 3.20947,4.63652 5.28602,5.94631 0.62084,0.3916 3.30567,1.59206 3.81583,1.70617 0.0575,0.0129 -0.52115,-0.66123 -1.28586,-1.49798 z m 11.77523,0.84919 c 2.92958,-0.75721 5.37062,-2.92349 3.92107,-3.47973 -0.3921,-0.15046 -0.38722,-0.20075 0.0506,-0.52086 0.67414,-0.49294 1.54105,-0.46554 1.34608,0.0426 -0.2583,0.6731 0.0255,0.44059 0.60327,-0.49425 0.58317,-0.9436 0.72802,-1.63092 0.28616,-1.35783 -0.15934,0.0985 -0.26459,-0.2524 -0.26459,-0.88212 0,-0.75051 -0.13068,-1.09673 -0.46302,-1.22664 -0.39618,-0.15488 -0.35461,-0.23834 0.28798,-0.57819 0.9237,-0.48851 1.09794,-0.33523 1.04027,0.9152 -0.0394,0.85381 -0.0165,0.894 0.17992,0.31654 0.39874,-1.17209 0.29155,-3.33923 -0.25223,-5.099808 -0.58474,-1.89315 -0.99333,-2.41373 -1.59554,-2.03286 -1.03938,0.65737 -1.91115,-0.16724 -1.79852,-1.70122 0.0782,-1.06537 0.0513,-1.10335 -1.29536,-1.82706 -2.8095,-1.50984 -6.06463,-1.50498 -9.05899,0.0135 l -1.44613,0.73336 0.0742,1.20625 c 0.094,1.52841 -0.37199,2.0135 -1.5423,1.60553 -0.73785,-0.25722 -0.83016,-0.21954 -1.19615,0.48821 -0.53147,1.02775 -0.49968,1.29981 0.13256,1.13447 0.48278,-0.12625 0.52917,-0.008 0.52917,1.347688 0,1.30968 -0.0628,1.48606 -0.52917,1.48606 -0.44517,0 -0.52916,-0.17638 -0.52916,-1.11125 0,-0.79504 -0.0812,-1.03001 -0.28548,-0.82577 -0.29259,0.29259 -0.40913,4.50562 -0.13229,4.78246 0.0842,0.0842 0.15318,-0.16013 0.15318,-0.54307 0,-0.91278 0.86967,-1.41493 1.75326,-1.01234 0.50463,0.22992 0.62799,0.48877 0.62799,1.31774 0,1.20057 -0.50466,1.74252 -1.45369,1.5611 -0.77998,-0.1491 -0.78252,-0.14044 -0.25701,0.8758 0.31809,0.6151 0.50424,0.73401 0.8599,0.54927 0.90642,-0.47083 1.50267,0.051 1.64455,1.43913 0.12387,1.21195 0.20808,1.33609 1.32292,1.95021 2.40688,1.32587 4.64444,1.6108 7.2866,0.92789 z m -7.62684,-1.60835 c -0.10391,-0.10391 -0.18893,-0.7087 -0.18893,-1.34398 0,-0.95043 0.10372,-1.19342 0.58545,-1.37162 1.31701,-0.4872 2.15159,0.56548 1.6306,2.05671 -0.17706,0.50677 -0.45365,0.71138 -1.03971,0.76913 -0.43916,0.0433 -0.8835,-0.006 -0.98741,-0.11024 z m 1.05653,-1.75129 c -0.0633,-0.32912 -0.11747,-0.12215 -0.1204,0.45993 -0.003,0.58209 0.0488,0.85137 0.11506,0.5984 0.0662,-0.25296 0.0686,-0.72921 0.005,-1.05833 z m 2.37051,1.73875 c -0.097,-0.097 -0.17639,-0.56334 -0.17639,-1.03628 0,-0.47294 -0.14882,-0.91305 -0.33072,-0.97802 -0.44961,-0.16057 -0.21005,-0.37574 0.662,-0.59461 l 0.72706,-0.18248 v 1.48389 c 0,1.06019 -0.10073,1.48389 -0.35278,1.48389 -0.19403,0 -0.43215,-0.0794 -0.52917,-0.17639 z m 2.00513,-0.12918 c -0.35856,-0.35856 -0.41446,-1.06979 -0.15903,-2.02345 0.13795,-0.51505 0.31122,-0.59685 1.12087,-0.52916 l 0.95769,0.0801 v 1.32291 c 0,1.27668 -0.0278,1.32565 -0.79506,1.40099 -0.43727,0.0429 -0.94329,-0.0702 -1.12447,-0.25135 z m 0.91603,-1.60957 c -0.0633,-0.32912 -0.11747,-0.12215 -0.12041,0.45993 -0.003,0.58209 0.0488,0.85137 0.11507,0.5984 0.0662,-0.25296 0.0686,-0.72921 0.005,-1.05833 z m 2.24704,1.59764 c -0.17463,-0.17462 -0.3175,-0.77377 -0.3175,-1.33144 0,-0.80944 0.12007,-1.05865 0.59531,-1.23559 1.00683,-0.37485 1.64361,0.0452 1.73687,1.1457 0.0458,0.54011 -0.0581,1.1523 -0.23084,1.36042 -0.38249,0.46088 -1.35081,0.49394 -1.78384,0.0609 z m 0.92756,-1.86531 c -0.0631,-0.32742 -0.11467,-0.0595 -0.11467,0.59531 0,0.65485 0.0516,0.92274 0.11467,0.59531 0.0631,-0.32742 0.0631,-0.8632 0,-1.19062 z m -9.97631,-3.06115 c 0,-0.75372 -0.13047,-1.10072 -0.46302,-1.23146 -0.38678,-0.15205 -0.33232,-0.23821 0.33073,-0.52319 1.04186,-0.4478 1.2393,-0.21636 1.14048,1.33692 -0.0623,0.97967 -0.19389,1.31253 -0.54517,1.37923 -0.37793,0.0718 -0.46302,-0.10494 -0.46302,-0.9615 z m 2.18281,0.8354 c -0.20077,-0.081 -0.33073,-0.63762 -0.33073,-1.41649 0,-1.05067 0.0958,-1.31346 0.52917,-1.45099 0.65989,-0.20944 1.57861,0.0642 1.61431,0.48085 0.082,0.95756 -0.11828,2.19038 -0.38336,2.35937 -0.34085,0.2173 -0.93055,0.22854 -1.42939,0.0273 z m 0.92485,-2.00758 c -0.0915,-0.52275 -0.12942,-0.5388 -0.31152,-0.1317 -0.11406,0.25498 -0.11353,0.79076 10e-4,1.19062 0.19614,0.68375 0.21467,0.69159 0.31152,0.1317 0.0566,-0.32742 0.0561,-0.8632 -10e-4,-1.19062 z m 2.3163,1.96232 c -0.0728,-0.0728 -0.1323,-0.52916 -0.1323,-1.01424 0,-0.48506 -0.11906,-0.88194 -0.26458,-0.88194 -0.492,0 -0.26857,-0.44241 0.37048,-0.73358 0.84132,-0.38333 0.95244,-0.22058 0.95244,1.39504 0,1.03874 -0.0953,1.36701 -0.39688,1.36701 -0.21828,0 -0.4564,-0.0595 -0.52916,-0.13229 z m 2.03729,-0.097 c -0.17463,-0.17463 -0.3175,-0.77249 -0.3175,-1.32859 0,-0.82986 0.12224,-1.06679 0.682,-1.32183 0.48257,-0.21987 0.8114,-0.22972 1.12448,-0.0337 0.5373,0.33644 0.73476,2.09314 0.29486,2.62319 -0.38249,0.46088 -1.35081,0.49394 -1.78384,0.0609 z m 0.92756,-1.86531 c -0.0631,-0.32743 -0.11467,-0.0595 -0.11467,0.59531 0,0.65484 0.0516,0.92273 0.11467,0.59531 0.0631,-0.32742 0.0631,-0.8632 0,-1.19062 z m 2.24744,1.86531 c -0.17463,-0.17463 -0.3175,-0.74613 -0.3175,-1.27 0,-1.09684 0.38147,-1.5875 1.23423,-1.5875 0.6954,0 1.14702,0.70155 1.14702,1.78177 0,0.89761 -0.42355,1.39323 -1.19063,1.39323 -0.30559,0 -0.6985,-0.14288 -0.87312,-0.3175 z m 0.92756,-1.86531 c -0.0631,-0.32743 -0.11467,-0.0595 -0.11467,0.59531 0,0.65484 0.0516,0.92273 0.11467,0.59531 0.0631,-0.32742 0.0631,-0.8632 0,-1.19062 z m -13.04495,-2.41958 c -0.0779,-0.20297 -0.10392,-0.82805 -0.0578,-1.38906 0.0778,-0.946798 0.14824,-1.026168 0.98207,-1.105778 0.54024,-0.0516 0.98683,0.0539 1.12042,0.26458 0.261,0.411648 0.29845,1.584528 0.0696,2.180798 -0.20491,0.53399 -1.91303,0.57395 -2.11429,0.0495 z m 1.1391,-1.54609 c -0.0633,-0.32912 -0.11747,-0.12215 -0.12041,0.45994 -0.003,0.58208 0.0489,0.85136 0.11507,0.59839 0.0662,-0.25296 0.0686,-0.72921 0.005,-1.05833 z m 2.45871,1.00225 c 0,-0.59432 -0.16159,-1.00332 -0.46303,-1.17202 -0.4097,-0.229288 -0.37725,-0.291728 0.28181,-0.542308 0.40966,-0.15576 0.78559,-0.28319 0.83541,-0.28319 0.0498,0 0.13137,0.654998 0.18121,1.455568 0.0775,1.2445 0.0235,1.45551 -0.37238,1.4552 -0.35144,-2.6e-4 -0.46302,-0.22035 -0.46302,-0.91325 z m 1.96492,0.56074 c -0.0815,-0.21227 -0.1104,-0.84495 -0.0643,-1.40596 0.0799,-0.973378 0.12611,-1.020008 1.00982,-1.020008 h 0.92604 v 1.322918 c 0,1.2997 -0.0151,1.32437 -0.86171,1.40596 -0.5704,0.055 -0.91178,-0.0474 -1.00982,-0.30291 z m 1.21007,-1.10305 c 0,-0.50933 -0.11906,-0.926048 -0.26458,-0.926048 -0.14552,0 -0.26458,0.416718 -0.26458,0.926048 0,0.50932 0.11906,0.92604 0.26458,0.92604 0.14552,0 0.26458,-0.41672 0.26458,-0.92604 z m 2.11667,0.41892 c 0,-0.58964 -0.14254,-1.0872 -0.33073,-1.1544 -0.4496,-0.160578 -0.21005,-0.375748 0.662,-0.594618 l 0.72706,-0.18248 v 1.483888 c 0,1.3075 -0.0629,1.48389 -0.52916,1.48389 -0.4391,0 -0.52917,-0.17639 -0.52917,-1.03628 z m 2.13199,0.65787 c -0.17273,-0.20812 -0.2766,-0.8332 -0.23083,-1.38906 0.0814,-0.988828 0.10606,-1.010648 1.14155,-1.010648 1.03549,0 1.06013,0.0218 1.14155,1.010648 0.0961,1.16692 -0.2918,1.76747 -1.14155,1.76747 -0.32817,0 -0.73799,-0.17028 -0.91072,-0.37841 z m 0.96556,-1.53673 c -0.0633,-0.32912 -0.11747,-0.12215 -0.12041,0.45994 -0.003,0.58208 0.0489,0.85136 0.11507,0.59839 0.0662,-0.25296 0.0686,-0.72921 0.005,-1.05833 z m 2.03589,1.54609 c -0.0779,-0.20297 -0.10392,-0.82805 -0.0578,-1.38906 0.0798,-0.971918 0.12713,-1.020008 1.00345,-1.020008 0.76154,0 0.96302,0.12327 1.1718,0.716938 0.38834,1.10425 -0.15395,2.06118 -1.16806,2.06118 -0.44684,0 -0.87101,-0.16489 -0.94935,-0.36905 z m 1.13911,-1.54609 c -0.0633,-0.32912 -0.11747,-0.12215 -0.12041,0.45994 -0.003,0.58208 0.0489,0.85136 0.11507,0.59839 0.0662,-0.25296 0.0686,-0.72921 0.005,-1.05833 z m -12.68869,-2.603968 c -0.31073,-0.18098 -0.46302,-0.59606 -0.46302,-1.26195 0,-1.11754 0.37295,-1.62727 1.19062,-1.62727 0.81839,0 1.19063,0.50995 1.19063,1.63111 0,1.31123 -0.85935,1.87486 -1.91823,1.25811 z m 0.78203,-1.89703 c -0.0631,-0.32742 -0.11466,-0.0595 -0.11466,0.59531 0,0.65484 0.0516,0.92274 0.11466,0.59531 0.0631,-0.32742 0.0631,-0.8632 0,-1.19062 z m 4.77422,1.89703 c -0.6217,-0.3621 -0.65646,-2.49379 -0.0445,-2.72862 0.86565,-0.33218 1.44881,-0.15495 1.7047,0.51808 0.36811,0.96821 0.32,1.60281 -0.15774,2.08055 -0.47833,0.47833 -0.8493,0.51042 -1.50245,0.12999 z m 0.85185,-1.36786 c -0.007,-0.92095 -0.0588,-1.03721 -0.28846,-0.6423 -0.25667,0.44136 -0.1297,1.76677 0.16925,1.76677 0.07,0 0.12363,-0.50601 0.11921,-1.12447 z m 2.28287,1.45902 c -0.087,-0.087 -0.15816,-0.55503 -0.15816,-1.0401 0,-0.48507 -0.11906,-0.88195 -0.26459,-0.88195 -0.50423,0 -0.26141,-0.44567 0.40933,-0.75127 0.37065,-0.16889 0.72784,-0.30706 0.79375,-0.30706 0.0659,0 0.11984,0.64211 0.11984,1.4269 0,0.98007 -0.11618,1.47149 -0.37101,1.56927 -0.20405,0.0783 -0.44217,0.0712 -0.52916,-0.0158 z m -5.44983,-0.97396 c 0,-0.49719 -0.14883,-0.95978 -0.33073,-1.02797 -0.2291,-0.0859 -0.16812,-0.25251 0.19844,-0.54225 0.80271,-0.63451 1.05066,-0.39361 1.13831,1.10595 0.0719,1.22947 0.0249,1.36827 -0.46302,1.36827 -0.44166,0 -0.543,-0.16872 -0.543,-0.904 z m -5.90468,11.702308 c -0.0845,-0.21107 -0.14715,-0.14838 -0.15985,0.15985 -0.0115,0.27891 0.0511,0.43518 0.13897,0.34726 0.0879,-0.0879 0.0973,-0.31612 0.0209,-0.50711 z m -0.78776,-4.24987 c -0.0631,-0.32743 -0.11466,-0.0595 -0.11466,0.59531 0,0.65484 0.0516,0.92273 0.11466,0.59531 0.0631,-0.32742 0.0631,-0.8632 0,-1.19062 z m 15.07691,-8.069798 c -0.0666,-0.25466 -0.121,-0.0463 -0.121,0.46302 0,0.50933 0.0544,0.71769 0.121,0.46303 0.0666,-0.25467 0.0666,-0.67139 0,-0.92605 z m -13.87749,0.33874 c 0.0687,-0.3594 0.023,-0.5905 -0.10145,-0.51355 -0.21922,0.13549 -0.32964,1.167 -0.12491,1.167 0.0558,0 0.15765,-0.29405 0.22636,-0.65345 z M 277.6548,120.5539 c -1.23705,-0.65348 -3.46259,-0.90785 -4.9492,-0.56569 -1.27015,0.29234 -1.76951,0.19846 -1.98918,-0.37399 -0.26323,-0.68596 0.14472,-1.16085 1.25522,-1.4612 2.71245,-0.73363 7.80833,0.51808 7.84009,1.92578 0.005,0.23717 -0.77774,1.01432 -1.00703,0.99939 -0.0987,-0.006 -0.6162,-0.24236 -1.1499,-0.52429 z m 3.79852,-1.86203 c -1.01676,-0.50809 -2.35855,-1.5447 -3.59598,-2.77813 -1.08571,-1.08218 -2.19954,-1.96761 -2.4752,-1.96761 -0.27566,0 -0.78712,0.30435 -1.13657,0.67633 -1.06563,1.13431 -2.88994,2.20069 -4.06674,2.37716 -1.40204,0.21025 -3.09961,-0.23484 -4.05101,-1.06214 -0.60641,-0.52731 -0.68054,-0.71846 -0.43258,-1.11542 0.35036,-0.56089 0.86082,-0.5528 2.4523,0.0389 1.56958,0.58354 2.37562,0.35514 4.338,-1.22923 2.91221,-2.35124 3.32548,-2.29832 6.68146,0.8555 1.79823,1.6899 2.84913,2.46227 3.8667,2.84186 1.61022,0.60066 2.08145,1.12956 1.56299,1.75426 -0.51241,0.61741 -1.32758,0.51589 -3.14337,-0.39146 z m -16.25722,-6.89498 c -0.74199,-0.41524 -0.54212,-1.01915 0.72906,-2.20294 1.45738,-1.35717 1.49628,-1.85278 0.3845,-4.89911 -3.10705,-8.513538 -1.57413,-15.465138 4.32358,-19.606948 2.60292,-1.82796 3.95026,-2.2303 7.46868,-2.2303 2.75105,0 3.01456,0.0484 4.64945,0.85339 2.11452,1.04119 2.85129,1.76422 2.44889,2.40324 -0.44651,0.70907 -0.99902,0.66464 -2.34429,-0.1885 -3.82513,-2.42583 -9.25791,-1.47541 -12.82994,2.24449 -3.84763,4.00691 -4.45869,9.26807 -1.85931,16.008478 0.9973,2.58609 1.04314,4.14865 0.16564,5.646 -0.76302,1.30199 -2.44447,2.35935 -3.13626,1.9722 z m -0.54976,-30.835478 c -1.12854,-1.12854 2.88265,-4.29027 7.32779,-5.77596 3.04429,-1.01748 6.70851,-1.18249 9.69374,-0.43654 2.68035,0.66977 5.40297,1.98921 7.49856,3.63396 1.27352,0.99955 1.51552,1.31881 1.44711,1.90919 -0.12708,1.09686 -0.85045,1.00329 -2.47511,-0.32015 -2.85944,-2.32929 -6.94149,-3.84531 -10.38432,-3.8566 -3.57026,-0.0117 -7.88051,1.53571 -10.63645,3.81861 -1.37493,1.13893 -2.07063,1.42818 -2.47132,1.02749 z"
       id="path1427"
       inkscape:connector-curvature="0" />
  </g>
</svg>
