<?xml version="1.0" encoding="UTF-8" standalone="no"?>
<!-- Created with Inkscape (http://www.inkscape.org/) -->

<svg
   xmlns:dc="http://purl.org/dc/elements/1.1/"
   xmlns:cc="http://creativecommons.org/ns#"
   xmlns:rdf="http://www.w3.org/1999/02/22-rdf-syntax-ns#"
   xmlns:svg="http://www.w3.org/2000/svg"
   xmlns="http://www.w3.org/2000/svg"
   xmlns:sodipodi="http://sodipodi.sourceforge.net/DTD/sodipodi-0.dtd"
   xmlns:inkscape="http://www.inkscape.org/namespaces/inkscape"
   width="151.18111"
   height="151.18111"
   viewBox="0 0 40 40"
   version="1.1"
   id="svg8"
   inkscape:version="0.92.5 (2060ec1f9f, 2020-04-08)"
   sodipodi:docname="icon2_w.svg">
  <defs
     id="defs2" />
  <sodipodi:namedview
     id="base"
     pagecolor="#ffffff"
     bordercolor="#666666"
     borderopacity="1.0"
     inkscape:pageopacity="0.0"
     inkscape:pageshadow="2"
     inkscape:zoom="3.959798"
     inkscape:cx="-23.877501"
     inkscape:cy="79.865182"
     inkscape:document-units="mm"
     inkscape:current-layer="layer1"
     showgrid="false"
     units="px"
     inkscape:window-width="1920"
     inkscape:window-height="997"
     inkscape:window-x="1280"
     inkscape:window-y="28"
     inkscape:window-maximized="1" />
  <metadata
     id="metadata5">
    <rdf:RDF>
      <cc:Work
         rdf:about="">
        <dc:format>image/svg+xml</dc:format>
        <dc:type
           rdf:resource="http://purl.org/dc/dcmitype/StillImage" />
        <dc:title></dc:title>
      </cc:Work>
    </rdf:RDF>
  </metadata>
  <g
     inkscape:label="Vrstva 1"
     inkscape:groupmode="layer"
     id="layer1"
     transform="translate(0,-257)">
    <path
       style="fill:#4682b4;fill-opacity:1;stroke-width:0.10270185"
       d="m 21.363406,185.31281 c -0.199954,-0.10086 -0.517525,-0.35923 -0.705709,-0.57415 -0.678563,-0.77495 -0.372088,-1.87226 0.638942,-2.28771 0.411658,-0.16915 0.900482,-0.17808 11.270051,-0.20582 7.548091,-0.0202 11.013906,0.002 11.41332,0.0732 1.409411,0.25112 2.102932,1.74576 1.215086,2.61868 -0.604934,0.59476 0.154986,0.55991 -12.19937,0.55953 -10.999173,-3.6e-4 -11.277461,-0.004 -11.63232,-0.18374 z m 1.900306,-3.51841 c -0.233805,-0.13548 -0.257959,-0.2097 -0.213285,-0.65536 0.03597,-0.35911 0.0051,-0.53371 -0.108462,-0.61163 -0.262822,-0.18045 -0.593979,-0.79557 -0.593979,-1.10331 0,-0.39826 0.280693,-0.81017 0.66378,-0.97406 0.23879,-0.10216 0.33939,-0.22841 0.392044,-0.492 0.103059,-0.51596 0.08893,-0.86835 -0.03482,-0.86835 -0.05948,0 -0.237322,-0.18236 -0.395198,-0.40522 -0.515651,-0.72793 -0.315757,-1.43958 0.50272,-1.78973 0.282188,-0.12073 0.322567,-0.19514 0.357003,-0.65789 0.03351,-0.45023 0.0025,-0.54979 -0.225958,-0.72609 -0.843223,-0.65067 -0.741369,-1.79386 0.18821,-2.1124 0.307763,-0.10547 0.353649,-0.1734 0.421764,-0.62442 0.07121,-0.47151 0.0561,-0.5193 -0.221322,-0.69982 -0.953576,-0.62055 -0.824673,-1.83235 0.233835,-2.19824 0.338617,-0.11704 0.376236,-0.1679 0.376236,-0.50859 0,-0.75051 -0.03316,-0.73991 2.316104,-0.73991 2.070862,0 2.083306,0.001 2.25911,0.2232 0.159801,0.20177 0.162717,0.92902 0.03039,7.57014 -0.126145,6.32984 -0.169798,7.35915 -0.31532,7.43526 -0.09329,0.0488 -1.33292,0.089 -2.76903,0.0898 -2.226134,10e-4 -2.638044,-0.0206 -2.863783,-0.15135 z m 3.711493,-1.03838 c 0.564609,-0.23469 0.90556,-0.7011 0.90556,-1.23881 0,-1.30269 -2.183534,-1.68621 -3.055991,-0.53676 -0.293778,0.38706 -0.254832,1.17935 0.07292,1.48344 0.48536,0.45031 1.390673,0.57761 2.077509,0.29213 z m -1.420465,-0.52765 c -0.628905,-0.52029 -0.509881,-1.25176 0.246212,-1.51311 0.754303,-0.26074 1.515243,0.25338 1.515243,1.02376 0,0.24632 -0.0827,0.38086 -0.347405,0.56513 -0.492392,0.34276 -0.936936,0.31894 -1.41405,-0.0758 z m 1.772987,-3.07049 c 0.46041,-0.25445 0.779064,-0.74212 0.777029,-1.18916 -0.0059,-1.29613 -2.202864,-1.68397 -3.047444,-0.53798 -0.275974,0.37447 -0.297543,1.06488 -0.04268,1.36592 0.49334,0.5827 1.599718,0.75547 2.313083,0.36122 z m -1.44081,-0.29922 c -0.130614,-0.0757 -0.319883,-0.30799 -0.420598,-0.51623 -0.161136,-0.33317 -0.163902,-0.41668 -0.02304,-0.69559 0.380064,-0.75254 1.629168,-0.68772 1.992743,0.1034 0.175173,0.38117 0.121823,0.65565 -0.186328,0.95862 -0.229133,0.22528 -0.382353,0.28741 -0.708817,0.28741 -0.229072,0 -0.523357,-0.0619 -0.653967,-0.13761 z m 1.655168,-3.24863 c 1.024857,-0.57874 1.029402,-1.72868 0.0087,-2.20327 -0.996308,-0.46325 -2.178657,-0.05 -2.47884,0.86644 -0.283362,0.86507 0.385959,1.54518 1.521837,1.5464 0.412776,3.5e-4 0.681619,-0.059 0.948297,-0.20957 z m -1.500996,-0.35175 c -0.408713,-0.26598 -0.593581,-0.77002 -0.413987,-1.12872 0.373219,-0.74542 1.503349,-0.73955 1.972023,0.0103 0.244752,0.39156 0.208182,0.69315 -0.123594,1.01935 -0.358108,0.35209 -0.979707,0.39504 -1.434442,0.0991 z m 1.505237,-3.10454 c 0.6375,-0.26596 1.078109,-0.91657 0.963374,-1.42253 -0.228547,-1.00788 -1.746391,-1.39574 -2.713357,-0.69336 -0.922099,0.6698 -0.765111,1.73937 0.314833,2.14501 0.611101,0.22954 0.825543,0.22519 1.43515,-0.0291 z m -0.976702,-0.25302 c -0.295284,-0.1012 -0.703865,-0.52104 -0.793007,-0.81488 -0.138987,-0.45812 0.439347,-1.05726 1.020547,-1.05726 0.36474,0 0.772779,0.23955 0.979745,0.57517 0.292387,0.47414 0.273341,0.67895 -0.09374,1.00805 -0.343595,0.30804 -0.750037,0.41349 -1.113545,0.28892 z m 3.300313,11.9039 c -0.224783,-0.18596 -0.208323,0.0237 -0.190527,-2.42631 0.04041,-5.5632 0.25303,-12.60968 0.382552,-12.67782 0.07344,-0.0386 1.364539,-0.0709 2.869097,-0.0717 2.718207,-0.001 2.736617,-9e-5 2.903063,0.21006 0.141436,0.17859 0.188525,1.35615 0.302577,7.56742 0.07429,4.04576 0.09756,7.38703 0.05171,7.42506 -0.04586,0.038 -1.445197,0.0815 -3.109645,0.0967 -2.665408,0.0243 -3.048036,0.01 -3.20882,-0.12344 z m 3.761589,-1.02175 c 1.146516,-0.49049 1.324202,-1.76327 0.317985,-2.27774 -0.516898,-0.26429 -1.358333,-0.26968 -1.869268,-0.012 -0.390086,0.19675 -0.805209,0.81103 -0.809583,1.19798 -0.0099,0.87242 1.375749,1.51316 2.360866,1.09172 z m -1.20973,-0.38268 c -0.314864,-0.18245 -0.589044,-0.61178 -0.589044,-0.92235 0,-0.13018 0.141453,-0.36767 0.314347,-0.52776 0.592771,-0.54885 1.532455,-0.32017 1.838686,0.44747 0.316474,0.79331 -0.747788,1.4756 -1.563989,1.00264 z m 1.283416,-3.18033 c 0.783412,-0.30755 1.148375,-1.33376 0.682949,-1.92034 -0.413002,-0.52051 -1.469722,-0.69903 -2.218431,-0.37479 -0.429805,0.18613 -0.901669,0.8286 -0.901374,1.22726 8.41e-4,0.91101 1.340661,1.49822 2.436856,1.06787 z m -1.283416,-0.36938 c -0.318026,-0.18429 -0.589044,-0.61264 -0.589044,-0.93101 0,-0.3655 0.564446,-0.79147 1.048768,-0.79147 1.033005,0 1.578525,1.16744 0.786392,1.68292 -0.341562,0.22227 -0.900192,0.24 -1.246116,0.0396 z m 1.422855,-3.21993 c 0.497169,-0.25077 0.86026,-0.91598 0.755743,-1.38458 -0.27439,-1.23022 -2.430775,-1.40192 -3.106376,-0.24734 -0.268283,0.45849 -0.281342,0.69013 -0.06327,1.12194 0.33342,0.66016 1.58986,0.92561 2.413897,0.50998 z M 32.3182,173.23638 c -0.383965,-0.34876 -0.510807,-0.62956 -0.43513,-0.96328 0.125682,-0.55424 0.930058,-0.86724 1.53753,-0.59828 0.33208,0.14703 0.702265,0.81282 0.614562,1.1053 -0.127965,0.42675 -0.493665,0.66644 -1.016818,0.66644 -0.342267,0 -0.531181,-0.0567 -0.700144,-0.21018 z m 1.325477,-3.08264 c 0.637495,-0.26596 1.078105,-0.91657 0.96337,-1.42253 -0.228547,-1.00788 -1.746391,-1.39574 -2.713358,-0.69336 -1.15278,0.83736 -0.528621,2.26109 1.016045,2.31764 0.126572,0.004 0.456847,-0.0862 0.733943,-0.20175 z m -1.08102,-0.29221 c -0.419079,-0.15363 -0.793259,-0.7707 -0.684571,-1.12894 0.160304,-0.52841 0.830955,-0.81332 1.430685,-0.60781 0.434853,0.14902 0.824546,0.74623 0.726903,1.11401 -0.144272,0.54342 -0.861853,0.84679 -1.473017,0.62274 z m 4.481796,11.89299 c -0.205271,-0.18228 -0.22125,-0.43268 -0.296543,-4.64732 -0.04377,-2.45006 -0.08785,-5.79981 -0.09796,-7.44388 l -0.01835,-2.98924 2.168324,-0.0253 c 2.449108,-0.0286 2.314465,-0.0692 2.461412,0.74156 0.06394,0.35279 0.129723,0.44648 0.344811,0.49115 0.37485,0.0778 0.849787,0.63227 0.921731,1.07602 0.07603,0.469 -0.125272,0.88611 -0.547782,1.13501 -0.285482,0.16817 -0.323831,0.24834 -0.323831,0.67693 0,0.4638 0.01899,0.49464 0.412963,0.67016 0.447451,0.19936 0.822309,0.74095 0.826611,1.19428 0.003,0.3331 -0.231437,0.70644 -0.617344,0.98245 -0.280211,0.20043 -0.296744,0.25227 -0.223448,0.70061 0.04354,0.26629 0.125929,0.49869 0.183099,0.51645 0.319421,0.0992 0.785982,0.54213 0.89857,0.85301 0.177152,0.48917 0.04993,0.94519 -0.352718,1.26433 -0.288226,0.22845 -0.337086,0.33622 -0.335609,0.74031 0.0022,0.52894 0.04089,0.59742 0.467026,0.82153 0.393968,0.20717 0.711171,0.89278 0.613113,1.32519 -0.04084,0.18004 -0.229058,0.45544 -0.418301,0.612 -0.315623,0.26112 -0.340944,0.32852 -0.306218,0.81536 0.03551,0.49798 0.02044,0.5348 -0.244432,0.5971 -0.155259,0.0365 -1.410854,0.0706 -2.790218,0.0757 -2.395447,0.009 -2.517668,6.4e-4 -2.724894,-0.18335 z m 3.326679,-0.98652 c 0.52658,-0.20673 0.860648,-0.62575 0.912657,-1.14473 0.08039,-0.80227 -0.556218,-1.31921 -1.624597,-1.31921 -0.550474,0 -0.653388,0.0345 -1.075855,0.3605 -0.426945,0.32947 -0.471256,0.40787 -0.514772,0.91079 -0.04032,0.46625 -0.0086,0.59118 0.207896,0.81816 0.48061,0.50389 1.363151,0.66167 2.094671,0.37449 z m -1.151538,-0.32894 c -0.51193,-0.2055 -0.775715,-0.9601 -0.490012,-1.40174 0.0671,-0.10373 0.29575,-0.24866 0.508111,-0.32206 1.085458,-0.37521 2.026539,0.86162 1.185192,1.55767 -0.346134,0.28636 -0.761094,0.34365 -1.203291,0.16613 z m 1.054496,-3.25546 c 0.518831,-0.2617 0.816667,-0.70841 0.81717,-1.22563 0.0013,-1.29214 -2.204074,-1.6735 -3.04886,-0.52723 -0.275974,0.37447 -0.297543,1.06488 -0.04268,1.36592 0.476765,0.56312 1.55979,0.74738 2.274358,0.38694 z m -1.332949,-0.30707 c -0.920963,-0.6004 -0.62821,-1.75191 0.444006,-1.74646 0.989804,0.005 1.550926,1.0945 0.843195,1.63713 -0.329306,0.25248 -0.982519,0.30797 -1.287201,0.10933 z m 1.122056,-3.2053 c 0.818152,-0.39983 1.085364,-1.427 0.516681,-1.98612 -0.751834,-0.7392 -2.303724,-0.57187 -2.805232,0.30247 -0.53422,0.93136 0.166586,1.83263 1.42501,1.83263 0.308672,0 0.695104,-0.0667 0.863541,-0.14898 z m -1.361059,-0.34144 c -0.627693,-0.42018 -0.721315,-1.06053 -0.216159,-1.47845 0.593198,-0.49075 1.412169,-0.30872 1.749553,0.38886 0.157249,0.32513 0.159592,0.40941 0.01912,0.68752 -0.08805,0.17434 -0.262671,0.36239 -0.388049,0.4179 -0.308023,0.13638 -0.950136,0.12765 -1.164477,-0.0158 z m 0.99755,-3.14693 c 1.436152,-0.53944 1.257437,-2.25417 -0.259471,-2.4896 -1.152344,-0.17884 -2.30547,0.77627 -2.030691,1.682 0.10521,0.34679 0.610976,0.79062 1.009814,0.88615 0.538983,0.1291 0.764359,0.11527 1.280348,-0.0786 z m -1.010443,-0.30006 c -0.343905,-0.10596 -0.759148,-0.67695 -0.759148,-1.04389 0,-0.57786 0.888696,-0.9663 1.55682,-0.68047 0.431861,0.18475 0.767146,0.83662 0.607755,1.1816 -0.22469,0.4863 -0.829982,0.72005 -1.405427,0.54276 z M 24.855416,165.862 c -0.09249,-0.0765 -0.136235,-0.50519 -0.136235,-1.33502 v -1.22232 l -1.083691,-0.44817 -1.083691,-0.44817 -0.243049,0.18401 c -0.711957,0.53903 -1.98137,0.74147 -2.823672,0.45032 -0.876234,-0.30289 -1.627321,-1.15621 -1.738965,-1.97567 -0.108752,-0.7982 0.541439,-1.76167 1.451622,-2.15106 0.186751,-0.0799 0.584228,-0.16924 0.88328,-0.19854 1.473191,-0.14435 2.737009,0.77573 3.032499,2.20772 0.08146,0.39475 0.122949,0.43198 0.828766,0.74368 l 0.743012,0.32812 0.364351,-0.25363 0.364347,-0.25363 h 7.491442 7.491442 l 0.328597,0.22874 0.328597,0.22875 0.950346,-0.41285 c 0.522693,-0.22706 1.0568,-0.41407 1.186903,-0.41557 0.442111,-0.005 0.825019,0.59949 0.599987,0.94735 -0.06139,0.0949 -0.52879,0.34556 -1.038655,0.55701 -1.648129,0.68353 -1.536758,0.54026 -1.57313,2.02378 l -0.03137,1.27992 -8.078243,0.024 c -6.189369,0.0184 -8.1101,-0.003 -8.21448,-0.0887 z m 3.443746,-1.42532 c 0.806814,-0.77367 0.04772,-1.88147 -1.157679,-1.68948 l -0.44631,0.0711 0.577262,0.2278 c 0.845222,0.33355 1.053912,0.79241 0.549992,1.20929 -0.320446,0.26511 -0.51335,0.24644 -1.209696,-0.11711 -0.561945,-0.29337 -0.666177,-0.2826 -0.524263,0.0542 0.280958,0.66676 1.616211,0.81427 2.210694,0.24422 z m 11.05365,0.005 c 0.482543,-0.39921 0.507132,-0.58063 0.05233,-0.38606 -0.182367,0.078 -0.363207,0.18419 -0.401863,0.23593 -0.03866,0.0518 -0.241658,0.0941 -0.451125,0.0941 -0.291498,0 -0.435629,-0.0636 -0.614365,-0.27131 -0.422729,-0.49114 -0.263768,-0.83678 0.495098,-1.07654 0.601619,-0.19008 0.665141,-0.33416 0.146469,-0.33221 -0.502839,0.002 -0.877007,0.17625 -1.182205,0.55092 -0.601874,0.73888 -0.05929,1.4918 1.080585,1.49948 0.410813,0.003 0.553987,-0.0487 0.875081,-0.31429 z m -13.931064,-3.71595 c -0.145981,-0.12077 -0.203582,-2.44229 -0.06786,-2.7349 0.156941,-0.33835 0.644858,-0.42454 2.40324,-0.42454 h 1.694197 l 0.06687,0.3036 c 0.03678,0.16697 0.05178,0.89209 0.03333,1.61137 l -0.03351,1.3078 -1.979135,0.0254 c -1.444034,0.0185 -2.016444,-0.006 -2.117135,-0.0887 z m 5.014052,-0.0636 c -0.16374,-0.14969 -0.185594,-0.37166 -0.158644,-1.61139 l 0.03123,-1.43779 2.571522,-0.0251 c 2.369896,-0.0232 2.577938,-0.0122 2.653474,0.14011 0.103095,0.20785 0.100061,2.72367 -0.0034,2.94429 -0.06979,0.14861 -0.296232,0.16347 -2.490466,0.16347 -2.20897,0 -2.429798,-0.0148 -2.603587,-0.17359 z m 6.048999,0.0615 c -0.09431,-0.078 -0.135497,-0.57502 -0.135497,-1.63474 v -1.52263 h 1.688395 c 1.882002,0 2.165342,0.0604 2.427519,0.51748 0.256068,0.44642 0.253017,2.61375 -0.0039,2.69529 -0.350755,0.11135 -3.833713,0.0628 -3.976623,-0.0554 z M 26.054511,156.8423 c -0.22816,-0.0186 -0.462242,-0.084 -0.520187,-0.14532 -0.06889,-0.0729 0.04182,-0.47953 0.319695,-1.17441 l 0.425046,-1.06287 -0.214952,-0.29163 c -0.256326,-0.34776 -0.27279,-0.55657 -0.05565,-0.70566 0.133308,-0.0915 0.07702,-0.17336 -0.335877,-0.48822 -0.737879,-0.56269 -1.179239,-1.16099 -1.179239,-1.59857 0,-0.29152 0.07757,-0.43115 0.377253,-0.67908 0.770571,-0.63749 1.309118,-0.55412 2.413579,0.37362 0.666844,0.56015 0.838542,0.66083 0.945365,0.55435 0.07179,-0.0716 0.275431,-0.13012 0.452541,-0.13012 0.245474,0 0.364779,0.0684 0.501918,0.28782 0.09895,0.1583 0.23998,0.26576 0.313414,0.23881 1.55524,-0.57078 2.779523,-0.77372 4.029037,-0.66789 0.868236,0.0735 1.807362,0.28132 2.410362,0.53328 0.465827,0.19465 0.492457,0.18947 0.685976,-0.13348 0.07852,-0.13102 0.250982,-0.22363 0.452101,-0.24276 0.283059,-0.027 0.489789,0.10487 1.596377,1.01774 0.708555,0.58453 1.294024,1.14743 1.322758,1.27179 0.03132,0.13547 -0.03751,0.31675 -0.175198,0.46157 l -0.226747,0.23847 0.419331,1.12163 c 0.23063,0.6169 0.385976,1.14923 0.345211,1.18297 -0.07607,0.063 -13.555621,0.0987 -14.302118,0.038 z m 8.292617,-1.01547 c 0.622713,-0.36207 1.098866,-1.11193 1.098866,-1.73052 0,-0.60844 -0.206598,-0.98771 -0.765143,-1.40468 -0.999662,-0.74625 -2.504631,-0.71411 -3.457057,0.0738 -1.005782,0.83209 -0.974057,2.3073 0.0637,2.96214 0.593986,0.37482 0.876942,0.43958 1.766023,0.40422 0.69244,-0.0275 0.901041,-0.0767 1.29361,-0.30499 z m -1.988744,0.0194 c -1.732151,-0.5278 -1.995044,-2.56303 -0.417091,-3.22901 1.50094,-0.63348 3.156392,0.34097 3.03025,1.78369 -0.09734,1.11331 -1.378054,1.82165 -2.613159,1.44532 z m 1.087644,-0.90348 c 0.335096,-0.12631 0.645001,-0.54803 0.645001,-0.87771 0,-0.35683 -0.56172,-0.79577 -1.018345,-0.79577 -0.908933,0 -1.528108,0.78119 -1.119637,1.41261 0.214199,0.33112 0.960617,0.46155 1.492981,0.26087 z M 27.669272,151.981 c -0.05716,-0.0158 -0.380906,-0.2578 -0.71943,-0.53786 -0.689017,-0.57002 -1.140552,-0.66374 -1.553178,-0.32238 -0.388186,0.32115 -0.28855,0.62931 0.395197,1.22235 0.341562,0.29625 0.621027,0.59299 0.621027,0.65941 0,0.0664 0.306069,-0.12979 0.680155,-0.43604 0.374085,-0.30625 0.633384,-0.56971 0.576229,-0.58548 z m 11.934292,1.05528 c -0.117974,-0.2142 -0.07682,-0.27764 0.510534,-0.78707 0.684652,-0.59383 0.79474,-0.88936 0.432355,-1.16067 -0.385535,-0.28866 -0.777306,-0.19343 -1.477582,0.35916 -0.358091,0.28258 -0.70821,0.51378 -0.778042,0.51378 -0.06982,0 -0.186016,-0.0913 -0.258193,-0.20286 -0.118579,-0.18331 -0.06098,-0.2593 0.597374,-0.78815 0.755881,-0.60719 1.124239,-0.75394 1.62929,-0.64907 0.70671,0.14674 1.307624,1.05066 1.058635,1.59246 -0.144314,0.31402 -1.248955,1.35031 -1.442494,1.35323 -0.07896,0.001 -0.201309,-0.10266 -0.271877,-0.23081 z"
       id="path1429"
       inkscape:connector-curvature="0" />
    <path
       style="fill:#4682b4;fill-opacity:1;stroke-width:0.06650179"
       d="m 89.641052,195.97625 c -1.601855,-0.5467 -2.626818,-1.97497 -2.626818,-3.66045 0,-0.64814 0.124604,-1.18687 0.416817,-1.80213 0.188236,-0.39634 0.511502,-0.74339 3.403555,-3.65398 1.773071,-1.78443 3.288278,-3.25612 3.403842,-3.30607 0.330788,-0.14299 0.589624,-0.0249 1.136973,0.51882 l 0.484767,0.48153 0.603445,-0.60345 0.603446,-0.60345 -0.296476,-0.45952 c -1.869095,-2.89701 -2.285,-6.66199 -1.097597,-9.93602 1.190594,-3.28285 3.812803,-5.84592 7.102144,-6.94199 1.37406,-0.45787 1.9123,-0.53745 3.62435,-0.53587 1.33529,9.3e-4 1.61701,0.0205 2.21827,0.15125 0.94918,0.20649 1.97758,0.5597 2.78116,0.95521 l 0.6768,0.33313 0.52023,-0.19986 c 1.42608,-0.5479 2.5206,-0.58859 3.90343,-0.14514 1.47064,0.47162 2.7414,1.61779 3.5291,3.18311 0.32271,0.64128 0.73278,1.88259 0.87047,2.63489 0.14589,0.7971 0.2031,2.8699 0.10383,3.76184 -0.2559,2.29938 -0.86656,4.17482 -2.0958,6.43671 -0.31767,0.58452 -0.78819,1.55148 -1.0456,2.14878 -0.50361,1.16858 -0.70869,1.45178 -1.05132,1.45178 -0.1069,0 -0.78822,-0.20513 -1.51405,-0.45585 l -1.31968,-0.45585 -0.29707,0.25844 c -0.1634,0.14214 -0.53347,0.42113 -0.82237,0.61999 l -0.52529,0.36156 0.19278,0.0749 c 0.10603,0.0412 0.80626,0.28452 1.55606,0.54083 0.74981,0.25633 1.46187,0.51195 1.58236,0.56805 0.23275,0.10838 0.4127,0.3805 0.4127,0.62409 0,0.44101 -1.3025,3.25583 -1.97544,4.26911 -1.06836,1.60867 -2.81381,2.487 -4.47534,2.25203 -1.93555,-0.27372 -3.461,-1.46068 -4.0093,-3.11968 -0.26299,-0.79572 -0.33668,-1.39421 -0.28468,-2.31219 0.0249,-0.4389 0.0511,-0.90258 0.0582,-1.03038 l 0.013,-0.23236 -0.43226,-0.0469 c -1.48464,-0.16147 -3.53349,-0.90953 -4.74641,-1.73299 l -0.390545,-0.26514 -0.605924,0.60593 -0.605925,0.60592 0.477546,0.48274 c 0.543994,0.54993 0.655098,0.7662 0.552828,1.07607 -0.104017,0.31518 -6.368183,6.53733 -6.851397,6.80545 -0.946643,0.52526 -2.157083,0.63917 -3.158834,0.2973 z m 2.148843,-1.36054 c 0.451281,-0.16641 0.840052,-0.49823 2.272956,-1.94004 l 1.163211,-1.17043 -0.647377,-0.64738 -0.647378,-0.64738 -0.615586,0.61086 c -0.644156,0.63918 -0.83812,0.75961 -1.132715,0.7033 -0.307309,-0.0587 -0.513649,-0.32759 -0.513649,-0.66927 0,-0.28932 0.02196,-0.32184 0.646075,-0.95709 l 0.646074,-0.6576 -0.648777,-0.64649 -0.648775,-0.64651 -1.414756,1.42979 c -1.096309,1.10795 -1.456064,1.51454 -1.598282,1.80631 -0.473257,0.97097 -0.287168,2.12627 0.463374,2.87681 0.707285,0.70729 1.70279,0.91383 2.675605,0.55512 z m -1.83149,-1.41625 c -0.213616,-0.21361 -0.231245,-0.25972 -0.196968,-0.51529 0.04951,-0.36913 0.286821,-0.58013 0.652467,-0.58013 0.339516,0 0.495745,0.0851 0.628882,0.34256 0.145968,0.28227 0.07579,0.60297 -0.178815,0.81722 -0.301258,0.25348 -0.609638,0.23156 -0.905566,-0.0644 z m 20.893955,0.1993 c 0.98785,-0.25731 1.76024,-0.94451 2.48523,-2.21113 0.38275,-0.66871 1.17719,-2.39553 1.12575,-2.44698 -0.0127,-0.0127 -0.89083,-0.3214 -1.95141,-0.68602 l -1.92834,-0.66296 -0.53608,0.1897 c -0.64392,0.22787 -1.61223,0.4397 -2.51748,0.55074 l -0.66502,0.0816 -0.0759,0.43226 c -0.1129,0.64257 -0.10667,1.71673 0.0129,2.23251 0.23143,0.99792 0.79335,1.71521 1.70912,2.18175 0.84629,0.43113 1.57898,0.53709 2.34122,0.33855 z m -13.714273,-3.8041 0.915083,-0.91333 -0.613649,-0.61621 c -0.337507,-0.33891 -0.64458,-0.61621 -0.682388,-0.61621 -0.0378,0 -0.471817,0.40391 -0.964471,0.89758 l -0.895731,0.89758 0.629334,0.63196 c 0.346135,0.34758 0.644501,0.63197 0.663039,0.63197 0.01855,0 0.445491,-0.41101 0.948783,-0.91334 z m -2.261059,-2.26106 0.915083,-0.91332 -0.613649,-0.61622 c -0.337509,-0.33891 -0.644584,-0.6162 -0.682389,-0.6162 -0.03781,0 -0.471819,0.40392 -0.964471,0.89757 l -0.895731,0.89758 0.629335,0.63197 c 0.346133,0.34758 0.644501,0.63196 0.663039,0.63196 0.01854,0 0.445488,-0.41101 0.948783,-0.91334 z m 12.994682,-0.65234 c 3.34669,-0.49694 6.26678,-2.72528 7.65089,-5.83846 0.58822,-1.32305 0.83314,-2.49943 0.83991,-4.03417 0.005,-1.11399 -0.0864,-1.78098 -0.3871,-2.82633 -1.00107,-3.48062 -3.99295,-6.23946 -7.56714,-6.97774 -1.06692,-0.22038 -2.69458,-0.25146 -3.70457,-0.0708 -2.82577,0.50558 -5.365785,2.22739 -6.838387,4.63559 -1.067373,1.74552 -1.530669,3.5216 -1.455128,5.57831 0.07118,1.93816 0.577635,3.55191 1.598723,5.09418 1.607854,2.42856 3.941602,3.94708 6.827802,4.44275 0.70297,0.12072 2.21061,0.11906 3.035,-0.004 z m -3.06825,-1.96112 c -3.19258,-0.67119 -5.57304,-3.01186 -6.321426,-6.21572 -0.1481,-0.63402 -0.201091,-2.13503 -0.09982,-2.82759 0.418522,-2.86229 2.346696,-5.31789 5.011536,-6.38236 4.21864,-1.68514 8.96596,0.44135 10.58439,4.7411 0.59408,1.57834 0.62942,3.58425 0.0926,5.25647 -0.3687,1.14851 -1.201,2.47846 -2.07947,3.32281 -0.47898,0.46039 -1.40665,1.12506 -1.96537,1.40818 -0.50668,0.25676 -1.64805,0.62924 -2.24951,0.73412 -0.797,0.139 -2.22009,0.12128 -2.97293,-0.0369 z m 3.47727,-1.50366 c 0.61615,-0.17615 1.31852,-0.51008 1.89353,-0.90024 0.39814,-0.27015 1.24613,-1.03018 1.24613,-1.11687 0,-0.0273 -0.13161,-0.11946 -0.29247,-0.20479 l -0.29246,-0.15515 -0.92119,0.096 c -0.50666,0.0528 -1.26534,0.0957 -1.68597,0.0953 -0.70022,-6.9e-4 -0.79346,-0.0159 -1.10463,-0.17931 -0.18692,-0.0982 -0.50862,-0.33276 -0.71489,-0.52128 l -0.37504,-0.34276 -9.2e-4,1.38659 c -4.7e-4,0.76262 -0.0172,1.44705 -0.037,1.52097 -0.0318,0.1184 0.0375,0.15911 0.58279,0.34224 0.69524,0.23347 0.81835,0.23196 1.70212,-0.0206 z m -3.64284,-2.89987 c 6.9e-4,-3.07287 0.0484,-4.0079 0.27217,-5.33678 0.24158,-1.43468 0.71611,-3.22765 1.13128,-4.27447 0.10555,-0.26613 0.19191,-0.51517 0.19191,-0.55342 0,-0.1259 -1.19298,0.0512 -1.92856,0.28617 -0.64603,0.20643 -1.37936,0.59448 -1.98297,1.04932 -2.437972,1.83706 -3.296271,5.17071 -2.06263,8.01127 0.62319,1.43494 1.98731,2.79804 3.41384,3.41128 0.46804,0.2012 0.82181,0.33433 0.9144,0.34407 0.0274,0.003 0.0502,-1.31896 0.0506,-2.93744 z m 7.89472,-0.86303 c 0.42722,-0.99179 0.63981,-2.31737 0.52237,-3.25732 -0.0652,-0.52218 -0.13857,-0.54551 -1.52261,-0.48446 -1.38202,0.061 -1.74116,0.0161 -1.98826,-0.24844 -0.2602,-0.27853 -0.25781,-0.65399 0.006,-0.91764 0.18289,-0.18287 0.21705,-0.19098 0.79301,-0.18825 0.96878,0.004 2.20796,-0.0859 2.20796,-0.16119 0,-0.0861 -0.4223,-0.85007 -0.68809,-1.24475 -0.292,-0.4336 -1.00743,-1.15961 -1.50647,-1.52872 -0.69329,-0.51282 -1.45913,-0.86846 -2.50073,-1.16131 -0.125,-0.0351 -0.1687,0.0334 -0.41001,0.6437 -0.78047,1.9737 -1.28919,4.27415 -1.38635,6.26919 l -0.0421,0.86452 0.78993,0.77084 c 0.52449,0.5118 0.87224,0.79799 1.03487,0.85166 0.20232,0.0668 0.46268,0.0559 1.49604,-0.0622 0.72156,-0.0824 1.39854,-0.12607 1.59945,-0.10304 0.36527,0.0419 1.03035,0.30149 1.11238,0.43424 0.10819,0.17505 0.27138,0.0138 0.48277,-0.47691 z m -4.55468,-4.20479 c -0.39341,-0.33102 -0.32853,-0.90291 0.12929,-1.13964 0.17039,-0.0881 0.25449,-0.0946 0.45356,-0.035 0.31847,0.0954 0.46862,0.26899 0.51192,0.59178 0.0297,0.22141 0.006,0.29457 -0.15527,0.47478 -0.27388,0.30651 -0.65196,0.35 -0.9395,0.10803 z m -9.64026,9.59128 -0.380418,-0.38443 -0.550147,0.54729 -0.550149,0.54729 0.380418,0.38442 0.380417,0.38444 0.550147,-0.54729 0.55015,-0.5473 z m 18.68058,-1.57319 c 0.24959,-0.52617 0.4538,-0.96911 0.4538,-0.9843 0,-0.0999 -0.4833,-0.21034 -0.73351,-0.16762 -0.26078,0.0445 -0.3041,0.0831 -0.55605,0.49594 -0.15027,0.24622 -0.44141,0.67988 -0.64696,0.96367 -0.20556,0.28381 -0.37987,0.54517 -0.38737,0.58079 -0.008,0.0356 0.26543,0.15881 0.60649,0.27373 l 0.62012,0.20893 0.0948,-0.20722 c 0.0522,-0.11397 0.29905,-0.63773 0.54863,-1.16392 z m 1.30902,-2.58453 c 0.23214,-0.46205 0.71145,-1.75339 0.77325,-2.0833 0.0403,-0.21506 0.0215,-0.25814 -0.19576,-0.44889 -0.19998,-0.17559 -0.29498,-0.211 -0.56618,-0.211 -0.49527,0 -0.66703,0.0875 -0.66703,0.33948 0,0.26272 -0.29687,1.59767 -0.46208,2.07787 l -0.12383,0.35991 0.25723,0.0346 c 0.20629,0.0277 0.44495,0.12144 0.77661,0.30514 0.009,0.005 0.10212,-0.16339 0.20779,-0.3737 z m 1.31652,-5.60765 0.0405,-1.30168 -0.72372,0.0849 c -0.39805,0.0467 -0.9065,0.0862 -1.12991,0.088 l -0.40618,0.004 0.12232,0.58189 c 0.0673,0.32003 0.13938,0.82129 0.16024,1.1139 0.0209,0.2926 0.0513,0.6218 0.0677,0.73151 l 0.0297,0.19951 0.54874,9.3e-4 c 0.41015,6.9e-4 0.62434,0.0359 0.84801,0.13801 l 0.29926,0.13668 0.0515,-0.23776 c 0.0283,-0.13077 0.0697,-0.82351 0.092,-1.53942 z m -0.85304,-2.59675 c 0.3537,-0.041 0.65226,-0.0826 0.66345,-0.0924 0.043,-0.0376 -0.20281,-0.89067 -0.42259,-1.46628 -0.37574,-0.98408 -1.12903,-1.98775 -1.87931,-2.50394 -0.37518,-0.25815 -1.01782,-0.54404 -1.4758,-0.65655 -0.47325,-0.11626 -1.47596,-0.11751 -1.87588,-0.002 l -0.31309,0.0903 0.85049,0.84003 c 0.84544,0.83506 1.40266,1.54235 1.92227,2.43998 0.1672,0.28884 0.4654,0.65337 0.7752,0.94765 0.57514,0.54634 0.5583,0.54246 1.75526,0.40368 z"
       id="path1431"
       inkscape:connector-curvature="0" />
    <path
       style="fill:#4682b4;fill-opacity:1;stroke-width:0.07915007"
       d="m -38.94464,188.21216 c -0.01838,-0.0544 -0.320008,-1.15437 -0.67029,-2.44438 l -0.636878,-2.34545 v -2.89823 -2.89826 h 2.611952 2.611953 v 0.29983 0.29983 l -1.235849,0.17307 c -1.412542,0.1978 -1.650865,0.29891 -1.913937,0.81209 -0.175761,0.34286 -0.180901,0.41138 -0.1583,2.10988 0.02595,1.95074 0.03464,1.98429 0.616178,2.38008 0.424817,0.28913 0.849812,0.2403 1.821257,-0.20925 l 0.831076,-0.3846 0.02391,0.21584 c 0.0208,0.18766 0.129251,0.26805 0.831075,0.61605 1.385878,0.68721 3.564786,1.4182 5.352204,1.79558 4.463266,0.94237 7.788353,0.31335 9.865376,-1.86628 1.250617,-1.3124 1.946622,-2.85303 2.364078,-5.23295 l 0.05203,-0.2968 h 0.827495 c 0.969119,0 0.900209,-0.12452 0.671508,1.21324 -0.289433,1.69297 -0.945643,3.35552 -1.793264,4.54338 -1.095683,1.53545 -2.871771,2.76318 -4.818092,3.33048 -1.358333,0.39595 -1.811855,0.45061 -3.680478,0.44367 -1.563932,-0.006 -1.925429,-0.0324 -2.967476,-0.21843 -2.11558,-0.37762 -4.365922,-1.03471 -6.55032,-1.91266 -0.128591,-0.0516 -0.138513,0.0385 -0.138513,1.25877 v 1.31445 h -1.941657 c -1.482741,0 -1.949559,-0.0234 -1.975076,-0.099 z m 1.493804,-4.72762 c -0.09193,-0.0371 -0.24331,-0.16437 -0.336388,-0.28268 -0.161437,-0.20524 -0.169232,-0.29682 -0.169232,-1.98814 0,-1.93397 0.02534,-2.05732 0.458971,-2.23454 0.183813,-0.0751 16.945898,-2.69889 17.241982,-2.69889 0.0835,0 0.107817,0.17167 0.107817,0.7618 v 0.76183 l -1.041156,1.46163 c -0.572635,0.80393 -1.115803,1.49219 -1.207038,1.52949 -0.09124,0.0374 -2.96186,0.48238 -6.379163,0.98904 l -6.21328,0.92119 -0.937863,0.42842 c -0.923645,0.42192 -1.194483,0.48425 -1.524646,0.35085 z m 18.288926,-5.81553 c -0.122466,-0.12245 -0.194283,-0.28469 -0.194283,-0.43892 0,-0.1542 0.07182,-0.31645 0.194283,-0.43893 l 0.194276,-0.19427 h 2.619479 c 2.885227,0 3.026354,0.0206 3.122776,0.45978 0.06192,0.28193 -0.05923,0.6127 -0.264715,0.72267 -0.101654,0.0545 -1.093371,0.0839 -2.817215,0.0839 h -2.660325 z m 0.280619,-2.96812 v -1.34197 l 0.257239,-0.0427 c 0.357019,-0.0594 4.551045,-0.51843 4.736554,-0.51843 0.143611,0 0.150965,0.0791 0.150965,1.62258 v 1.62256 h -2.572377 -2.572381 z m -1.9222,-1.75224 c -0.208324,-0.0327 -0.501816,-0.13208 -0.652204,-0.22082 -0.355191,-0.20956 -2.253749,-1.67694 -2.253749,-1.74189 0,-0.0651 13.7651305,-1.78335 13.8231105,-1.72538 0.06678,0.0667 -1.6674745,2.28634 -1.9492035,2.49463 -0.134611,0.0994 -0.386966,0.23113 -0.560777,0.29245 -0.173804,0.0612 -1.944449,0.29037 -3.934761,0.50897 -1.990305,0.2186 -3.725592,0.40962 -3.85619,0.42449 -0.130599,0.0148 -0.407903,2.2e-4 -0.616226,-0.0325 z m -16.638264,-1.9949 c -0.1924,-0.109 -0.390867,-0.31421 -0.506466,-0.52376 -0.185553,-0.33637 -0.195202,-0.4485 -0.404447,-4.70046 -0.117895,-2.39573 -0.188199,-4.47185 -0.156224,-4.61362 0.03198,-0.14177 0.139356,-0.37183 0.238629,-0.51125 0.333871,-0.46887 0.609775,-0.53035 3.170363,-0.70639 1.280276,-0.0881 2.436374,-0.1601 2.569109,-0.16017 0.239097,-1.7e-4 0.243726,0.008 0.499058,0.8793 0.141749,0.48371 0.243947,0.89325 0.227111,0.91009 -0.01684,0.0168 -0.775677,0.067 -1.68631,0.11152 -2.055734,0.10033 -2.110879,0.1096 -2.452933,0.40995 -0.548508,0.4816 -0.543241,0.44338 -0.433831,3.14868 0.05373,1.32866 0.131036,2.54771 0.171779,2.70896 0.08734,0.34572 0.394452,0.73443 0.708611,0.89688 0.285884,0.14785 0.705562,0.14641 3.081355,-0.0107 2.218723,-0.14658 2.4667,-0.21149 2.813982,-0.73626 0.251422,-0.37993 0.256509,-0.45655 0.164698,-2.48136 -0.037,-0.81624 -0.04488,-1.48405 -0.01749,-1.48405 0.137712,0 1.867141,1.38278 1.86822,1.49374 7.19e-4,0.0709 0.03508,0.53843 0.07641,1.03904 0.04134,0.50064 0.08094,1.39793 0.08802,1.99401 0.01519,1.28041 -0.07615,1.54821 -0.649643,1.90448 l -0.350915,0.218 -3.757722,0.197 c -4.712762,0.24707 -4.853086,0.2475 -5.261348,0.0164 z m 10.120879,-0.40562 c 0.405189,-0.53124 0.445429,-0.72777 0.445429,-2.17545 v -1.34324 l 0.336388,-0.0447 c 0.185014,-0.0247 5.10914,-0.48886 10.942497,-1.0315 5.8333615,-0.54263 10.7396695,-1.00587 10.9029155,-1.02944 l 0.296817,-0.0428 v 1.25951 1.25948 l -0.467858,0.40533 -0.46786,0.40531 -10.8308105,1.26333 c -5.956946,0.69484 -10.95294,1.28457 -11.102207,1.3105 l -0.271393,0.0473 z m -11.759278,-3.27116 c -0.283305,-0.29486 -0.286279,-0.3052 -0.453609,-1.57824 -0.155045,-1.17959 -0.218589,-1.42703 -0.799415,-3.11294 -0.347039,-1.0073 -0.63098,-1.93902 -0.63098,-2.07049 0,-0.13143 0.05976,-0.36491 0.132811,-0.51884 0.245003,-0.51631 0.315251,-0.52822 4.972368,-0.84296 10.107115,-0.68303 26.7823455,-1.71377 27.0975245,-1.67496 0.470163,0.0578 1.071362,0.40059 1.312011,0.74783 0.109499,0.15802 0.348058,0.69635 0.530107,1.19626 0.322022,0.88428 0.36071,0.94609 1.42675,2.27899 l 1.095757,1.37004 v 0.70765 c 0,0.3892 -0.01969,0.70763 -0.04373,0.70763 -0.04253,0 -1.843502,0.17212 -15.7382505,1.50414 -3.652102,0.35011 -6.656,0.62076 -6.675335,0.60142 -0.01933,-0.0194 -0.052,-0.26057 -0.0726,-0.53608 -0.02058,-0.27553 -0.05321,-0.57887 -0.07248,-0.67408 -0.02328,-0.1151 -0.695429,-0.67052 -2.005988,-1.65761 l -1.970952,-1.48449 -0.403286,-1.43703 c -0.221807,-0.79037 -0.403286,-1.48225 -0.403286,-1.53755 0,-0.0771 -0.152173,-0.0891 -0.652988,-0.0515 -0.359144,0.0269 -1.715394,0.12216 -3.013889,0.21156 -1.298495,0.0893 -2.455907,0.19864 -2.572026,0.2428 -0.708233,0.26926 -1.060845,0.86373 -1.051502,1.77268 0.0057,0.55898 0.282186,4.98987 0.359153,5.75663 0.02075,0.20677 0.01097,0.37596 -0.02162,0.37596 -0.03264,0 -0.187688,-0.13359 -0.344532,-0.29683 z"
       id="path1433"
       inkscape:connector-curvature="0" />
    <path
       style="fill:#ffffff;fill-opacity:1;stroke-width:0.18283217"
       d="m 31.864064,291.25209 c -1.761401,-2.23 -2.118457,-2.59427 -2.380777,-2.4288 -0.234614,0.14798 -0.393099,0.11818 -0.661076,-0.12434 -0.336486,-0.30452 -0.417901,-0.29698 -1.79332,0.16592 -1.274793,0.42905 -1.640984,0.47464 -3.177734,0.39561 -1.817313,-0.0934 -3.176609,-0.50169 -4.281618,-1.28583 l -0.563437,-0.39982 0.411378,0.52536 c 0.445307,0.5687 0.512743,1.09978 0.233059,1.83539 -0.337893,0.88873 -1.307006,0.46818 -1.23212,-0.53469 0.04319,-0.57803 0.04374,-0.57762 -2.1548,-1.57776 -1.619755,-0.73685 -3.921735,-2.97664 -4.817212,-4.68703 -1.7314387,-3.30714 -2.3062076,-7.23868 -1.334504,-9.12822 0.963966,-1.87448 2.733238,-2.55445 4.306205,-1.65499 1.250863,0.71527 1.740366,1.74719 1.749736,3.68859 l 0.0041,0.90341 0.649544,-1.07867 c 0.544661,-0.90452 0.631017,-1.18829 0.534826,-1.75761 -0.163509,-0.96782 -1.036438,-2.24984 -1.93828,-2.84664 -0.664733,-0.4399 -0.955244,-0.51169 -2.066639,-0.51063 -1.087408,10e-4 -1.448051,0.0868 -2.266487,0.53916 -1.4930782,0.8252 -2.6134421,2.46413 -2.8336359,4.14519 -0.1596803,1.2191 0.1494126,2.84412 1.0562297,5.55302 1.2379402,3.69806 1.2834092,4.73015 0.2537643,5.7598 -0.658693,0.65869 -1.5276306,0.75112 -1.7083456,0.18174 -0.086097,-0.27127 0.059008,-0.53144 0.5598298,-1.00378 0.6283718,-0.59262 0.6675238,-0.69092 0.5551719,-1.39352 -0.066481,-0.41578 -0.4766242,-1.83583 -0.911427,-3.15568 -1.4071848,-4.27152 -1.5113355,-5.91598 -0.5101797,-8.05539 0.7090611,-1.51524 1.5987699,-2.47256 2.9841385,-3.21096 2.158917,-1.1507 4.561011,-0.92838 6.275519,0.58079 0.81279,0.71545 1.742786,2.20772 1.742786,2.79648 0,0.22946 0.115925,0.20601 0.622215,-0.12588 l 0.622213,-0.40785 -0.284042,-0.73653 c -0.156226,-0.40507 -0.353956,-0.81465 -0.439386,-0.91018 -0.231242,-0.25857 -0.187783,-0.94381 0.0732,-1.15411 0.4417,-0.35593 0.985961,0.0831 1.415726,1.14195 0.388788,0.95792 0.455459,1.02616 0.896253,0.91738 0.261917,-0.0645 0.551647,-0.19121 0.643835,-0.28132 0.2022,-0.19761 -0.27309,-1.34218 -1.117972,-2.69224 -3.037257,-4.85329 -9.999837,-5.64432 -14.285067,-1.62296 -1.2410713,1.16464 -2.4105585,2.94251 -2.9633405,4.50489 -0.5004774,1.41456 -0.6574007,1.6455 -1.1181585,1.6455 -0.7924539,0 -0.6008966,-1.36792 0.495247,-3.53657 1.631317,-3.22747 4.169244,-5.30524 7.53012,-6.16481 5.269856,-1.3478 10.456062,1.35255 12.564464,6.54207 l 0.429331,1.05674 1.23152,0.12451 c 0.677338,0.0686 1.651861,0.26093 2.165606,0.42766 4.59418,1.49103 7.065169,6.51843 5.498171,11.18643 -0.442612,1.31851 -0.449225,1.39776 -0.14481,1.73414 0.237393,0.26232 0.270783,0.42892 0.13052,0.65127 -0.155348,0.24629 0.05486,0.49134 1.196091,1.39416 0.761517,0.60245 1.941682,1.53764 2.622586,2.07822 l 1.238022,0.98286 -0.32386,0.5511 c -0.371686,0.63247 -2.324305,2.55491 -2.914553,2.86948 -0.369356,0.19688 -0.539583,0.0305 -2.468894,-2.41201 z m -14.03995,-4.82414 c -0.528436,-0.5782 -1.165668,-1.27206 -1.416071,-1.5419 -0.250404,-0.26984 -0.409442,-0.56479 -0.353415,-0.65545 0.132537,-0.21446 -0.263286,-1.50499 -0.461595,-1.50499 -0.08369,0 -0.152155,0.0735 -0.152155,0.16328 0,0.33332 -0.610184,0.38606 -0.946398,0.0818 -1.079374,-0.97683 -2.132783,-3.81165 -2.292187,-6.1685 -0.09682,-1.43151 -0.0706,-1.65569 0.218292,-1.86695 0.6585,-0.48151 0.943884,-0.0436 1.061958,1.62945 0.121965,1.72827 0.763045,3.78411 1.563943,5.01532 l 0.51767,0.79582 -0.07451,-1.51631 c -0.04097,-0.83397 -0.154995,-1.76313 -0.253362,-2.0648 -0.09835,-0.30166 -0.254897,-1.40287 -0.34786,-2.44711 -0.182485,-2.04977 -0.435735,-2.66178 -1.22577,-2.96214 -1.083726,-0.41204 -2.222001,0.40404 -2.618757,1.87749 -0.374089,1.38928 0.304877,4.79201 1.379219,6.91212 0.835712,1.64919 2.217807,3.20392 3.652742,4.10901 0.429012,0.27061 2.284281,1.10015 2.636812,1.179 0.03974,0.009 -0.360124,-0.45692 -0.888553,-1.03513 z m 8.13691,0.58681 c 2.024396,-0.52325 3.711204,-2.02018 2.709535,-2.40456 -0.270948,-0.10401 -0.267577,-0.13873 0.03497,-0.35993 0.465844,-0.34062 1.064895,-0.32169 0.930167,0.0294 -0.17849,0.46513 0.01763,0.30445 0.416872,-0.34153 0.402982,-0.65205 0.503076,-1.12701 0.197741,-0.93829 -0.110109,0.0682 -0.182836,-0.17441 -0.182836,-0.60956 0,-0.51862 -0.09031,-0.75786 -0.319957,-0.84763 -0.273767,-0.10703 -0.245041,-0.1647 0.199001,-0.39954 0.638295,-0.33758 0.758698,-0.23166 0.718847,0.63242 -0.02723,0.58999 -0.01136,0.61777 0.124328,0.21874 0.275537,-0.80994 0.201466,-2.30748 -0.174296,-3.52406 -0.404066,-1.30821 -0.686411,-1.66795 -1.102549,-1.40476 -0.718231,0.45426 -1.320641,-0.11556 -1.242811,-1.17557 0.05404,-0.73619 0.03544,-0.76244 -0.89512,-1.26254 -1.941419,-1.04332 -4.190776,-1.03997 -6.259937,0.009 l -0.999303,0.50676 0.05127,0.83354 c 0.06495,1.05616 -0.257052,1.39137 -1.065759,1.10946 -0.509868,-0.17775 -0.573656,-0.15171 -0.826561,0.33736 -0.367257,0.71019 -0.34529,0.89819 0.0916,0.78394 0.33361,-0.0872 0.365666,-0.005 0.365666,0.93127 0,0.90502 -0.04341,1.0269 -0.365666,1.0269 -0.307622,0 -0.365661,-0.12188 -0.365661,-0.7679 0,-0.54938 -0.05612,-0.71175 -0.197271,-0.57061 -0.202185,0.20218 -0.282717,3.11346 -0.09141,3.30476 0.05818,0.0582 0.105853,-0.11064 0.105853,-0.37526 0,-0.63075 0.600959,-0.97775 1.211537,-0.69955 0.348708,0.15888 0.433954,0.33774 0.433954,0.91058 0,0.82962 -0.348731,1.20412 -1.004527,1.07875 -0.538984,-0.10305 -0.540738,-0.0971 -0.1776,0.60519 0.219806,0.42505 0.348439,0.50722 0.594207,0.37955 0.626354,-0.32534 1.038374,0.0352 1.136416,0.99448 0.08559,0.83748 0.143786,0.92325 0.914162,1.34763 1.663201,0.9162 3.209398,1.1131 5.035182,0.64119 z m -5.270293,-1.1114 c -0.07181,-0.0719 -0.130554,-0.48972 -0.130554,-0.92872 0,-0.65677 0.07166,-0.82467 0.404558,-0.94781 0.910078,-0.33667 1.48679,0.39075 1.126776,1.42122 -0.122354,0.3502 -0.313482,0.49158 -0.71846,0.5315 -0.303467,0.0299 -0.610516,-0.004 -0.68232,-0.0762 z m 0.730082,-1.21018 c -0.04374,-0.22741 -0.08117,-0.0844 -0.08321,0.31783 -0.0021,0.40223 0.03372,0.58831 0.07951,0.41351 0.04576,-0.1748 0.04741,-0.50391 0.0034,-0.73134 z m 1.638069,1.20152 c -0.06703,-0.067 -0.121889,-0.38928 -0.121889,-0.7161 0,-0.32681 -0.102849,-0.63094 -0.228533,-0.67583 -0.310689,-0.11099 -0.145149,-0.25963 0.457454,-0.41088 l 0.502413,-0.1261 v 1.02541 c 0,0.7326 -0.06961,1.02538 -0.243778,1.02538 -0.13408,0 -0.298624,-0.0549 -0.365667,-0.12188 z m 1.385583,-0.0894 c -0.247772,-0.24779 -0.2864,-0.73925 -0.10989,-1.39826 0.09532,-0.35591 0.215059,-0.41243 0.774543,-0.36565 l 0.661783,0.0553 v 0.91417 c 0,0.8822 -0.01922,0.91605 -0.549402,0.96809 -0.302162,0.0296 -0.651833,-0.0485 -0.777032,-0.17367 z m 0.632994,-1.11225 c -0.04374,-0.22743 -0.08117,-0.0844 -0.08321,0.31782 -0.0021,0.40224 0.03372,0.58832 0.07952,0.4135 0.04574,-0.1748 0.04741,-0.5039 0.0034,-0.73132 z m 1.552749,1.104 c -0.120673,-0.12066 -0.219398,-0.53469 -0.219398,-0.92006 0,-0.55933 0.08297,-0.73153 0.41137,-0.85381 0.695739,-0.25903 1.135766,0.0313 1.20021,0.79169 0.03164,0.37323 -0.04015,0.79628 -0.159514,0.94008 -0.264309,0.31848 -0.933437,0.34133 -1.232668,0.0422 z m 0.640962,-1.28897 c -0.04361,-0.22626 -0.07924,-0.041 -0.07924,0.41138 0,0.45251 0.03565,0.63762 0.07924,0.41137 0.04361,-0.22625 0.04361,-0.59651 0,-0.82275 z m -6.893823,-2.11531 c 0,-0.52083 -0.09016,-0.76062 -0.319956,-0.85096 -0.267271,-0.10498 -0.229639,-0.16461 0.228542,-0.36154 0.719944,-0.30943 0.856379,-0.14951 0.788093,0.92384 -0.04304,0.67697 -0.133982,0.90698 -0.376723,0.95308 -0.261157,0.0496 -0.319956,-0.0725 -0.319956,-0.66442 z m 1.508365,0.57728 c -0.138736,-0.056 -0.228543,-0.44061 -0.228543,-0.97882 0,-0.72604 0.06619,-0.90763 0.365666,-1.00266 0.455999,-0.14473 1.090851,0.0444 1.115522,0.33227 0.05668,0.66168 -0.08173,1.5136 -0.264909,1.63037 -0.235535,0.15015 -0.643029,0.15792 -0.987736,0.0188 z m 0.639088,-1.38728 c -0.06323,-0.36124 -0.08944,-0.37233 -0.215266,-0.0909 -0.07882,0.17619 -0.07846,0.54642 6.91e-4,0.82274 0.135536,0.47248 0.148341,0.4779 0.215266,0.091 0.03912,-0.22625 0.03876,-0.59648 -6.91e-4,-0.82275 z m 1.600608,1.356 c -0.05032,-0.0502 -0.09143,-0.36566 -0.09143,-0.70086 0,-0.33519 -0.08227,-0.60944 -0.182829,-0.60944 -0.339983,0 -0.185588,-0.3057 0.256008,-0.50691 0.581368,-0.26489 0.658154,-0.15243 0.658154,0.964 0,0.71778 -0.06584,0.94463 -0.274251,0.94463 -0.150836,0 -0.315382,-0.041 -0.36566,-0.0915 z m 1.407806,-0.067 c -0.120673,-0.12069 -0.219397,-0.53382 -0.219397,-0.91809 0,-0.57345 0.08446,-0.73717 0.471275,-0.91341 0.333464,-0.15195 0.560692,-0.15874 0.777036,-0.0233 0.371285,0.23249 0.507735,1.4464 0.203755,1.81266 -0.264309,0.31849 -0.933436,0.34133 -1.232669,0.0422 z m 0.640963,-1.28898 c -0.0436,-0.22625 -0.07924,-0.041 -0.07924,0.41137 0,0.45251 0.03565,0.63762 0.07924,0.41138 0.0436,-0.22626 0.0436,-0.59649 0,-0.82275 z m 1.553024,1.28898 c -0.120673,-0.12069 -0.219399,-0.51561 -0.219399,-0.87761 0,-0.75793 0.263603,-1.09699 0.852878,-1.09699 0.480534,0 0.792612,0.48479 0.792612,1.23123 0,0.62027 -0.292681,0.96276 -0.822748,0.96276 -0.211169,0 -0.482678,-0.0987 -0.603343,-0.21939 z m 0.640962,-1.28898 c -0.0436,-0.22625 -0.07925,-0.041 -0.07925,0.41137 0,0.45251 0.03565,0.63762 0.07925,0.41138 0.0436,-0.22626 0.0436,-0.59649 0,-0.82275 z m -9.014312,-1.67196 c -0.05383,-0.14026 -0.07181,-0.57221 -0.03995,-0.95988 0.05377,-0.65425 0.102425,-0.7091 0.678629,-0.7641 0.373317,-0.0356 0.681919,0.0373 0.774233,0.18282 0.180356,0.28445 0.206234,1.09494 0.04809,1.50698 -0.141598,0.36899 -1.321942,0.3966 -1.461017,0.0342 z m 0.787141,-1.06839 c -0.04374,-0.22742 -0.08117,-0.0844 -0.08321,0.31784 -0.0021,0.40222 0.03379,0.5883 0.07953,0.41348 0.04576,-0.17479 0.0474,-0.50389 0.0034,-0.73132 z m 1.699016,0.69258 c 0,-0.41069 -0.11166,-0.69332 -0.319963,-0.8099 -0.283111,-0.15844 -0.260688,-0.20157 0.194736,-0.37473 0.283083,-0.10767 0.542858,-0.19569 0.577283,-0.19569 0.03442,0 0.09077,0.45261 0.12522,1.00582 0.05356,0.85997 0.01624,1.00579 -0.257322,1.00556 -0.242851,-1.8e-4 -0.319954,-0.15226 -0.319954,-0.63106 z m 1.357796,0.38749 c -0.05631,-0.1467 -0.0763,-0.58389 -0.04443,-0.97156 0.05521,-0.67262 0.08715,-0.70484 0.697806,-0.70484 h 0.639911 v 0.91417 c 0,0.89811 -0.01045,0.91516 -0.595458,0.97154 -0.394157,0.0379 -0.630058,-0.0326 -0.697805,-0.20931 z m 0.836182,-0.76223 c 0,-0.35197 -0.08227,-0.63992 -0.182829,-0.63992 -0.10056,0 -0.18283,0.28795 -0.18283,0.63992 0,0.35194 0.08227,0.6399 0.18283,0.6399 0.10056,0 0.182829,-0.28796 0.182829,-0.6399 z m 1.462659,0.28948 c 0,-0.40746 -0.09849,-0.75129 -0.22854,-0.79772 -0.310682,-0.11099 -0.145149,-0.25964 0.457454,-0.41089 l 0.502414,-0.1261 v 1.02539 c 0,0.90352 -0.04347,1.02539 -0.365661,1.02539 -0.303427,0 -0.365667,-0.12187 -0.365667,-0.71607 z m 1.473246,0.45459 c -0.119358,-0.14381 -0.191135,-0.57576 -0.159506,-0.95987 0.05625,-0.6833 0.07328,-0.69837 0.788833,-0.69837 0.715542,0 0.732571,0.015 0.788832,0.69837 0.06641,0.80637 -0.20164,1.22135 -0.788832,1.22135 -0.226772,0 -0.509966,-0.11766 -0.629327,-0.26148 z m 0.667222,-1.06191 c -0.04374,-0.22742 -0.08117,-0.0844 -0.08321,0.31784 -0.0021,0.40222 0.03379,0.5883 0.07952,0.41348 0.04575,-0.17479 0.04741,-0.50389 0.0034,-0.73132 z m 1.406839,1.06839 c -0.05383,-0.14026 -0.07181,-0.57221 -0.03995,-0.95988 0.05514,-0.67161 0.08785,-0.70484 0.693403,-0.70484 0.526239,0 0.665465,0.0851 0.809736,0.49542 0.26835,0.76306 -0.106383,1.4243 -0.807151,1.4243 -0.308776,0 -0.601885,-0.11398 -0.65602,-0.255 z m 0.787147,-1.06839 c -0.04374,-0.22742 -0.08117,-0.0844 -0.08321,0.31784 -0.0021,0.40222 0.03379,0.5883 0.07953,0.41348 0.04574,-0.17479 0.04741,-0.50389 0.0034,-0.73132 z m -8.76813,-1.79938 c -0.21472,-0.12507 -0.319955,-0.41189 -0.319955,-0.87203 0,-0.77225 0.257715,-1.12449 0.82274,-1.12449 0.565524,0 0.822748,0.3524 0.822748,1.12714 0,0.90609 -0.593826,1.29556 -1.325533,0.86938 z m 0.540398,-1.31089 c -0.0436,-0.22625 -0.07923,-0.041 -0.07923,0.41136 0,0.45252 0.03565,0.63765 0.07923,0.41139 0.04361,-0.22627 0.04361,-0.59651 0,-0.82275 z m 3.299078,1.31089 c -0.429606,-0.25022 -0.453626,-1.72326 -0.03075,-1.88553 0.598181,-0.22954 1.001156,-0.10714 1.17798,0.35799 0.254372,0.66906 0.221126,1.10758 -0.109006,1.43772 -0.330536,0.33053 -0.586883,0.3527 -1.038223,0.0899 z m 0.588646,-0.94522 c -0.0049,-0.63639 -0.04063,-0.71673 -0.199331,-0.44384 -0.177365,0.30498 -0.08962,1.22087 0.116954,1.22087 0.04836,0 0.08543,-0.34966 0.08238,-0.77703 z m 1.577506,1.00821 c -0.06012,-0.0602 -0.109294,-0.38353 -0.109294,-0.71873 0,-0.33519 -0.08227,-0.60945 -0.182836,-0.60945 -0.348433,0 -0.180639,-0.30796 0.282854,-0.51914 0.256127,-0.1167 0.502952,-0.21219 0.548496,-0.21219 0.04554,0 0.08281,0.44372 0.08281,0.98602 0,0.67725 -0.08028,1.01684 -0.256375,1.0844 -0.141002,0.0541 -0.305548,0.0493 -0.36566,-0.0114 z m -3.765937,-0.67303 c 0,-0.34356 -0.102849,-0.66322 -0.22854,-0.71034 -0.158313,-0.0593 -0.116175,-0.17449 0.137125,-0.37471 0.554688,-0.43847 0.726026,-0.272 0.786595,0.76423 0.04968,0.8496 0.0172,0.94551 -0.319958,0.94551 -0.305195,0 -0.375222,-0.1166 -0.375222,-0.62469 z m -4.080249,8.08651 c -0.05838,-0.14586 -0.101678,-0.10254 -0.110463,0.11043 -0.0079,0.19274 0.03531,0.30073 0.09602,0.23996 0.06074,-0.0607 0.06723,-0.21843 0.01444,-0.35042 z m -0.544355,-2.93674 c -0.04361,-0.22625 -0.07923,-0.041 -0.07923,0.41137 0,0.45251 0.03565,0.63762 0.07923,0.41138 0.0436,-0.22626 0.0436,-0.59649 0,-0.82275 z m 10.418434,-5.57637 c -0.04603,-0.17598 -0.08361,-0.032 -0.08361,0.31995 0,0.35195 0.0376,0.49593 0.08361,0.31996 0.04602,-0.17598 0.04602,-0.46394 0,-0.63991 z m -9.589613,0.23407 c 0.04747,-0.24834 0.0159,-0.40804 -0.07011,-0.35488 -0.151486,0.0936 -0.227787,0.80643 -0.08631,0.80643 0.03855,0 0.108939,-0.2032 0.156419,-0.45155 z m -6.29061,16.53607 c -0.854827,-0.45157 -2.392718,-0.62735 -3.4199932,-0.39091 -0.8776973,0.202 -1.2227655,0.13714 -1.3745616,-0.25844 -0.1818978,-0.474 0.1000079,-0.80216 0.8673809,-1.00971 1.8743549,-0.50696 5.3957069,0.35801 5.4176539,1.33075 0.0034,0.1639 -0.537433,0.70092 -0.695878,0.6906 -0.0682,-0.004 -0.425806,-0.16748 -0.794602,-0.36229 z m 2.62485,-1.28671 c -0.7026,-0.35111 -1.629803,-1.06741 -2.484892,-1.91974 -0.750247,-0.7478 -1.519925,-1.35965 -1.710411,-1.35965 -0.190486,0 -0.543914,0.21032 -0.785392,0.46735 -0.736371,0.78384 -1.9970037,1.52073 -2.8101951,1.64267 -0.9688369,0.14529 -2.1418904,-0.16227 -2.7993257,-0.73397 -0.4190407,-0.36438 -0.4702661,-0.49647 -0.2989217,-0.77076 0.2421064,-0.38761 0.5948431,-0.38201 1.6945874,0.0268 1.0846091,0.40323 1.6415989,0.24541 2.9976407,-0.84943 2.0123934,-1.62474 2.2979714,-1.58817 4.6170184,0.59117 1.242612,1.16776 1.968802,1.70147 2.671965,1.96378 1.112692,0.41508 1.438321,0.78056 1.080055,1.21223 -0.354085,0.42664 -0.917383,0.35649 -2.172129,-0.27051 z M 4.607064,286.72537 c -0.5127292,-0.28694 -0.3746149,-0.70425 0.5037946,-1.52228 1.0070786,-0.93782 1.0339591,-1.28031 0.2656974,-3.38537 -2.1470316,-5.88303 -1.0877542,-10.68671 2.987677,-13.54878 1.798668,-1.26316 2.729706,-1.54118 5.161002,-1.54118 1.901028,0 2.083118,0.0335 3.21286,0.58971 1.461174,0.71948 1.970296,1.21911 1.692229,1.66067 -0.308547,0.49 -0.690341,0.45929 -1.619949,-0.13024 -2.643239,-1.6763 -6.397394,-1.01954 -8.8657359,1.55098 -2.658786,2.76886 -3.0810407,6.40442 -1.2848185,11.06217 0.6891527,1.78703 0.7208297,2.8668 0.1144591,3.90149 -0.5272615,0.8997 -1.6891755,1.63035 -2.1672157,1.36283 z M 4.2271703,265.41746 c -0.779843,-0.77983 1.9919666,-2.96465 5.0636442,-3.9913 2.1036625,-0.7031 4.6357095,-0.81712 6.6985605,-0.30166 1.852173,0.46283 3.733556,1.37459 5.18165,2.51114 0.880026,0.69071 1.047253,0.91133 0.99998,1.31929 -0.08782,0.75795 -0.587677,0.69328 -1.710349,-0.22123 -1.975928,-1.60959 -4.796704,-2.65718 -7.175765,-2.66498 -2.467118,-0.007 -5.4455837,1.0612 -7.3499909,2.63872 -0.9501037,0.78704 -1.4308459,0.9869 -1.7077298,0.71002 z"
       id="path1427"
       inkscape:connector-curvature="0"
       sodipodi:nodetypes="ccccccccccsccsccccccccccsccscccscccccccccccscscccccccccccccccccssccccccccccscccccccccccsccccccccccccccsssccscsccscccccscccccccccccscccsscccccscccccccccscccccsscsscsccscsccccccccccccsscsscccsccccsscscsssscsscsccccccccccccsccsccsccscscccsssssscccsssccscsccccccccscsccccccccsssccsccccscccccscccsscsscccscccsscccccsscscsccccsccccsccccccscccccscccccccccscccssccccccccccc" />
  </g>
</svg>
